<svg xmlns="http://www.w3.org/2000/svg" width="512" height="512" viewBox="0 0 512 512" role="img" aria-label="Rap Arena">
	<defs>
		<radialGradient id="glow" cx="0.5" cy="0.16" r="0.85">
			<stop offset="0" stop-color="#e8192c" stop-opacity="0.55"/>
			<stop offset="0.45" stop-color="#e8192c" stop-opacity="0.12"/>
			<stop offset="1" stop-color="#e8192c" stop-opacity="0"/>
		</radialGradient>
		<linearGradient id="bgg" x1="0" y1="0" x2="0" y2="1">
			<stop offset="0" stop-color="#15151b"/>
			<stop offset="0.5" stop-color="#08080b"/>
			<stop offset="1" stop-color="#08080b"/>
		</linearGradient>
	</defs><rect width="512" height="512" rx="110.08" fill="url(#bgg)"/>
		   <rect width="512" height="512" rx="110.08" fill="url(#glow)"/><g transform="translate(256 360.96000000000004) skewX(-12)"><rect x="-128" y="-21.76" width="256" height="43.52" fill="#e8192c"/></g><g transform="translate(138 343.04) skewX(-7)" opacity="1"><path d="M54.25 0L9.75 0L9.75-220L77.25-220Q94.13-220 102.75-212.31Q111.38-204.63 114.31-190.81Q117.25-177 117.25-158.38L117.25-158.38Q117.25-140.38 112.69-129.63Q108.13-118.88 95.50-114.75L95.50-114.75Q105.88-112.63 110.06-104.44Q114.25-96.25 114.25-83.25L114.25-83.25L114.25 0L70.88 0L70.88-86.13Q70.88-95.75 66.94-98.06Q63-100.38 54.25-100.38L54.25-100.38L54.25 0ZM54.50-179.25L54.50-138.50L65.13-138.50Q74.25-138.50 74.25-158.38L74.25-158.38Q74.25-171.25 72.25-175.25Q70.25-179.25 64.75-179.25L64.75-179.25L54.50-179.25ZM158.26 0L115.51 0L136.76-220L211.38-220L232.26 0L190.63 0L187.51-35.50L161.01-35.50L158.26 0ZM172.51-182.50L164.13-70.63L184.13-70.63L174.51-182.50L172.51-182.50Z" fill="#f2ecdd"/></g><rect x="360.96" y="317.44" width="25.6" height="25.6" fill="#e8192c"/></svg>
