<svg xmlns="http://www.w3.org/2000/svg" width="1200" height="630" viewBox="0 0 1200 630" role="img" aria-label="Rapear Online">

	<defs>
		<linearGradient id="bg" x1="0" y1="0" x2="0.65" y2="1">
			<stop offset="0" stop-color="#0b0b10"/>
			<stop offset="0.5" stop-color="#121319"/>
			<stop offset="1" stop-color="#08080b"/>
		</linearGradient>
		<radialGradient id="topglow" cx="0.5" cy="0" r="0.8">
			<stop offset="0" stop-color="#e8192c" stop-opacity="0.28"/>
			<stop offset="1" stop-color="#e8192c" stop-opacity="0"/>
		</radialGradient>
		<linearGradient id="spotL" x1="0" y1="0" x2="0" y2="1">
			<stop offset="0" stop-color="#e8192c" stop-opacity="0.30"/>
			<stop offset="0.75" stop-color="#e8192c" stop-opacity="0"/>
		</linearGradient>
		<linearGradient id="spotR" x1="0" y1="0" x2="0" y2="1">
			<stop offset="0" stop-color="#f2ecdd" stop-opacity="0.14"/>
			<stop offset="0.75" stop-color="#f2ecdd" stop-opacity="0"/>
		</linearGradient>
		<pattern id="grid" width="44" height="44" patternUnits="userSpaceOnUse">
			<path d="M44 0H0v44" fill="none" stroke="#ffffff" stroke-opacity="0.04" stroke-width="1"/>
		</pattern>
	</defs>
	<rect width="1200" height="630" fill="url(#bg)"/>
	<rect width="1200" height="630" fill="url(#grid)"/>
	<rect width="1200" height="630" fill="url(#topglow)"/>
	<g transform="translate(250 -40) rotate(8)"><rect x="-110" y="0" width="220" height="750" fill="url(#spotL)" opacity="0.9"/></g>
	<g transform="translate(960 -40) rotate(-8)"><rect x="-130" y="0" width="260" height="750" fill="url(#spotR)" opacity="0.9"/></g>
	<g opacity="0.95"><circle cx="30" cy="656" r="26" fill="#040406"/><circle cx="75.6" cy="654.25" r="31.95" fill="#040406"/><circle cx="121.2" cy="652.52" r="24.47" fill="#040406"/><circle cx="166.8" cy="650.85" r="20.45" fill="#040406"/><circle cx="212.4" cy="649.26" r="28.96" fill="#040406"/><circle cx="258" cy="647.77" r="30.79" fill="#040406"/><circle cx="303.6" cy="646.42" r="21.8" fill="#040406"/><circle cx="349.2" cy="645.21" r="32.29" fill="#040406"/><circle cx="394.8" cy="644.18" r="41.15" fill="#040406"/><circle cx="440.4" cy="643.33" r="38.38" fill="#040406"/><circle cx="486" cy="642.69" r="30.23" fill="#040406"/><circle cx="531.6" cy="642.25" r="35.11" fill="#040406"/><circle cx="577.2" cy="642.03" r="42" fill="#040406"/><circle cx="622.8" cy="642.03" r="35.35" fill="#040406"/><circle cx="668.4" cy="642.25" r="30.17" fill="#040406"/><circle cx="714" cy="642.69" r="38.15" fill="#040406"/><circle cx="759.6" cy="643.33" r="41.28" fill="#040406"/><circle cx="805.2" cy="644.18" r="32.49" fill="#040406"/><circle cx="850.8" cy="645.21" r="31.63" fill="#040406"/><circle cx="896.4" cy="646.42" r="30.64" fill="#040406"/><circle cx="942" cy="647.77" r="29.17" fill="#040406"/><circle cx="987.6" cy="649.26" r="20.54" fill="#040406"/><circle cx="1033.2" cy="650.85" r="24.23" fill="#040406"/><circle cx="1078.8" cy="652.52" r="31.91" fill="#040406"/><circle cx="1124.4" cy="654.25" r="26.24" fill="#040406"/><circle cx="1170" cy="656" r="20.02" fill="#040406"/></g>
	<rect x="0" y="0" width="1200" height="6" fill="#e8192c"/>
	<rect x="0" y="624" width="1200" height="6" fill="#15151b"/>
	<rect x="0" y="624" width="408.00000000000006" height="6" fill="#e8192c"/>
<g transform="translate(1012 286) skewX(-8)">
		<rect x="-84.00000000000001" y="-67.2" width="168.00000000000003" height="134.4" fill="#e8192c"/>
		<g transform="translate(0 32.256)"><g transform="translate(-44.82 0)" opacity="1"><path d="M33.86 0L11.29 0L1.08-82.82L16.84-82.82L22.90-26.48L28.31-82.82L44.07-82.82L33.86 0ZM68.52 0.75L68.52 0.75Q57.19 0.75 52.18-4.89Q47.17-10.54 47.17-22.86L47.17-22.86L47.17-30.95L63.54-30.95L63.54-20.60Q63.54-17.73 64.41-16.11Q65.28-14.49 67.44-14.49L67.44-14.49Q69.70-14.49 70.57-15.80Q71.44-17.12 71.44-20.13L71.44-20.13Q71.44-23.94 70.69-26.50Q69.94-29.07 68.08-31.39Q66.22-33.72 62.93-36.83L62.93-36.83L55.50-43.88Q47.17-51.73 47.17-61.85L47.17-61.85Q47.17-72.43 52.09-77.98Q57.00-83.53 66.31-83.53L66.31-83.53Q77.70-83.53 82.47-77.46Q87.24-71.39 87.24-59.02L87.24-59.02L70.41-59.02L70.41-64.72Q70.41-66.41 69.44-67.35Q68.48-68.29 66.83-68.29L66.83-68.29Q64.86-68.29 63.94-67.18Q63.02-66.08 63.02-64.34L63.02-64.34Q63.02-62.60 63.96-60.58Q64.90-58.55 67.68-55.92L67.68-55.92L77.23-46.75Q80.09-44.02 82.49-40.99Q84.89-37.95 86.35-33.93Q87.81-29.91 87.81-24.13L87.81-24.13Q87.81-12.46 83.50-5.86Q79.20 0.75 68.52 0.75Z" fill="#08080b"/></g></g>
	</g>
<g transform="translate(66 104)" opacity="1"><path d="M3.50 0L0.53 0L5.35-22.68L8.40-22.68L13.24 0L10.25 0L9.21-5.71L4.59-5.71L3.50 0ZM6.89-18.20L5.01-7.98L8.79-7.98L6.89-18.20ZM26.70 0L23.54 0L23.54-22.68L28.10-22.68Q30.37-22.68 31.86-22.08Q33.34-21.48 34.05-20.15Q34.77-18.82 34.77-16.66L34.77-16.66Q34.77-15.34 34.49-14.27Q34.21-13.19 33.59-12.45Q32.98-11.70 31.97-11.37L31.97-11.37L35.19 0L32.14 0L29.17-10.64L26.70-10.64L26.70 0ZM26.70-20.41L26.70-12.91L27.91-12.91Q29.25-12.91 30.09-13.24Q30.93-13.58 31.32-14.39Q31.72-15.20 31.72-16.66L31.72-16.66Q31.72-18.65 30.99-19.53Q30.26-20.41 28.10-20.41L28.10-20.41L26.70-20.41ZM54.92 0L46.07 0L46.07-22.68L54.86-22.68L54.86-20.33L49.24-20.33L49.24-12.82L53.80-12.82L53.80-10.58L49.24-10.58L49.24-2.27L54.92-2.27L54.92 0ZM68.16 0L65.47 0L65.47-22.68L67.62-22.68L74.06-7.62L74.06-22.68L76.70-22.68L76.70 0L74.68 0L68.16-15.48L68.16 0ZM89.99 0L87.02 0L91.84-22.68L94.89-22.68L99.73 0L96.74 0L95.70-5.71L91.08-5.71L89.99 0ZM93.38-18.20L91.50-7.98L95.28-7.98L93.38-18.20ZM133.29 0L124.44 0L124.44-22.68L133.23-22.68L133.23-20.33L127.60-20.33L127.60-12.82L132.17-12.82L132.17-10.58L127.60-10.58L127.60-2.27L133.29-2.27L133.29 0ZM146.52 0L143.84 0L143.84-22.68L145.99-22.68L152.43-7.62L152.43-22.68L155.06-22.68L155.06 0L153.05 0L146.52-15.48L146.52 0ZM187.75 0L184.98 0L179.91-22.68L182.88-22.68L186.46-5.96L189.88-22.68L192.76-22.68L187.75 0ZM206.45 0L203.34 0L203.34-22.68L206.45-22.68L206.45 0ZM224.84 0L222.06 0L217.00-22.68L219.96-22.68L223.55-5.96L226.96-22.68L229.85-22.68L224.84 0ZM246.05 0.25L246.05 0.25Q243.76 0.25 242.38-0.64Q241.01-1.54 240.42-3.21Q239.84-4.87 239.84-7.11L239.84-7.11L239.84-15.71Q239.84-17.95 240.44-19.56Q241.04-21.17 242.40-22.02Q243.76-22.88 246.05-22.88L246.05-22.88Q248.35-22.88 249.69-22.01Q251.04-21.14 251.64-19.54Q252.24-17.95 252.24-15.71L252.24-15.71L252.24-7.08Q252.24-4.87 251.64-3.22Q251.04-1.57 249.69-0.66Q248.35 0.25 246.05 0.25ZM246.05-2.24L246.05-2.24Q247.31-2.24 247.96-2.76Q248.60-3.28 248.82-4.21Q249.05-5.15 249.05-6.41L249.05-6.41L249.05-16.35Q249.05-17.61 248.82-18.52Q248.60-19.43 247.96-19.92Q247.31-20.41 246.05-20.41L246.05-20.41Q244.79-20.41 244.13-19.92Q243.48-19.43 243.25-18.52Q243.03-17.61 243.03-16.35L243.03-16.35L243.03-6.41Q243.03-5.15 243.25-4.21Q243.48-3.28 244.13-2.76Q244.79-2.24 246.05-2.24Z" fill="#e8192c"/></g>
<g transform="translate(60 242) skewX(-3)" opacity="1"><path d="M55.03 0L5.33 0L5.33-120.31L53.46-120.31L53.46-97.07L29.80-97.07L29.80-73.62L52.50-73.62L52.50-51.00L29.80-51.00L29.80-23.45L55.03-23.45L55.03 0ZM86.47 0L62.96 0L62.96-120.31L87.71-120.31L98.78-62.69L98.78-120.31L122.02-120.31L122.02 0L98.51 0L86.47-60.16L86.47 0ZM167.07 0L143.01 0L143.01-97.21L128.72-97.21L128.72-120.31L181.36-120.31L181.36-97.21L167.07-97.21L167.07 0ZM212.39 0L188.06 0L188.06-120.31L224.97-120.31Q234.20-120.31 238.92-116.11Q243.63-111.90 245.24-104.35Q246.85-96.80 246.85-86.61L246.85-86.61Q246.85-76.77 244.35-70.89Q241.86-65.01 234.95-62.75L234.95-62.75Q240.63-61.59 242.92-57.11Q245.21-52.64 245.21-45.53L245.21-45.53L245.21 0L221.48 0L221.48-47.10Q221.48-52.36 219.33-53.63Q217.18-54.89 212.39-54.89L212.39-54.89L212.39 0ZM212.53-98.03L212.53-75.74L218.34-75.74Q223.33-75.74 223.33-86.61L223.33-86.61Q223.33-93.65 222.24-95.84Q221.14-98.03 218.13-98.03L218.13-98.03L212.53-98.03ZM274.87 0L251.49 0L263.12-120.31L303.93-120.31L315.34 0L292.58 0L290.87-19.41L276.38-19.41L274.87 0ZM282.67-99.80L278.09-38.62L289.02-38.62L283.76-99.80L282.67-99.80ZM299.55-130.36L267.08-123.94L267.08-139.18L299.55-154.08L299.55-130.36ZM375.63 0L352.26 0L363.88-120.31L404.69-120.31L416.10 0L393.34 0L391.63-19.41L377.14-19.41L375.63 0ZM383.43-99.80L378.85-38.62L389.79-38.62L384.52-99.80L383.43-99.80Z" fill="#f2ecdd"/></g>
<g transform="translate(60 373.6) skewX(-3)" opacity="1"><path d="M54.14 0L5.33 0L5.33-120.31L29.39-120.31L29.39-20.51L54.14-20.51L54.14 0ZM81.07 0L57.70 0L69.32-120.31L110.13-120.31L121.54 0L98.78 0L97.07-19.41L82.58-19.41L81.07 0ZM88.87-99.80L84.29-38.62L95.22-38.62L89.96-99.80L88.87-99.80ZM181.84 0L158.46 0L170.08-120.31L210.89-120.31L222.30 0L199.54 0L197.83-19.41L183.34-19.41L181.84 0ZM189.63-99.80L185.05-38.62L195.99-38.62L190.72-99.80L189.63-99.80ZM254.02 0L229.69 0L229.69-120.31L266.60-120.31Q275.83-120.31 280.55-116.11Q285.26-111.90 286.87-104.35Q288.48-96.80 288.48-86.61L288.48-86.61Q288.48-76.77 285.98-70.89Q283.49-65.01 276.58-62.75L276.58-62.75Q282.26-61.59 284.55-57.11Q286.84-52.64 286.84-45.53L286.84-45.53L286.84 0L263.12 0L263.12-47.10Q263.12-52.36 260.96-53.63Q258.81-54.89 254.02-54.89L254.02-54.89L254.02 0ZM254.16-98.03L254.16-75.74L259.97-75.74Q264.96-75.74 264.96-86.61L264.96-86.61Q264.96-93.65 263.87-95.84Q262.77-98.03 259.77-98.03L259.77-98.03L254.16-98.03ZM346.10 0L296.41 0L296.41-120.31L344.53-120.31L344.53-97.07L320.88-97.07L320.88-73.62L343.57-73.62L343.57-51.00L320.88-51.00L320.88-23.45L346.10-23.45L346.10 0ZM377.55 0L354.03 0L354.03-120.31L378.78-120.31L389.85-62.69L389.85-120.31L413.10-120.31L413.10 0L389.58 0L377.55-60.16L377.55 0ZM443.86 0L420.48 0L432.10-120.31L472.91-120.31L484.33 0L461.56 0L459.85-19.41L445.36-19.41L443.86 0ZM451.65-99.80L447.07-38.62L458.01-38.62L452.74-99.80L451.65-99.80Z" fill="#e8192c"/></g>
<g transform="translate(66 436)" opacity="1"><path d="M4.13 0L1.65 0L2.05-21.87L5.05-21.87L8.91-4.13L12.80-21.87L15.77-21.87L16.17 0L13.72 0L13.47-15.88L9.77 0L8.05 0L4.37-15.88L4.13 0ZM24.20 0L21.33 0L25.98-21.87L28.92-21.87L33.59 0L30.70 0L29.70-5.51L25.25-5.51L24.20 0ZM27.46-17.55L25.65-7.70L29.30-7.70L27.46-17.55ZM44.26 0L41.21 0L41.21-19.60L37.51-19.60L37.51-21.87L47.85-21.87L47.85-19.60L44.26-19.60L44.26 0ZM58.44 0.24L58.44 0.24Q56.11 0.24 54.83-0.73Q53.55-1.70 53.05-3.35Q52.55-5.00 52.55-7.02L52.55-7.02L52.55-14.74Q52.55-16.96 53.05-18.60Q53.55-20.25 54.83-21.15Q56.11-22.06 58.44-22.06L58.44-22.06Q60.49-22.06 61.69-21.30Q62.89-20.55 63.42-19.14Q63.94-17.74 63.94-15.77L63.94-15.77L63.94-14.04L61.06-14.04L61.06-15.58Q61.06-16.79 60.93-17.73Q60.81-18.66 60.27-19.17Q59.73-19.68 58.46-19.68L58.46-19.68Q57.17-19.68 56.57-19.13Q55.98-18.58 55.80-17.56Q55.63-16.55 55.63-15.20L55.63-15.20L55.63-6.53Q55.63-4.89 55.90-3.93Q56.17-2.97 56.79-2.56Q57.41-2.16 58.46-2.16L58.46-2.16Q59.71-2.16 60.25-2.71Q60.79-3.27 60.92-4.24Q61.06-5.21 61.06-6.51L61.06-6.51L61.06-8.13L63.94-8.13L63.94-6.51Q63.94-4.51 63.46-2.98Q62.97-1.46 61.78-0.61Q60.60 0.24 58.44 0.24ZM72.91 0L69.86 0L69.86-21.87L72.91-21.87L72.91-12.42L78.53-12.42L78.53-21.87L81.58-21.87L81.58 0L78.53 0L78.53-10.23L72.91-10.23L72.91 0ZM90.44 0L87.95 0L88.36-21.87L91.36-21.87L95.22-4.13L99.10-21.87L102.07-21.87L102.48 0L100.02 0L99.78-15.88L96.08 0L94.35 0L90.68-15.88L90.44 0ZM110.50 0L107.64 0L112.28-21.87L115.23-21.87L119.90 0L117.01 0L116.01-5.51L111.55-5.51L110.50 0ZM113.77-17.55L111.96-7.70L115.60-7.70L113.77-17.55ZM128.16 0L125.11 0L125.11-21.87L128.16-21.87L128.16-11.56L133.18-21.87L136.02-21.87L131.70-12.23L136.72 0L133.75 0L129.57-10.26L128.16-7.72L128.16 0ZM144.64 0L141.64 0L141.64-21.87L144.64-21.87L144.64 0ZM153.76 0L151.17 0L151.17-21.87L153.25-21.87L159.46-7.34L159.46-21.87L162.00-21.87L162.00 0L160.06 0L153.76-14.93L153.76 0ZM173.64 0.27L173.64 0.27Q171.59 0.27 170.36-0.61Q169.13-1.48 168.58-3.16Q168.02-4.83 168.02-7.18L168.02-7.18L168.02-14.50Q168.02-16.90 168.52-18.59Q169.02-20.28 170.31-21.17Q171.59-22.06 173.88-22.06L173.88-22.06Q175.93-22.06 177.19-21.37Q178.45-20.68 179.01-19.26Q179.58-17.85 179.58-15.69L179.58-15.69L179.58-14.88L176.72-14.88L176.72-15.55Q176.72-16.98 176.53-17.89Q176.34-18.79 175.76-19.24Q175.18-19.68 173.94-19.68L173.94-19.68Q172.59-19.68 171.98-19.06Q171.37-18.44 171.22-17.37Q171.07-16.31 171.07-14.96L171.07-14.96L171.07-6.86Q171.07-5.29 171.30-4.24Q171.53-3.19 172.18-2.67Q172.83-2.16 174.02-2.16L174.02-2.16Q175.21-2.16 175.85-2.73Q176.50-3.29 176.74-4.40Q176.99-5.51 176.99-7.16L176.99-7.16L176.99-8.67L174.21-8.67L174.21-10.83L179.74-10.83L179.74 0L177.82 0L177.53-2.51Q177.10-1.30 176.18-0.51Q175.26 0.27 173.64 0.27ZM200.86 0L197.97 0L197.97-18.09Q197.95-18.06 197.37-17.93Q196.78-17.79 196.06-17.66Q195.33-17.52 194.76-17.41Q194.19-17.31 194.17-17.31L194.17-17.31L194.17-19.49Q194.62-19.60 195.23-19.79Q195.84-19.98 196.47-20.25Q197.11-20.52 197.69-20.93Q198.27-21.33 198.67-21.87L198.67-21.87L200.86-21.87L200.86 0ZM223.93 0L221.25 0L216.37-21.87L219.23-21.87L222.68-5.75L225.98-21.87L228.76-21.87L223.93 0ZM239.24 0.24L239.24 0.24Q237.35 0.24 236.09-0.57Q234.84-1.38 234.19-2.81Q233.54-4.24 233.43-6.13L233.43-6.13L236.13-6.86Q236.21-5.70 236.50-4.62Q236.78-3.54 237.43-2.85Q238.08-2.16 239.24-2.16L239.24-2.16Q240.43-2.16 241.03-2.82Q241.64-3.48 241.64-4.72L241.64-4.72Q241.64-6.21 240.97-7.11Q240.29-8.02 239.26-8.94L239.26-8.94L235.59-12.18Q234.51-13.12 234.00-14.24Q233.49-15.36 233.49-17.01L233.49-17.01Q233.49-19.41 234.86-20.74Q236.24-22.06 238.62-22.06L238.62-22.06Q239.91-22.06 240.90-21.72Q241.88-21.38 242.55-20.68Q243.21-19.98 243.60-18.91Q243.99-17.85 244.12-16.42L244.12-16.42L241.53-15.71Q241.45-16.79 241.21-17.70Q240.97-18.60 240.36-19.16Q239.75-19.71 238.62-19.71L238.62-19.71Q237.48-19.71 236.85-19.10Q236.21-18.50 236.21-17.31L236.21-17.31Q236.21-16.31 236.55-15.66Q236.89-15.01 237.64-14.34L237.64-14.34L241.34-11.10Q242.59-10.02 243.53-8.52Q244.48-7.02 244.48-4.97L244.48-4.97Q244.48-3.35 243.80-2.17Q243.13-1.00 241.95-0.38Q240.78 0.24 239.24 0.24ZM264.84 0L261.95 0L261.95-18.09Q261.92-18.06 261.34-17.93Q260.76-17.79 260.03-17.66Q259.30-17.52 258.74-17.41Q258.17-17.31 258.14-17.31L258.14-17.31L258.14-19.49Q258.60-19.60 259.21-19.79Q259.82-19.98 260.45-20.25Q261.09-20.52 261.67-20.93Q262.25-21.33 262.65-21.87L262.65-21.87L264.84-21.87L264.84 0ZM283.61-8.69L280.69-8.69L280.69-11.66L283.61-11.66L283.61-8.69ZM306.89 0L298.36 0L298.36-21.87L306.84-21.87L306.84-19.60L301.41-19.60L301.41-12.37L305.81-12.37L305.81-10.21L301.41-10.21L301.41-2.19L306.89-2.19L306.89 0ZM320.99 0L312.35 0L312.35-21.87L315.40-21.87L315.40-2.19L320.99-2.19L320.99 0ZM334.60 0L326.07 0L326.07-21.87L334.54-21.87L334.54-19.60L329.12-19.60L329.12-12.37L333.52-12.37L333.52-10.21L329.12-10.21L329.12-2.19L334.60-2.19L334.60 0ZM345.27 0.27L345.27 0.27Q343.21 0.27 341.99-0.61Q340.76-1.48 340.20-3.16Q339.65-4.83 339.65-7.18L339.65-7.18L339.65-14.50Q339.65-16.90 340.15-18.59Q340.65-20.28 341.93-21.17Q343.21-22.06 345.51-22.06L345.51-22.06Q347.56-22.06 348.82-21.37Q350.07-20.68 350.64-19.26Q351.21-17.85 351.21-15.69L351.21-15.69L351.21-14.88L348.34-14.88L348.34-15.55Q348.34-16.98 348.16-17.89Q347.97-18.79 347.39-19.24Q346.81-19.68 345.56-19.68L345.56-19.68Q344.21-19.68 343.61-19.06Q343.00-18.44 342.85-17.37Q342.70-16.31 342.70-14.96L342.70-14.96L342.70-6.86Q342.70-5.29 342.93-4.24Q343.16-3.19 343.81-2.67Q344.46-2.16 345.64-2.16L345.64-2.16Q346.83-2.16 347.48-2.73Q348.13-3.29 348.37-4.40Q348.61-5.51 348.61-7.16L348.61-7.16L348.61-8.67L345.83-8.67L345.83-10.83L351.37-10.83L351.37 0L349.45 0L349.15-2.51Q348.72-1.30 347.80-0.51Q346.89 0.27 345.27 0.27ZM360.66 0L357.66 0L357.66-21.87L360.66-21.87L360.66 0ZM359.85-23.17L358.39-23.17L359.98-28.51L362.87-28.51L359.85-23.17ZM378.81 0L376.33 0L376.73-21.87L379.73-21.87L383.59-4.13L387.48-21.87L390.45-21.87L390.85 0L388.39 0L388.15-15.88L384.45 0L382.72 0L379.05-15.88L378.81 0ZM402.79 0.24L402.79 0.24Q400.57 0.24 399.25-0.62Q397.93-1.48 397.36-3.09Q396.79-4.70 396.79-6.86L396.79-6.86L396.79-15.15Q396.79-17.31 397.38-18.86Q397.96-20.41 399.27-21.24Q400.57-22.06 402.79-22.06L402.79-22.06Q405.00-22.06 406.30-21.22Q407.59-20.38 408.18-18.85Q408.76-17.31 408.76-15.15L408.76-15.15L408.76-6.83Q408.76-4.70 408.18-3.10Q407.59-1.51 406.30-0.63Q405.00 0.24 402.79 0.24ZM402.79-2.16L402.79-2.16Q404.00-2.16 404.62-2.66Q405.25-3.16 405.46-4.06Q405.68-4.97 405.68-6.18L405.68-6.18L405.68-15.77Q405.68-16.98 405.46-17.86Q405.25-18.74 404.62-19.21Q404.00-19.68 402.79-19.68L402.79-19.68Q401.57-19.68 400.94-19.21Q400.30-18.74 400.09-17.86Q399.87-16.98 399.87-15.77L399.87-15.77L399.87-6.18Q399.87-4.97 400.09-4.06Q400.30-3.16 400.94-2.66Q401.57-2.16 402.79-2.16ZM419.75 0L414.75 0L414.75-21.87L419.50-21.87Q421.93-21.87 423.35-21.13Q424.77-20.38 425.38-18.90Q425.98-17.41 425.98-15.20L425.98-15.20L425.98-7.16Q425.98-4.83 425.38-3.24Q424.77-1.65 423.41-0.82Q422.04 0 419.75 0L419.75 0ZM417.80-19.60L417.80-2.19L419.53-2.19Q421.21-2.19 421.91-2.83Q422.61-3.48 422.76-4.72Q422.91-5.97 422.91-7.72L422.91-7.72L422.91-14.82Q422.91-16.52 422.69-17.58Q422.47-18.63 421.75-19.12Q421.02-19.60 419.45-19.60L419.45-19.60L417.80-19.60ZM437.57 0.24L437.57 0.24Q435.36 0.24 434.03-0.62Q432.71-1.48 432.14-3.09Q431.58-4.70 431.58-6.86L431.58-6.86L431.58-15.15Q431.58-17.31 432.16-18.86Q432.74-20.41 434.05-21.24Q435.36-22.06 437.57-22.06L437.57-22.06Q439.78-22.06 441.08-21.22Q442.38-20.38 442.96-18.85Q443.54-17.31 443.54-15.15L443.54-15.15L443.54-6.83Q443.54-4.70 442.96-3.10Q442.38-1.51 441.08-0.63Q439.78 0.24 437.57 0.24ZM437.57-2.16L437.57-2.16Q438.79-2.16 439.41-2.66Q440.03-3.16 440.24-4.06Q440.46-4.97 440.46-6.18L440.46-6.18L440.46-15.77Q440.46-16.98 440.24-17.86Q440.03-18.74 439.41-19.21Q438.79-19.68 437.57-19.68L437.57-19.68Q436.36-19.68 435.72-19.21Q435.09-18.74 434.87-17.86Q434.65-16.98 434.65-15.77L434.65-15.77L434.65-6.18Q434.65-4.97 434.87-4.06Q435.09-3.16 435.72-2.66Q436.36-2.16 437.57-2.16ZM449.37 3.54L449.37 3.54L448.91 2.29Q449.64 2.05 450.06 1.44Q450.48 0.84 450.48 0L450.48 0L448.94 0L448.94-3.10L451.91-3.10L451.91-0.05Q451.91 1.38 451.29 2.23Q450.67 3.08 449.37 3.54ZM472.60 0L466.77 0L466.77-21.87L471.79-21.87Q473.27-21.87 474.37-21.55Q475.46-21.22 476.19-20.55Q476.92-19.87 477.27-18.83Q477.62-17.79 477.62-16.39L477.62-16.39Q477.62-15.04 477.28-14.05Q476.95-13.07 476.26-12.50Q475.57-11.93 474.49-11.77L474.49-11.77Q475.81-11.47 476.62-10.76Q477.43-10.04 477.82-8.92Q478.21-7.80 478.21-6.24L478.21-6.24Q478.21-4.83 477.89-3.67Q477.57-2.51 476.88-1.70Q476.19-0.89 475.12-0.45Q474.06 0 472.60 0L472.60 0ZM469.82-10.42L469.82-2.19L471.87-2.19Q473.92-2.19 474.61-3.15Q475.30-4.10 475.30-6.24L475.30-6.24Q475.30-7.61 474.93-8.55Q474.57-9.48 473.77-9.95Q472.98-10.42 471.63-10.42L471.63-10.42L469.82-10.42ZM469.82-19.60L469.82-12.74L471.63-12.74Q472.92-12.74 473.65-13.11Q474.38-13.47 474.68-14.28Q474.97-15.09 474.97-16.39L474.97-16.39Q474.97-17.90 474.52-18.58Q474.06-19.25 473.08-19.43Q472.11-19.60 470.55-19.60L470.55-19.60L469.82-19.60ZM492.45 0L483.91 0L483.91-21.87L492.39-21.87L492.39-19.60L486.97-19.60L486.97-12.37L491.37-12.37L491.37-10.21L486.97-10.21L486.97-2.19L492.45-2.19L492.45 0ZM499.58 0L496.72 0L501.36-21.87L504.30-21.87L508.97 0L506.08 0L505.09-5.51L500.63-5.51L499.58 0ZM502.84-17.55L501.04-7.70L504.68-7.70L502.84-17.55ZM519.64 0L516.59 0L516.59-19.60L512.89-19.60L512.89-21.87L523.23-21.87L523.23-19.60L519.64-19.60L519.64 0ZM543.79 0L540.87 0L540.87-7.72L536.14-21.87L538.98-21.87L542.33-11.31L545.62-21.87L548.48-21.87L543.79-7.72L543.79 0ZM565.74 0L562.69 0L562.69-21.87L567.09-21.87Q569.28-21.87 570.71-21.29Q572.14-20.71 572.83-19.43Q573.52-18.14 573.52-16.07L573.52-16.07Q573.52-14.80 573.25-13.76Q572.98-12.72 572.38-12.00Q571.79-11.29 570.82-10.96L570.82-10.96L573.92 0L570.98 0L568.12-10.26L565.74-10.26L565.74 0ZM565.74-19.68L565.74-12.45L566.90-12.45Q568.20-12.45 569.01-12.77Q569.82-13.10 570.20-13.88Q570.58-14.66 570.58-16.07L570.58-16.07Q570.58-17.98 569.87-18.83Q569.17-19.68 567.09-19.68L567.09-19.68L565.74-19.68ZM582.86 0L579.87 0L579.87-21.87L582.86-21.87L582.86 0ZM595.88 0L593.21 0L588.32-21.87L591.18-21.87L594.64-5.75L597.93-21.87L600.71-21.87L595.88 0ZM607.71 0L604.85 0L609.49-21.87L612.43-21.87L617.11 0L614.22 0L613.22-5.51L608.76-5.51L607.71 0ZM610.98-17.55L609.17-7.70L612.81-7.70L610.98-17.55ZM630.96 0L622.32 0L622.32-21.87L625.37-21.87L625.37-2.19L630.96-2.19L630.96 0Z" fill="#f2ecdd"/></g>
<g transform="translate(64 505) skewX(-6)">
		<rect x="9" y="-21.22" width="267.96" height="60.45" fill="#7e0d19" opacity="0.5"/>
		<rect x="0" y="-30.22" width="267.96" height="60.45" fill="#e8192c"/>
		<g transform="skewX(6)"><g transform="translate(31 10.54)" opacity="1"><path d="M8.40 0L1.18 0L1.18-26.64L8.40-26.64Q11.31-26.64 12.63-25.23Q13.96-23.81 13.96-20.56L13.96-20.56L13.96-19.39Q13.96-17.51 13.28-16.35Q12.61-15.18 11.23-14.82L11.23-14.82Q13.03-14.36 13.65-12.69Q14.26-11.02 14.26-8.61L14.26-8.61Q14.26-6.02 13.77-4.09Q13.29-2.15 12.02-1.07Q10.75 0 8.40 0L8.40 0ZM6.39-22.52L6.39-16.60L7.48-16.60Q8.22-16.60 8.43-17.18Q8.64-17.76 8.64-18.56L8.64-18.56L8.64-21.24Q8.64-22.52 7.51-22.52L7.51-22.52L6.39-22.52ZM6.92-4.69L6.92-4.69Q8.99-4.69 8.99-6.66L8.99-6.66L8.99-9.99Q8.99-11.13 8.65-11.78Q8.31-12.44 7.37-12.44L7.37-12.44L6.39-12.44L6.39-4.72Q6.72-4.69 6.92-4.69ZM23.18 0.24L23.18 0.24Q19.85 0.24 18.27-1.63Q16.70-3.50 16.70-7.13L16.70-7.13L16.70-26.64L21.87-26.64L21.87-7.34Q21.87-6.68 21.95-6.06Q22.02-5.45 22.30-5.06Q22.57-4.66 23.18-4.66L23.18-4.66Q23.80-4.66 24.07-5.05Q24.34-5.43 24.41-6.05Q24.48-6.68 24.48-7.34L24.48-7.34L24.48-26.64L29.65-26.64L29.65-7.13Q29.65-3.50 28.08-1.63Q26.51 0.24 23.18 0.24ZM39.02 0.24L39.02 0.24Q35.38 0.24 33.76-1.57Q32.15-3.39 32.15-7.36L32.15-7.36L32.15-9.96L37.42-9.96L37.42-6.63Q37.42-5.71 37.70-5.18Q37.98-4.66 38.68-4.66L38.68-4.66Q39.40-4.66 39.68-5.09Q39.96-5.51 39.96-6.48L39.96-6.48Q39.96-7.70 39.72-8.53Q39.48-9.35 38.88-10.10Q38.28-10.85 37.22-11.85L37.22-11.85L34.83-14.12Q32.15-16.65 32.15-19.90L32.15-19.90Q32.15-23.31 33.73-25.10Q35.32-26.88 38.31-26.88L38.31-26.88Q41.98-26.88 43.51-24.93Q45.05-22.98 45.05-19.00L45.05-19.00L39.63-19.00L39.63-20.83Q39.63-21.37 39.32-21.68Q39.01-21.98 38.48-21.98L38.48-21.98Q37.84-21.98 37.55-21.62Q37.25-21.27 37.25-20.71L37.25-20.71Q37.25-20.15 37.56-19.50Q37.86-18.85 38.75-18.00L38.75-18.00L41.82-15.05Q42.75-14.17 43.52-13.19Q44.29-12.22 44.76-10.92Q45.23-9.63 45.23-7.77L45.23-7.77Q45.23-4.01 43.85-1.88Q42.46 0.24 39.02 0.24ZM54.21 0.24L54.21 0.24Q51.32 0.24 49.55-1.56Q47.79-3.36 47.79-6.60L47.79-6.60L47.79-18.89Q47.79-22.77 49.33-24.82Q50.86-26.88 54.33-26.88L54.33-26.88Q56.22-26.88 57.70-26.19Q59.17-25.49 60.02-24.11Q60.87-22.72 60.87-20.62L60.87-20.62L60.87-16.01L55.57-16.01L55.57-19.95Q55.57-21.15 55.27-21.56Q54.96-21.98 54.33-21.98L54.33-21.98Q53.59-21.98 53.33-21.44Q53.07-20.90 53.07-20.01L53.07-20.01L53.07-6.68Q53.07-5.57 53.40-5.12Q53.72-4.66 54.33-4.66L54.33-4.66Q55.01-4.66 55.29-5.22Q55.57-5.78 55.57-6.68L55.57-6.68L55.57-11.47L60.93-11.47L60.93-6.43Q60.93-2.92 59.16-1.34Q57.39 0.24 54.21 0.24ZM68.15 0L62.97 0L65.55-26.64L74.58-26.64L77.11 0L72.07 0L71.69-4.30L68.48-4.30L68.15 0ZM69.88-22.10L68.86-8.55L71.28-8.55L70.12-22.10L69.88-22.10ZM85.13 0L79.75 0L79.75-26.64L87.92-26.64Q89.96-26.64 91.01-25.71Q92.05-24.78 92.41-23.11Q92.76-21.43 92.76-19.18L92.76-19.18Q92.76-17.00 92.21-15.70Q91.66-14.40 90.13-13.90L90.13-13.90Q91.39-13.64 91.89-12.65Q92.40-11.66 92.40-10.08L92.40-10.08L92.40 0L87.15 0L87.15-10.43Q87.15-11.59 86.67-11.87Q86.19-12.15 85.13-12.15L85.13-12.15L85.13 0ZM85.16-21.71L85.16-16.77L86.45-16.77Q87.56-16.77 87.56-19.18L87.56-19.18Q87.56-20.74 87.31-21.22Q87.07-21.71 86.41-21.71L86.41-21.71L85.16-21.71ZM109.17 0L103.78 0L103.78-26.64L111.96-26.64Q114.00-26.64 115.05-25.71Q116.09-24.78 116.45-23.11Q116.80-21.43 116.80-19.18L116.80-19.18Q116.80-17.00 116.25-15.70Q115.70-14.40 114.17-13.90L114.17-13.90Q115.42-13.64 115.93-12.65Q116.44-11.66 116.44-10.08L116.44-10.08L116.44 0L111.19 0L111.19-10.43Q111.19-11.59 110.71-11.87Q110.23-12.15 109.17-12.15L109.17-12.15L109.17 0ZM109.20-21.71L109.20-16.77L110.49-16.77Q111.59-16.77 111.59-19.18L111.59-19.18Q111.59-20.74 111.35-21.22Q111.11-21.71 110.44-21.71L110.44-21.71L109.20-21.71ZM124.46 0L119.32 0L119.32-26.64L124.46-26.64L124.46 0ZM137.30 0L130.03 0L126.75-26.66L131.82-26.66L133.77-8.52L135.51-26.66L140.58-26.66L137.30 0ZM147.58 0L142.40 0L144.97-26.64L154.01-26.64L156.54 0L151.50 0L151.12-4.30L147.91-4.30L147.58 0ZM149.30-22.10L148.29-8.55L150.71-8.55L149.55-22.10L149.30-22.10ZM169.98 0L159.17 0L159.17-26.64L164.50-26.64L164.50-4.54L169.98-4.54L169.98 0Z" fill="#08080b"/></g><path d="M218.36 -10.85 L236.96 0 L218.36 10.85 Z" fill="#08080b"/></g>
	</g>


	<circle cx="74" cy="578" r="6" fill="#e8192c"/>
	<g transform="translate(92 586)" opacity="1"><path d="M3.87 0L1.39 0L1.39-17.82L8.27-17.82L8.27-16.04L3.87-16.04L3.87-10.10L7.28-10.10L7.28-8.34L3.87-8.34L3.87 0ZM15.47 0L12.99 0L12.99-17.82L16.57-17.82Q18.36-17.82 19.52-17.35Q20.69-16.87 21.25-15.83Q21.81-14.78 21.81-13.09L21.81-13.09Q21.81-12.06 21.59-11.21Q21.37-10.36 20.89-9.78Q20.40-9.20 19.61-8.93L19.61-8.93L22.14 0L19.74 0L17.41-8.36L15.47-8.36L15.47 0ZM15.47-16.04L15.47-10.14L16.42-10.14Q17.48-10.14 18.14-10.41Q18.80-10.67 19.10-11.31Q19.41-11.95 19.41-13.09L19.41-13.09Q19.41-14.65 18.84-15.34Q18.27-16.04 16.57-16.04L16.57-16.04L15.47-16.04ZM34.36 0L27.41 0L27.41-17.82L34.31-17.82L34.31-15.97L29.89-15.97L29.89-10.08L33.48-10.08L33.48-8.32L29.89-8.32L29.89-1.78L34.36-1.78L34.36 0ZM46.31 0L39.36 0L39.36-17.82L46.27-17.82L46.27-15.97L41.85-15.97L41.85-10.08L45.43-10.08L45.43-8.32L41.85-8.32L41.85-1.78L46.31-1.78L46.31 0ZM55.52 0.20L55.52 0.20Q53.98 0.20 52.95-0.46Q51.93-1.12 51.40-2.29Q50.87-3.45 50.79-4.99L50.79-4.99L52.99-5.59Q53.05-4.64 53.28-3.76Q53.51-2.88 54.04-2.32Q54.57-1.76 55.52-1.76L55.52-1.76Q56.48-1.76 56.98-2.30Q57.47-2.84 57.47-3.85L57.47-3.85Q57.47-5.06 56.92-5.80Q56.37-6.53 55.54-7.28L55.54-7.28L52.55-9.92Q51.67-10.69 51.25-11.60Q50.83-12.52 50.83-13.86L50.83-13.86Q50.83-15.82 51.95-16.90Q53.07-17.97 55.01-17.97L55.01-17.97Q56.07-17.97 56.87-17.70Q57.67-17.42 58.21-16.85Q58.75-16.28 59.07-15.41Q59.39-14.54 59.50-13.38L59.50-13.38L57.39-12.80Q57.32-13.68 57.12-14.42Q56.92-15.16 56.43-15.61Q55.93-16.06 55.01-16.06L55.01-16.06Q54.09-16.06 53.57-15.56Q53.05-15.07 53.05-14.10L53.05-14.10Q53.05-13.29 53.33-12.76Q53.60-12.23 54.22-11.68L54.22-11.68L57.23-9.04Q58.24-8.16 59.01-6.94Q59.78-5.72 59.78-4.05L59.78-4.05Q59.78-2.73 59.23-1.77Q58.68-0.81 57.73-0.31Q56.77 0.20 55.52 0.20ZM69.16 0L66.68 0L66.68-15.97L63.66-15.97L63.66-17.82L72.09-17.82L72.09-15.97L69.16-15.97L69.16 0ZM81.91 0L79.53 0L79.53-6.29L75.68-17.82L77.99-17.82L80.72-9.22L83.41-17.82L85.74-17.82L81.91-6.29L81.91 0ZM97.43 0L90.39 0L90.39-17.82L92.87-17.82L92.87-1.78L97.43-1.78L97.43 0ZM109.07 0L102.12 0L102.12-17.82L109.03-17.82L109.03-15.97L104.61-15.97L104.61-10.08L108.19-10.08L108.19-8.32L104.61-8.32L104.61-1.78L109.07-1.78L109.07 0ZM126.67 0.20L126.67 0.20Q124.86 0.20 123.79-0.51Q122.71-1.21 122.25-2.52Q121.78-3.83 121.78-5.59L121.78-5.59L121.78-12.34Q121.78-14.10 122.26-15.37Q122.73-16.63 123.80-17.30Q124.86-17.97 126.67-17.97L126.67-17.97Q128.47-17.97 129.53-17.29Q130.58-16.61 131.06-15.36Q131.53-14.10 131.53-12.34L131.53-12.34L131.53-5.57Q131.53-3.83 131.06-2.53Q130.58-1.23 129.53-0.52Q128.47 0.20 126.67 0.20ZM126.67-1.76L126.67-1.76Q127.66-1.76 128.16-2.17Q128.67-2.57 128.85-3.31Q129.02-4.05 129.02-5.04L129.02-5.04L129.02-12.85Q129.02-13.84 128.85-14.55Q128.67-15.27 128.16-15.65Q127.66-16.04 126.67-16.04L126.67-16.04Q125.68-16.04 125.16-15.65Q124.64-15.27 124.47-14.55Q124.29-13.84 124.29-12.85L124.29-12.85L124.29-5.04Q124.29-4.05 124.47-3.31Q124.64-2.57 125.16-2.17Q125.68-1.76 126.67-1.76ZM139.08 0L136.97 0L136.97-17.82L138.67-17.82L143.73-5.98L143.73-17.82L145.79-17.82L145.79 0L144.21 0L139.08-12.17L139.08 0ZM158.63 0L151.59 0L151.59-17.82L154.07-17.82L154.07-1.78L158.63-1.78L158.63 0ZM165.90 0L163.45 0L163.45-17.82L165.90-17.82L165.90 0ZM173.89 0L171.78 0L171.78-17.82L173.47-17.82L178.53-5.98L178.53-17.82L180.60-17.82L180.60 0L179.02 0L173.89-12.17L173.89 0ZM193.35 0L186.39 0L186.39-17.82L193.30-17.82L193.30-15.97L188.88-15.97L188.88-10.08L192.47-10.08L192.47-8.32L188.88-8.32L188.88-1.78L193.35-1.78L193.35 0ZM208.17-7.08L205.79-7.08L205.79-9.50L208.17-9.50L208.17-7.08ZM225.50 0.20L225.50 0.20Q223.96 0.20 222.94-0.46Q221.91-1.12 221.38-2.29Q220.86-3.45 220.77-4.99L220.77-4.99L222.97-5.59Q223.03-4.64 223.27-3.76Q223.50-2.88 224.02-2.32Q224.55-1.76 225.50-1.76L225.50-1.76Q226.47-1.76 226.96-2.30Q227.46-2.84 227.46-3.85L227.46-3.85Q227.46-5.06 226.91-5.80Q226.36-6.53 225.52-7.28L225.52-7.28L222.53-9.92Q221.65-10.69 221.23-11.60Q220.81-12.52 220.81-13.86L220.81-13.86Q220.81-15.82 221.93-16.90Q223.06-17.97 224.99-17.97L224.99-17.97Q226.05-17.97 226.85-17.70Q227.65-17.42 228.19-16.85Q228.73-16.28 229.05-15.41Q229.37-14.54 229.48-13.38L229.48-13.38L227.37-12.80Q227.30-13.68 227.10-14.42Q226.91-15.16 226.41-15.61Q225.92-16.06 224.99-16.06L224.99-16.06Q224.07-16.06 223.55-15.56Q223.03-15.07 223.03-14.10L223.03-14.10Q223.03-13.29 223.31-12.76Q223.58-12.23 224.20-11.68L224.20-11.68L227.21-9.04Q228.23-8.16 229.00-6.94Q229.77-5.72 229.77-4.05L229.77-4.05Q229.77-2.73 229.22-1.77Q228.67-0.81 227.71-0.31Q226.75 0.20 225.50 0.20ZM237.28 0L234.83 0L234.83-17.82L237.28-17.82L237.28 0ZM245.27 0L243.16 0L243.16-17.82L244.85-17.82L249.91-5.98L249.91-17.82L251.98-17.82L251.98 0L250.40 0L245.27-12.17L245.27 0ZM269.88 0L265.81 0L265.81-17.82L269.68-17.82Q271.66-17.82 272.82-17.21Q273.97-16.61 274.47-15.40Q274.96-14.19 274.96-12.39L274.96-12.39L274.96-5.83Q274.96-3.94 274.47-2.64Q273.97-1.34 272.86-0.67Q271.75 0 269.88 0L269.88 0ZM268.30-15.97L268.30-1.78L269.71-1.78Q271.07-1.78 271.64-2.31Q272.21-2.84 272.34-3.85Q272.46-4.86 272.46-6.29L272.46-6.29L272.46-12.08Q272.46-13.46 272.28-14.32Q272.10-15.18 271.51-15.58Q270.92-15.97 269.64-15.97L269.64-15.97L268.30-15.97ZM287.36 0L280.41 0L280.41-17.82L287.31-17.82L287.31-15.97L282.89-15.97L282.89-10.08L286.48-10.08L286.48-8.32L282.89-8.32L282.89-1.78L287.36-1.78L287.36 0ZM296.56 0.20L296.56 0.20Q295.02 0.20 294.00-0.46Q292.98-1.12 292.45-2.29Q291.92-3.45 291.83-4.99L291.83-4.99L294.03-5.59Q294.10-4.64 294.33-3.76Q294.56-2.88 295.09-2.32Q295.62-1.76 296.56-1.76L296.56-1.76Q297.53-1.76 298.03-2.30Q298.52-2.84 298.52-3.85L298.52-3.85Q298.52-5.06 297.97-5.80Q297.42-6.53 296.58-7.28L296.58-7.28L293.59-9.92Q292.71-10.69 292.29-11.60Q291.88-12.52 291.88-13.86L291.88-13.86Q291.88-15.82 293.00-16.90Q294.12-17.97 296.06-17.97L296.06-17.97Q297.11-17.97 297.92-17.70Q298.72-17.42 299.26-16.85Q299.80-16.28 300.12-15.41Q300.43-14.54 300.54-13.38L300.54-13.38L298.43-12.80Q298.37-13.68 298.17-14.42Q297.97-15.16 297.48-15.61Q296.98-16.06 296.06-16.06L296.06-16.06Q295.13-16.06 294.62-15.56Q294.10-15.07 294.10-14.10L294.10-14.10Q294.10-13.29 294.37-12.76Q294.65-12.23 295.26-11.68L295.26-11.68L298.28-9.04Q299.29-8.16 300.06-6.94Q300.83-5.72 300.83-4.05L300.83-4.05Q300.83-2.73 300.28-1.77Q299.73-0.81 298.77-0.31Q297.82 0.20 296.56 0.20ZM310.23 0.20L310.23 0.20Q308.34 0.20 307.30-0.59Q306.25-1.39 305.84-2.73Q305.44-4.07 305.44-5.72L305.44-5.72L305.44-12.01Q305.44-13.82 305.84-15.16Q306.25-16.50 307.30-17.24Q308.34-17.97 310.23-17.97L310.23-17.97Q311.90-17.97 312.88-17.36Q313.86-16.74 314.29-15.60Q314.72-14.45 314.72-12.85L314.72-12.85L314.72-11.44L312.37-11.44L312.37-12.69Q312.37-13.68 312.27-14.44Q312.17-15.20 311.73-15.62Q311.29-16.04 310.25-16.04L310.25-16.04Q309.20-16.04 308.71-15.59Q308.23-15.14 308.09-14.31Q307.94-13.49 307.94-12.39L307.94-12.39L307.94-5.32Q307.94-3.98 308.16-3.20Q308.38-2.42 308.89-2.09Q309.40-1.76 310.25-1.76L310.25-1.76Q311.27-1.76 311.71-2.21Q312.15-2.66 312.26-3.45Q312.37-4.25 312.37-5.30L312.37-5.30L312.37-6.62L314.72-6.62L314.72-5.30Q314.72-3.67 314.32-2.43Q313.93-1.19 312.96-0.49Q311.99 0.20 310.23 0.20ZM321.46 0L319.13 0L322.91-17.82L325.31-17.82L329.12 0L326.76 0L325.95-4.49L322.32-4.49L321.46 0ZM324.12-14.30L322.65-6.27L325.62-6.27L324.12-14.30ZM336.41 0L333.92 0L333.92-17.82L337.51-17.82Q339.29-17.82 340.45-17.35Q341.62-16.87 342.18-15.83Q342.74-14.78 342.74-13.09L342.74-13.09Q342.74-12.06 342.52-11.21Q342.30-10.36 341.82-9.78Q341.33-9.20 340.54-8.93L340.54-8.93L343.07 0L340.67 0L338.34-8.36L336.41-8.36L336.41 0ZM336.41-16.04L336.41-10.14L337.35-10.14Q338.41-10.14 339.07-10.41Q339.73-10.67 340.04-11.31Q340.34-11.95 340.34-13.09L340.34-13.09Q340.34-14.65 339.77-15.34Q339.20-16.04 337.51-16.04L337.51-16.04L336.41-16.04ZM352.58 0.22L352.58 0.22Q350.91 0.22 349.91-0.49Q348.91-1.21 348.46-2.57Q348.01-3.94 348.01-5.85L348.01-5.85L348.01-11.81Q348.01-13.77 348.42-15.15Q348.82-16.52 349.87-17.25Q350.91-17.97 352.78-17.97L352.78-17.97Q354.45-17.97 355.48-17.41Q356.50-16.85 356.96-15.70Q357.42-14.54 357.42-12.78L357.42-12.78L357.42-12.12L355.09-12.12L355.09-12.67Q355.09-13.84 354.94-14.57Q354.78-15.31 354.31-15.67Q353.84-16.04 352.83-16.04L352.83-16.04Q351.73-16.04 351.23-15.53Q350.74-15.03 350.62-14.16Q350.49-13.29 350.49-12.19L350.49-12.19L350.49-5.59Q350.49-4.31 350.68-3.45Q350.87-2.60 351.40-2.18Q351.92-1.76 352.89-1.76L352.89-1.76Q353.86-1.76 354.39-2.22Q354.92-2.68 355.11-3.59Q355.31-4.49 355.31-5.83L355.31-5.83L355.31-7.06L353.05-7.06L353.05-8.82L357.56-8.82L357.56 0L355.99 0L355.75-2.05Q355.40-1.06 354.65-0.42Q353.90 0.22 352.58 0.22ZM364.47 0L362.14 0L365.92-17.82L368.32-17.82L372.13 0L369.77 0L368.96-4.49L365.33-4.49L364.47 0ZM367.13-14.30L365.66-6.27L368.63-6.27L367.13-14.30ZM381.13 0.20L381.13 0.20Q379.59 0.20 378.57-0.46Q377.55-1.12 377.02-2.29Q376.49-3.45 376.40-4.99L376.40-4.99L378.60-5.59Q378.67-4.64 378.90-3.76Q379.13-2.88 379.66-2.32Q380.19-1.76 381.13-1.76L381.13-1.76Q382.10-1.76 382.60-2.30Q383.09-2.84 383.09-3.85L383.09-3.85Q383.09-5.06 382.54-5.80Q381.99-6.53 381.16-7.28L381.16-7.28L378.16-9.92Q377.28-10.69 376.87-11.60Q376.45-12.52 376.45-13.86L376.45-13.86Q376.45-15.82 377.57-16.90Q378.69-17.97 380.63-17.97L380.63-17.97Q381.68-17.97 382.49-17.70Q383.29-17.42 383.83-16.85Q384.37-16.28 384.69-15.41Q385.01-14.54 385.12-13.38L385.12-13.38L383.00-12.80Q382.94-13.68 382.74-14.42Q382.54-15.16 382.05-15.61Q381.55-16.06 380.63-16.06L380.63-16.06Q379.70-16.06 379.19-15.56Q378.67-15.07 378.67-14.10L378.67-14.10Q378.67-13.29 378.95-12.76Q379.22-12.23 379.84-11.68L379.84-11.68L382.85-9.04Q383.86-8.16 384.63-6.94Q385.40-5.72 385.40-4.05L385.40-4.05Q385.40-2.73 384.85-1.77Q384.30-0.81 383.35-0.31Q382.39 0.20 381.13 0.20Z" fill="#a8a294"/></g>
	<g transform="translate(973.63 586)" opacity="1"><path d="M3.87 0L1.39 0L1.39-17.82L4.97-17.82Q6.75-17.82 7.92-17.35Q9.09-16.87 9.65-15.83Q10.21-14.78 10.21-13.09L10.21-13.09Q10.21-12.06 9.99-11.21Q9.77-10.36 9.28-9.78Q8.80-9.20 8.01-8.93L8.01-8.93L10.54 0L8.14 0L5.81-8.36L3.87-8.36L3.87 0ZM3.87-16.04L3.87-10.14L4.82-10.14Q5.87-10.14 6.53-10.41Q7.19-10.67 7.50-11.31Q7.81-11.95 7.81-13.09L7.81-13.09Q7.81-14.65 7.24-15.34Q6.67-16.04 4.97-16.04L4.97-16.04L3.87-16.04ZM17.17 0L14.84 0L18.62-17.82L21.02-17.82L24.82 0L22.47 0L21.66-4.49L18.03-4.49L17.17 0ZM19.83-14.30L18.36-6.27L21.33-6.27L19.83-14.30ZM32.11 0L29.63 0L29.63-17.82L34.05-17.82Q35.66-17.82 36.61-17.24Q37.57-16.65 38.01-15.55Q38.45-14.45 38.45-12.89L38.45-12.89Q38.45-11.48 37.95-10.45Q37.46-9.42 36.49-8.85Q35.52-8.29 34.07-8.29L34.07-8.29L32.11-8.29L32.11 0ZM32.11-16.04L32.11-10.08L33.26-10.08Q34.34-10.08 34.95-10.32Q35.57-10.56 35.83-11.16Q36.10-11.77 36.10-12.87L36.10-12.87Q36.10-14.15 35.91-14.83Q35.72-15.51 35.13-15.77Q34.53-16.04 33.28-16.04L33.28-16.04L32.11-16.04ZM50.14 0L43.19 0L43.19-17.82L50.10-17.82L50.10-15.97L45.67-15.97L45.67-10.08L49.26-10.08L49.26-8.32L45.67-8.32L45.67-1.78L50.14-1.78L50.14 0ZM56.51 0L54.17 0L57.96-17.82L60.36-17.82L64.16 0L61.81 0L60.99-4.49L57.36-4.49L56.51 0ZM59.17-14.30L57.69-6.27L60.66-6.27L59.17-14.30ZM71.45 0L68.97 0L68.97-17.82L72.55-17.82Q74.33-17.82 75.50-17.35Q76.67-16.87 77.23-15.83Q77.79-14.78 77.79-13.09L77.79-13.09Q77.79-12.06 77.57-11.21Q77.35-10.36 76.86-9.78Q76.38-9.20 75.59-8.93L75.59-8.93L78.12 0L75.72 0L73.39-8.36L71.45-8.36L71.45 0ZM71.45-16.04L71.45-10.14L72.40-10.14Q73.45-10.14 74.11-10.41Q74.77-10.67 75.08-11.31Q75.39-11.95 75.39-13.09L75.39-13.09Q75.39-14.65 74.82-15.34Q74.25-16.04 72.55-16.04L72.55-16.04L71.45-16.04ZM85.43 0L83.08 0L83.08-2.62L85.43-2.62L85.43 0ZM95.07 0.20L95.07 0.20Q93.27 0.20 92.19-0.51Q91.11-1.21 90.65-2.52Q90.19-3.83 90.19-5.59L90.19-5.59L90.19-12.34Q90.19-14.10 90.66-15.37Q91.14-16.63 92.20-17.30Q93.27-17.97 95.07-17.97L95.07-17.97Q96.88-17.97 97.93-17.29Q98.99-16.61 99.46-15.36Q99.94-14.10 99.94-12.34L99.94-12.34L99.94-5.57Q99.94-3.83 99.46-2.53Q98.99-1.23 97.93-0.52Q96.88 0.20 95.07 0.20ZM95.07-1.76L95.07-1.76Q96.06-1.76 96.57-2.17Q97.08-2.57 97.25-3.31Q97.43-4.05 97.43-5.04L97.43-5.04L97.43-12.85Q97.43-13.84 97.25-14.55Q97.08-15.27 96.57-15.65Q96.06-16.04 95.07-16.04L95.07-16.04Q94.08-16.04 93.57-15.65Q93.05-15.27 92.87-14.55Q92.70-13.84 92.70-12.85L92.70-12.85L92.70-5.04Q92.70-4.05 92.87-3.31Q93.05-2.57 93.57-2.17Q94.08-1.76 95.07-1.76ZM107.49 0L105.38 0L105.38-17.82L107.07-17.82L112.13-5.98L112.13-17.82L114.20-17.82L114.20 0L112.62 0L107.49-12.17L107.49 0ZM127.03 0L119.99 0L119.99-17.82L122.48-17.82L122.48-1.78L127.03-1.78L127.03 0ZM134.30 0L131.86 0L131.86-17.82L134.30-17.82L134.30 0ZM142.30 0L140.18 0L140.18-17.82L141.88-17.82L146.94-5.98L146.94-17.82L149.01-17.82L149.01 0L147.42 0L142.30-12.17L142.30 0ZM161.75 0L154.80 0L154.80-17.82L161.71-17.82L161.71-15.97L157.29-15.97L157.29-10.08L160.87-10.08L160.87-8.32L157.29-8.32L157.29-1.78L161.75-1.78L161.75 0Z" fill="#a8a294"/></g>
</svg>
