<svg xmlns="http://www.w3.org/2000/svg" width="1200" height="630" viewBox="0 0 1200 630" role="img" aria-label="Rapear Online">

	<defs>
		<linearGradient id="bg" x1="0" y1="0" x2="0.65" y2="1">
			<stop offset="0" stop-color="#0b0b10"/>
			<stop offset="0.5" stop-color="#121319"/>
			<stop offset="1" stop-color="#08080b"/>
		</linearGradient>
		<radialGradient id="topglow" cx="0.5" cy="0" r="0.8">
			<stop offset="0" stop-color="#e8192c" stop-opacity="0.28"/>
			<stop offset="1" stop-color="#e8192c" stop-opacity="0"/>
		</radialGradient>
		<linearGradient id="spotL" x1="0" y1="0" x2="0" y2="1">
			<stop offset="0" stop-color="#e8192c" stop-opacity="0.30"/>
			<stop offset="0.75" stop-color="#e8192c" stop-opacity="0"/>
		</linearGradient>
		<linearGradient id="spotR" x1="0" y1="0" x2="0" y2="1">
			<stop offset="0" stop-color="#f2ecdd" stop-opacity="0.14"/>
			<stop offset="0.75" stop-color="#f2ecdd" stop-opacity="0"/>
		</linearGradient>
		<pattern id="grid" width="44" height="44" patternUnits="userSpaceOnUse">
			<path d="M44 0H0v44" fill="none" stroke="#ffffff" stroke-opacity="0.04" stroke-width="1"/>
		</pattern>
	</defs>
	<rect width="1200" height="630" fill="url(#bg)"/>
	<rect width="1200" height="630" fill="url(#grid)"/>
	<rect width="1200" height="630" fill="url(#topglow)"/>
	<g transform="translate(250 -40) rotate(8)"><rect x="-110" y="0" width="220" height="750" fill="url(#spotL)" opacity="0.9"/></g>
	<g transform="translate(960 -40) rotate(-8)"><rect x="-130" y="0" width="260" height="750" fill="url(#spotR)" opacity="0.9"/></g>
	<g opacity="0.95"><circle cx="30" cy="656" r="26" fill="#040406"/><circle cx="75.6" cy="654.25" r="31.95" fill="#040406"/><circle cx="121.2" cy="652.52" r="24.47" fill="#040406"/><circle cx="166.8" cy="650.85" r="20.45" fill="#040406"/><circle cx="212.4" cy="649.26" r="28.96" fill="#040406"/><circle cx="258" cy="647.77" r="30.79" fill="#040406"/><circle cx="303.6" cy="646.42" r="21.8" fill="#040406"/><circle cx="349.2" cy="645.21" r="32.29" fill="#040406"/><circle cx="394.8" cy="644.18" r="41.15" fill="#040406"/><circle cx="440.4" cy="643.33" r="38.38" fill="#040406"/><circle cx="486" cy="642.69" r="30.23" fill="#040406"/><circle cx="531.6" cy="642.25" r="35.11" fill="#040406"/><circle cx="577.2" cy="642.03" r="42" fill="#040406"/><circle cx="622.8" cy="642.03" r="35.35" fill="#040406"/><circle cx="668.4" cy="642.25" r="30.17" fill="#040406"/><circle cx="714" cy="642.69" r="38.15" fill="#040406"/><circle cx="759.6" cy="643.33" r="41.28" fill="#040406"/><circle cx="805.2" cy="644.18" r="32.49" fill="#040406"/><circle cx="850.8" cy="645.21" r="31.63" fill="#040406"/><circle cx="896.4" cy="646.42" r="30.64" fill="#040406"/><circle cx="942" cy="647.77" r="29.17" fill="#040406"/><circle cx="987.6" cy="649.26" r="20.54" fill="#040406"/><circle cx="1033.2" cy="650.85" r="24.23" fill="#040406"/><circle cx="1078.8" cy="652.52" r="31.91" fill="#040406"/><circle cx="1124.4" cy="654.25" r="26.24" fill="#040406"/><circle cx="1170" cy="656" r="20.02" fill="#040406"/></g>
	<rect x="0" y="0" width="1200" height="6" fill="#e8192c"/>
	<rect x="0" y="624" width="1200" height="6" fill="#15151b"/>
	<rect x="0" y="624" width="408.00000000000006" height="6" fill="#e8192c"/>
<g transform="translate(1012 286) skewX(-8)">
		<rect x="-84.00000000000001" y="-67.2" width="168.00000000000003" height="134.4" fill="#e8192c"/>
		<g transform="translate(0 32.256)"><g transform="translate(-44.82 0)" opacity="1"><path d="M33.86 0L11.29 0L1.08-82.82L16.84-82.82L22.90-26.48L28.31-82.82L44.07-82.82L33.86 0ZM68.52 0.75L68.52 0.75Q57.19 0.75 52.18-4.89Q47.17-10.54 47.17-22.86L47.17-22.86L47.17-30.95L63.54-30.95L63.54-20.60Q63.54-17.73 64.41-16.11Q65.28-14.49 67.44-14.49L67.44-14.49Q69.70-14.49 70.57-15.80Q71.44-17.12 71.44-20.13L71.44-20.13Q71.44-23.94 70.69-26.50Q69.94-29.07 68.08-31.39Q66.22-33.72 62.93-36.83L62.93-36.83L55.50-43.88Q47.17-51.73 47.17-61.85L47.17-61.85Q47.17-72.43 52.09-77.98Q57.00-83.53 66.31-83.53L66.31-83.53Q77.70-83.53 82.47-77.46Q87.24-71.39 87.24-59.02L87.24-59.02L70.41-59.02L70.41-64.72Q70.41-66.41 69.44-67.35Q68.48-68.29 66.83-68.29L66.83-68.29Q64.86-68.29 63.94-67.18Q63.02-66.08 63.02-64.34L63.02-64.34Q63.02-62.60 63.96-60.58Q64.90-58.55 67.68-55.92L67.68-55.92L77.23-46.75Q80.09-44.02 82.49-40.99Q84.89-37.95 86.35-33.93Q87.81-29.91 87.81-24.13L87.81-24.13Q87.81-12.46 83.50-5.86Q79.20 0.75 68.52 0.75Z" fill="#08080b"/></g></g>
	</g>
<g transform="translate(66 104)" opacity="1"><path d="M7.62 0.25L7.62 0.25Q5.15 0.25 3.84-0.73Q2.52-1.71 2.04-3.49Q1.57-5.26 1.57-7.64L1.57-7.64L1.57-22.68L4.59-22.68L4.59-7.50Q4.59-6.05 4.79-4.84Q4.98-3.64 5.64-2.94Q6.30-2.24 7.62-2.24L7.62-2.24Q8.96-2.24 9.60-2.94Q10.25-3.64 10.44-4.84Q10.64-6.05 10.64-7.50L10.64-7.50L10.64-22.68L13.64-22.68L13.64-7.64Q13.64-5.26 13.16-3.49Q12.68-1.71 11.38-0.73Q10.08 0.25 7.62 0.25ZM8.34-24.02L6.83-24.02L8.48-29.57L11.48-29.57L8.34-24.02ZM33.93 0L24.97 0L24.97-22.68L28.13-22.68L28.13-2.27L33.93-2.27L33.93 0ZM49.74 0L46.58 0L46.58-20.33L42.74-20.33L42.74-22.68L53.46-22.68L53.46-20.33L49.74-20.33L49.74 0ZM66.92 0L63.82 0L63.82-22.68L66.92-22.68L66.92 0ZM81.11 0L78.54 0L78.96-22.68L82.06-22.68L86.07-4.28L90.10-22.68L93.18-22.68L93.60 0L91.05 0L90.80-16.46L86.96 0L85.17 0L81.36-16.46L81.11 0ZM110.87 0.25L110.87 0.25Q108.57 0.25 107.20-0.64Q105.83-1.54 105.24-3.21Q104.65-4.87 104.65-7.11L104.65-7.11L104.65-15.71Q104.65-17.95 105.25-19.56Q105.86-21.17 107.21-22.02Q108.57-22.88 110.87-22.88L110.87-22.88Q113.16-22.88 114.51-22.01Q115.85-21.14 116.45-19.54Q117.06-17.95 117.06-15.71L117.06-15.71L117.06-7.08Q117.06-4.87 116.45-3.22Q115.85-1.57 114.51-0.66Q113.16 0.25 110.87 0.25ZM110.87-2.24L110.87-2.24Q112.13-2.24 112.77-2.76Q113.42-3.28 113.64-4.21Q113.86-5.15 113.86-6.41L113.86-6.41L113.86-16.35Q113.86-17.61 113.64-18.52Q113.42-19.43 112.77-19.92Q112.13-20.41 110.87-20.41L110.87-20.41Q109.61-20.41 108.95-19.92Q108.29-19.43 108.07-18.52Q107.84-17.61 107.84-16.35L107.84-16.35L107.84-6.41Q107.84-5.15 108.07-4.21Q108.29-3.28 108.95-2.76Q109.61-2.24 110.87-2.24ZM133.51 0.25L133.51 0.25Q131.55 0.25 130.25-0.59Q128.95-1.43 128.28-2.91Q127.60-4.40 127.49-6.36L127.49-6.36L130.29-7.11Q130.38-5.91 130.67-4.79Q130.96-3.67 131.64-2.95Q132.31-2.24 133.51-2.24L133.51-2.24Q134.74-2.24 135.37-2.93Q136.00-3.61 136.00-4.90L136.00-4.90Q136.00-6.44 135.30-7.38Q134.60-8.32 133.54-9.27L133.54-9.27L129.73-12.63Q128.61-13.61 128.08-14.77Q127.55-15.93 127.55-17.64L127.55-17.64Q127.55-20.13 128.98-21.50Q130.40-22.88 132.87-22.88L132.87-22.88Q134.21-22.88 135.23-22.53Q136.26-22.18 136.94-21.45Q137.63-20.72 138.03-19.61Q138.44-18.51 138.58-17.02L138.58-17.02L135.89-16.30Q135.81-17.42 135.56-18.35Q135.30-19.29 134.67-19.87Q134.04-20.44 132.87-20.44L132.87-20.44Q131.69-20.44 131.03-19.81Q130.38-19.18 130.38-17.95L130.38-17.95Q130.38-16.91 130.73-16.24Q131.08-15.57 131.86-14.87L131.86-14.87L135.70-11.51Q136.98-10.39 137.96-8.83Q138.94-7.28 138.94-5.15L138.94-5.15Q138.94-3.47 138.24-2.25Q137.54-1.04 136.33-0.39Q135.11 0.25 133.51 0.25ZM170.54 0L167.77 0L162.70-22.68L165.67-22.68L169.25-5.96L172.67-22.68L175.55-22.68L170.54 0ZM194.81 0L185.96 0L185.96-22.68L194.75-22.68L194.75-20.33L189.12-20.33L189.12-12.82L193.69-12.82L193.69-10.58L189.12-10.58L189.12-2.27L194.81-2.27L194.81 0ZM208.52 0L205.36 0L205.36-22.68L209.92-22.68Q212.19-22.68 213.67-22.08Q215.16-21.48 215.87-20.15Q216.58-18.82 216.58-16.66L216.58-16.66Q216.58-15.34 216.30-14.27Q216.02-13.19 215.41-12.45Q214.79-11.70 213.78-11.37L213.78-11.37L217.00 0L213.95 0L210.98-10.64L208.52-10.64L208.52 0ZM208.52-20.41L208.52-12.91L209.72-12.91Q211.07-12.91 211.91-13.24Q212.75-13.58 213.14-14.39Q213.53-15.20 213.53-16.66L213.53-16.66Q213.53-18.65 212.80-19.53Q212.08-20.41 209.92-20.41L209.92-20.41L208.52-20.41ZM236.74 0L227.89 0L227.89-22.68L236.68-22.68L236.68-20.33L231.05-20.33L231.05-12.82L235.62-12.82L235.62-10.58L231.05-10.58L231.05-2.27L236.74-2.27L236.74 0ZM252.46 0L247.28 0L247.28-22.68L252.21-22.68Q254.73-22.68 256.20-21.91Q257.67-21.14 258.30-19.60Q258.93-18.06 258.93-15.76L258.93-15.76L258.93-7.42Q258.93-5.01 258.30-3.36Q257.67-1.71 256.26-0.85Q254.84 0 252.46 0L252.46 0ZM250.45-20.33L250.45-2.27L252.24-2.27Q253.98-2.27 254.70-2.94Q255.43-3.61 255.59-4.90Q255.74-6.19 255.74-8.01L255.74-8.01L255.74-15.37Q255.74-17.14 255.52-18.23Q255.29-19.32 254.54-19.82Q253.78-20.33 252.16-20.33L252.16-20.33L250.45-20.33ZM273.32 0L270.21 0L270.21-22.68L273.32-22.68L273.32 0ZM290.67 0.25L290.67 0.25Q288.26 0.25 286.93-0.76Q285.60-1.76 285.08-3.47Q284.56-5.18 284.56-7.28L284.56-7.28L284.56-15.29Q284.56-17.58 285.08-19.29Q285.60-21 286.93-21.94Q288.26-22.88 290.67-22.88L290.67-22.88Q292.80-22.88 294.04-22.09Q295.29-21.31 295.83-19.85Q296.38-18.40 296.38-16.35L296.38-16.35L296.38-14.56L293.38-14.56L293.38-16.16Q293.38-17.42 293.26-18.38Q293.13-19.35 292.57-19.88Q292.01-20.41 290.70-20.41L290.70-20.41Q289.35-20.41 288.74-19.84Q288.12-19.26 287.94-18.21Q287.76-17.16 287.76-15.76L287.76-15.76L287.76-6.78Q287.76-5.07 288.04-4.07Q288.32-3.08 288.96-2.66Q289.60-2.24 290.70-2.24L290.70-2.24Q291.98-2.24 292.54-2.81Q293.10-3.39 293.24-4.40Q293.38-5.40 293.38-6.75L293.38-6.75L293.38-8.43L296.38-8.43L296.38-6.75Q296.38-4.68 295.88-3.09Q295.37-1.51 294.14-0.63Q292.91 0.25 290.67 0.25ZM313.06 0L309.90 0L309.90-20.33L306.06-20.33L306.06-22.68L316.78-22.68L316.78-20.33L313.06-20.33L313.06 0ZM332.76 0.25L332.76 0.25Q330.47 0.25 329.10-0.64Q327.72-1.54 327.14-3.21Q326.55-4.87 326.55-7.11L326.55-7.11L326.55-15.71Q326.55-17.95 327.15-19.56Q327.75-21.17 329.11-22.02Q330.47-22.88 332.76-22.88L332.76-22.88Q335.06-22.88 336.40-22.01Q337.75-21.14 338.35-19.54Q338.95-17.95 338.95-15.71L338.95-15.71L338.95-7.08Q338.95-4.87 338.35-3.22Q337.75-1.57 336.40-0.66Q335.06 0.25 332.76 0.25ZM332.76-2.24L332.76-2.24Q334.02-2.24 334.67-2.76Q335.31-3.28 335.54-4.21Q335.76-5.15 335.76-6.41L335.76-6.41L335.76-16.35Q335.76-17.61 335.54-18.52Q335.31-19.43 334.67-19.92Q334.02-20.41 332.76-20.41L332.76-20.41Q331.50-20.41 330.85-19.92Q330.19-19.43 329.96-18.52Q329.74-17.61 329.74-16.35L329.74-16.35L329.74-6.41Q329.74-5.15 329.96-4.21Q330.19-3.28 330.85-2.76Q331.50-2.24 332.76-2.24ZM355.41 0.25L355.41 0.25Q353.45 0.25 352.15-0.59Q350.84-1.43 350.17-2.91Q349.50-4.40 349.39-6.36L349.39-6.36L352.19-7.11Q352.27-5.91 352.57-4.79Q352.86-3.67 353.53-2.95Q354.20-2.24 355.41-2.24L355.41-2.24Q356.64-2.24 357.27-2.93Q357.90-3.61 357.90-4.90L357.90-4.90Q357.90-6.44 357.20-7.38Q356.50-8.32 355.44-9.27L355.44-9.27L351.63-12.63Q350.51-13.61 349.98-14.77Q349.44-15.93 349.44-17.64L349.44-17.64Q349.44-20.13 350.87-21.50Q352.30-22.88 354.76-22.88L354.76-22.88Q356.11-22.88 357.13-22.53Q358.15-22.18 358.84-21.45Q359.52-20.72 359.93-19.61Q360.34-18.51 360.48-17.02L360.48-17.02L357.79-16.30Q357.70-17.42 357.45-18.35Q357.20-19.29 356.57-19.87Q355.94-20.44 354.76-20.44L354.76-20.44Q353.59-20.44 352.93-19.81Q352.27-19.18 352.27-17.95L352.27-17.95Q352.27-16.91 352.62-16.24Q352.97-15.57 353.76-14.87L353.76-14.87L357.59-11.51Q358.88-10.39 359.86-8.83Q360.84-7.28 360.84-5.15L360.84-5.15Q360.84-3.47 360.14-2.25Q359.44-1.04 358.22-0.39Q357.00 0.25 355.41 0.25Z" fill="#e8192c"/></g>
<g transform="translate(60 242) skewX(-3)" opacity="1"><path d="M37.94 0L5.33 0L5.33-120.31L37.94-120.31Q51.06-120.31 57.05-113.92Q63.03-107.53 63.03-92.83L63.03-92.83L63.03-87.57Q63.03-79.09 59.99-73.83Q56.94-68.56 50.72-66.92L50.72-66.92Q58.86-64.87 61.63-57.32Q64.39-49.77 64.39-38.90L64.39-38.90Q64.39-27.21 62.21-18.46Q60.02-9.71 54.28-4.85Q48.54 0 37.94 0L37.94 0ZM28.85-101.72L28.85-74.99L33.77-74.99Q37.12-74.99 38.08-77.59Q39.03-80.19 39.03-83.81L39.03-83.81L39.03-95.91Q39.03-101.72 33.91-101.72L33.91-101.72L28.85-101.72ZM31.24-21.19L31.24-21.19Q40.61-21.19 40.61-30.08L40.61-30.08L40.61-45.12Q40.61-50.24 39.07-53.22Q37.53-56.19 33.29-56.19L33.29-56.19L28.85-56.19L28.85-21.33Q30.35-21.19 31.24-21.19ZM92.42 0L69.04 0L80.66-120.31L121.47-120.31L132.89 0L110.13 0L108.42-19.41L93.93-19.41L92.42 0ZM100.21-99.80L95.63-38.62L106.57-38.62L101.31-99.80L100.21-99.80ZM174.66 0L150.60 0L150.60-97.21L136.31-97.21L136.31-120.31L188.95-120.31L188.95-97.21L174.66-97.21L174.66 0ZM215.74 0L192.36 0L203.98-120.31L244.79-120.31L256.21 0L233.45 0L231.74-19.41L217.25-19.41L215.74 0ZM223.54-99.80L218.96-38.62L229.89-38.62L224.63-99.80L223.54-99.80ZM312.40 0L263.59 0L263.59-120.31L287.66-120.31L287.66-20.51L312.40-20.51L312.40 0ZM368.05 0L319.24 0L319.24-120.31L343.30-120.31L343.30-20.51L368.05-20.51L368.05 0ZM394.98 0L371.60 0L383.22-120.31L424.03-120.31L435.45 0L412.69 0L410.98-19.41L396.48-19.41L394.98 0ZM402.77-99.80L398.19-38.62L409.13-38.62L403.87-99.80L402.77-99.80ZM471.41 1.09L471.41 1.09Q454.93 1.09 447.65-7.11Q440.37-15.31 440.37-33.22L440.37-33.22L440.37-44.98L464.16-44.98L464.16-29.94Q464.16-25.77 465.42-23.41Q466.69-21.05 469.83-21.05L469.83-21.05Q473.12-21.05 474.38-22.97Q475.64-24.88 475.64-29.26L475.64-29.26Q475.64-34.79 474.55-38.52Q473.46-42.25 470.76-45.63Q468.06-49.01 463.27-53.53L463.27-53.53L452.47-63.78Q440.37-75.20 440.37-89.89L440.37-89.89Q440.37-105.27 447.51-113.34Q454.66-121.41 468.19-121.41L468.19-121.41Q484.74-121.41 491.67-112.59Q498.61-103.77 498.61-85.79L498.61-85.79L474.14-85.79L474.14-94.06Q474.14-96.52 472.74-97.89Q471.34-99.26 468.95-99.26L468.95-99.26Q466.07-99.26 464.74-97.65Q463.41-96.04 463.41-93.52L463.41-93.52Q463.41-90.99 464.78-88.05Q466.14-85.11 470.18-81.28L470.18-81.28L484.05-67.95Q488.22-63.98 491.71-59.58Q495.20-55.17 497.31-49.32Q499.43-43.48 499.43-35.07L499.43-35.07Q499.43-18.12 493.18-8.51Q486.92 1.09 471.41 1.09Z" fill="#f2ecdd"/></g>
<g transform="translate(60 373.6) skewX(-3)" opacity="1"><path d="M55.03 0L5.33 0L5.33-120.31L53.46-120.31L53.46-97.07L29.80-97.07L29.80-73.62L52.50-73.62L52.50-51.00L29.80-51.00L29.80-23.45L55.03-23.45L55.03 0ZM86.47 0L62.96 0L62.96-120.31L87.71-120.31L98.78-62.69L98.78-120.31L122.02-120.31L122.02 0L98.51 0L86.47-60.16L86.47 0ZM209.38 0L176.57 0L161.74-120.38L184.64-120.38L193.46-38.49L201.32-120.38L224.22-120.38L209.38 0ZM253.34 0L230.10 0L230.10-120.31L253.34-120.31L253.34 0ZM306.80 0L273.98 0L259.15-120.38L282.05-120.38L290.87-38.49L298.73-120.38L321.63-120.38L306.80 0ZM357.31 1.09L357.31 1.09Q342.89 1.09 335.27-7.62Q327.65-16.34 327.65-32.81L327.65-32.81L327.65-89.96Q327.65-105.41 335.20-113.41Q342.75-121.41 357.31-121.41L357.31-121.41Q371.88-121.41 379.43-113.41Q386.98-105.41 386.98-89.96L386.98-89.96L386.98-32.81Q386.98-16.34 379.36-7.62Q371.74 1.09 357.31 1.09ZM357.52-21.05L357.52-21.05Q362.99-21.05 362.99-31.65L362.99-31.65L362.99-90.37Q362.99-99.26 357.66-99.26L357.66-99.26Q351.64-99.26 351.64-90.17L351.64-90.17L351.64-31.51Q351.64-25.91 353.01-23.48Q354.38-21.05 357.52-21.05Z" fill="#e8192c"/></g>
<g transform="translate(66 436)" opacity="1"><path d="M4.75 0L1.70 0L1.70-21.87L6.10-21.87Q8.29-21.87 9.72-21.29Q11.15-20.71 11.84-19.43Q12.53-18.14 12.53-16.07L12.53-16.07Q12.53-14.80 12.26-13.76Q11.99-12.72 11.39-12.00Q10.80-11.29 9.83-10.96L9.83-10.96L12.93 0L9.99 0L7.13-10.26L4.75-10.26L4.75 0ZM4.75-19.68L4.75-12.45L5.91-12.45Q7.21-12.45 8.02-12.77Q8.83-13.10 9.21-13.88Q9.58-14.66 9.58-16.07L9.58-16.07Q9.58-17.98 8.88-18.83Q8.18-19.68 6.10-19.68L6.10-19.68L4.75-19.68ZM27.25 0L18.71 0L18.71-21.87L27.19-21.87L27.19-19.60L21.76-19.60L21.76-12.37L26.17-12.37L26.17-10.21L21.76-10.21L21.76-2.19L27.25-2.19L27.25 0ZM37.86 0.24L37.86 0.24Q35.97 0.24 34.71-0.57Q33.46-1.38 32.81-2.81Q32.16-4.24 32.05-6.13L32.05-6.13L34.75-6.86Q34.84-5.70 35.12-4.62Q35.40-3.54 36.05-2.85Q36.70-2.16 37.86-2.16L37.86-2.16Q39.05-2.16 39.66-2.82Q40.26-3.48 40.26-4.72L40.26-4.72Q40.26-6.21 39.59-7.11Q38.91-8.02 37.89-8.94L37.89-8.94L34.21-12.18Q33.13-13.12 32.62-14.24Q32.11-15.36 32.11-17.01L32.11-17.01Q32.11-19.41 33.49-20.74Q34.86-22.06 37.24-22.06L37.24-22.06Q38.53-22.06 39.52-21.72Q40.51-21.38 41.17-20.68Q41.83-19.98 42.22-18.91Q42.61-17.85 42.75-16.42L42.75-16.42L40.15-15.71Q40.07-16.79 39.83-17.70Q39.59-18.60 38.98-19.16Q38.37-19.71 37.24-19.71L37.24-19.71Q36.10-19.71 35.47-19.10Q34.84-18.50 34.84-17.31L34.84-17.31Q34.84-16.31 35.17-15.66Q35.51-15.01 36.27-14.34L36.27-14.34L39.97-11.10Q41.21-10.02 42.15-8.52Q43.10-7.02 43.10-4.97L43.10-4.97Q43.10-3.35 42.42-2.17Q41.75-1.00 40.57-0.38Q39.40 0.24 37.86 0.24ZM54.12 0.24L54.12 0.24Q51.74 0.24 50.47-0.70Q49.20-1.65 48.74-3.36Q48.28-5.08 48.28-7.37L48.28-7.37L48.28-21.87L51.20-21.87L51.20-7.24Q51.20-5.83 51.39-4.67Q51.58-3.51 52.21-2.83Q52.85-2.16 54.12-2.16L54.12-2.16Q55.41-2.16 56.03-2.83Q56.65-3.51 56.84-4.67Q57.03-5.83 57.03-7.24L57.03-7.24L57.03-21.87L59.92-21.87L59.92-7.37Q59.92-5.08 59.46-3.36Q59.00-1.65 57.75-0.70Q56.49 0.24 54.12 0.24ZM74.77 0L66.13 0L66.13-21.87L69.19-21.87L69.19-2.19L74.77-2.19L74.77 0ZM85.31 0L82.26 0L82.26-19.60L78.56-19.60L78.56-21.87L88.90-21.87L88.90-19.60L85.31-19.60L85.31 0ZM95.68 0L92.82 0L97.46-21.87L100.40-21.87L105.07 0L102.19 0L101.19-5.51L96.73-5.51L95.68 0ZM98.95-17.55L97.14-7.70L100.78-7.70L98.95-17.55ZM115.28 0L110.29 0L110.29-21.87L115.04-21.87Q117.47-21.87 118.89-21.13Q120.31-20.38 120.91-18.90Q121.52-17.41 121.52-15.20L121.52-15.20L121.52-7.16Q121.52-4.83 120.91-3.24Q120.31-1.65 118.94-0.82Q117.58 0 115.28 0L115.28 0ZM113.34-19.60L113.34-2.19L115.07-2.19Q116.74-2.19 117.44-2.83Q118.15-3.48 118.29-4.72Q118.44-5.97 118.44-7.72L118.44-7.72L118.44-14.82Q118.44-16.52 118.23-17.58Q118.01-18.63 117.28-19.12Q116.55-19.60 114.99-19.60L114.99-19.60L113.34-19.60ZM133.11 0.24L133.11 0.24Q130.89 0.24 129.57-0.62Q128.25-1.48 127.68-3.09Q127.11-4.70 127.11-6.86L127.11-6.86L127.11-15.15Q127.11-17.31 127.69-18.86Q128.27-20.41 129.58-21.24Q130.89-22.06 133.11-22.06L133.11-22.06Q135.32-22.06 136.62-21.22Q137.91-20.38 138.49-18.85Q139.07-17.31 139.07-15.15L139.07-15.15L139.07-6.83Q139.07-4.70 138.49-3.10Q137.91-1.51 136.62-0.63Q135.32 0.24 133.11 0.24ZM133.11-2.16L133.11-2.16Q134.32-2.16 134.94-2.66Q135.56-3.16 135.78-4.06Q136.00-4.97 136.00-6.18L136.00-6.18L136.00-15.77Q136.00-16.98 135.78-17.86Q135.56-18.74 134.94-19.21Q134.32-19.68 133.11-19.68L133.11-19.68Q131.89-19.68 131.26-19.21Q130.62-18.74 130.41-17.86Q130.19-16.98 130.19-15.77L130.19-15.77L130.19-6.18Q130.19-4.97 130.41-4.06Q130.62-3.16 131.26-2.66Q131.89-2.16 133.11-2.16ZM150.23 0.24L150.23 0.24Q148.34 0.24 147.08-0.57Q145.83-1.38 145.18-2.81Q144.53-4.24 144.42-6.13L144.42-6.13L147.12-6.86Q147.20-5.70 147.49-4.62Q147.77-3.54 148.42-2.85Q149.07-2.16 150.23-2.16L150.23-2.16Q151.42-2.16 152.02-2.82Q152.63-3.48 152.63-4.72L152.63-4.72Q152.63-6.21 151.96-7.11Q151.28-8.02 150.25-8.94L150.25-8.94L146.58-12.18Q145.50-13.12 144.99-14.24Q144.48-15.36 144.48-17.01L144.48-17.01Q144.48-19.41 145.85-20.74Q147.23-22.06 149.61-22.06L149.61-22.06Q150.90-22.06 151.89-21.72Q152.87-21.38 153.54-20.68Q154.20-19.98 154.59-18.91Q154.98-17.85 155.12-16.42L155.12-16.42L152.52-15.71Q152.44-16.79 152.20-17.70Q151.96-18.60 151.35-19.16Q150.74-19.71 149.61-19.71L149.61-19.71Q148.47-19.71 147.84-19.10Q147.20-18.50 147.20-17.31L147.20-17.31Q147.20-16.31 147.54-15.66Q147.88-15.01 148.63-14.34L148.63-14.34L152.33-11.10Q153.58-10.02 154.52-8.52Q155.47-7.02 155.47-4.97L155.47-4.97Q155.47-3.35 154.79-2.17Q154.12-1.00 152.94-0.38Q151.77 0.24 150.23 0.24ZM172.21-8.69L169.30-8.69L169.30-11.66L172.21-11.66L172.21-8.69ZM189.39 0L186.91 0L187.31-21.87L190.31-21.87L194.17-4.13L198.06-21.87L201.03-21.87L201.43 0L198.97 0L198.73-15.88L195.03 0L193.30 0L189.63-15.88L189.39 0ZM213.37 0.24L213.37 0.24Q211.15 0.24 209.83-0.62Q208.51-1.48 207.94-3.09Q207.37-4.70 207.37-6.86L207.37-6.86L207.37-15.15Q207.37-17.31 207.96-18.86Q208.54-20.41 209.85-21.24Q211.15-22.06 213.37-22.06L213.37-22.06Q215.58-22.06 216.88-21.22Q218.17-20.38 218.76-18.85Q219.34-17.31 219.34-15.15L219.34-15.15L219.34-6.83Q219.34-4.70 218.76-3.10Q218.17-1.51 216.88-0.63Q215.58 0.24 213.37 0.24ZM213.37-2.16L213.37-2.16Q214.58-2.16 215.20-2.66Q215.83-3.16 216.04-4.06Q216.26-4.97 216.26-6.18L216.26-6.18L216.26-15.77Q216.26-16.98 216.04-17.86Q215.83-18.74 215.20-19.21Q214.58-19.68 213.37-19.68L213.37-19.68Q212.15-19.68 211.52-19.21Q210.88-18.74 210.67-17.86Q210.45-16.98 210.45-15.77L210.45-15.77L210.45-6.18Q210.45-4.97 210.67-4.06Q210.88-3.16 211.52-2.66Q212.15-2.16 213.37-2.16ZM230.33 0L225.33 0L225.33-21.87L230.08-21.87Q232.51-21.87 233.93-21.13Q235.35-20.38 235.96-18.90Q236.56-17.41 236.56-15.20L236.56-15.20L236.56-7.16Q236.56-4.83 235.96-3.24Q235.35-1.65 233.99-0.82Q232.62 0 230.33 0L230.33 0ZM228.38-19.60L228.38-2.19L230.11-2.19Q231.79-2.19 232.49-2.83Q233.19-3.48 233.34-4.72Q233.49-5.97 233.49-7.72L233.49-7.72L233.49-14.82Q233.49-16.52 233.27-17.58Q233.05-18.63 232.33-19.12Q231.60-19.60 230.03-19.60L230.03-19.60L228.38-19.60ZM248.15 0.24L248.15 0.24Q245.94 0.24 244.61-0.62Q243.29-1.48 242.72-3.09Q242.16-4.70 242.16-6.86L242.16-6.86L242.16-15.15Q242.16-17.31 242.74-18.86Q243.32-20.41 244.63-21.24Q245.94-22.06 248.15-22.06L248.15-22.06Q250.36-22.06 251.66-21.22Q252.96-20.38 253.54-18.85Q254.12-17.31 254.12-15.15L254.12-15.15L254.12-6.83Q254.12-4.70 253.54-3.10Q252.96-1.51 251.66-0.63Q250.36 0.24 248.15 0.24ZM248.15-2.16L248.15-2.16Q249.37-2.16 249.99-2.66Q250.61-3.16 250.82-4.06Q251.04-4.97 251.04-6.18L251.04-6.18L251.04-15.77Q251.04-16.98 250.82-17.86Q250.61-18.74 249.99-19.21Q249.37-19.68 248.15-19.68L248.15-19.68Q246.94-19.68 246.30-19.21Q245.67-18.74 245.45-17.86Q245.23-16.98 245.23-15.77L245.23-15.77L245.23-6.18Q245.23-4.97 245.45-4.06Q245.67-3.16 246.30-2.66Q246.94-2.16 248.15-2.16ZM265.27 0.24L265.27 0.24Q263.38 0.24 262.13-0.57Q260.87-1.38 260.22-2.81Q259.57-4.24 259.47-6.13L259.47-6.13L262.17-6.86Q262.25-5.70 262.53-4.62Q262.81-3.54 263.46-2.85Q264.11-2.16 265.27-2.16L265.27-2.16Q266.46-2.16 267.07-2.82Q267.68-3.48 267.68-4.72L267.68-4.72Q267.68-6.21 267-7.11Q266.32-8.02 265.30-8.94L265.30-8.94L261.63-12.18Q260.55-13.12 260.03-14.24Q259.52-15.36 259.52-17.01L259.52-17.01Q259.52-19.41 260.90-20.74Q262.27-22.06 264.65-22.06L264.65-22.06Q265.95-22.06 266.93-21.72Q267.92-21.38 268.58-20.68Q269.24-19.98 269.63-18.91Q270.02-17.85 270.16-16.42L270.16-16.42L267.57-15.71Q267.49-16.79 267.24-17.70Q267-18.60 266.39-19.16Q265.78-19.71 264.65-19.71L264.65-19.71Q263.52-19.71 262.88-19.10Q262.25-18.50 262.25-17.31L262.25-17.31Q262.25-16.31 262.59-15.66Q262.92-15.01 263.68-14.34L263.68-14.34L267.38-11.10Q268.62-10.02 269.56-8.52Q270.51-7.02 270.51-4.97L270.51-4.97Q270.51-3.35 269.83-2.17Q269.16-1.00 267.99-0.38Q266.81 0.24 265.27 0.24ZM287.26-8.69L284.34-8.69L284.34-11.66L287.26-11.66L287.26-8.69ZM307.16 0.24L307.16 0.24Q305.27 0.24 304.02-0.57Q302.76-1.38 302.11-2.81Q301.46-4.24 301.36-6.13L301.36-6.13L304.06-6.86Q304.14-5.70 304.42-4.62Q304.70-3.54 305.35-2.85Q306-2.16 307.16-2.16L307.16-2.16Q308.35-2.16 308.96-2.82Q309.56-3.48 309.56-4.72L309.56-4.72Q309.56-6.21 308.89-7.11Q308.21-8.02 307.19-8.94L307.19-8.94L303.52-12.18Q302.44-13.12 301.92-14.24Q301.41-15.36 301.41-17.01L301.41-17.01Q301.41-19.41 302.79-20.74Q304.16-22.06 306.54-22.06L306.54-22.06Q307.84-22.06 308.82-21.72Q309.81-21.38 310.47-20.68Q311.13-19.98 311.52-18.91Q311.91-17.85 312.05-16.42L312.05-16.42L309.46-15.71Q309.38-16.79 309.13-17.70Q308.89-18.60 308.28-19.16Q307.67-19.71 306.54-19.71L306.54-19.71Q305.41-19.71 304.77-19.10Q304.14-18.50 304.14-17.31L304.14-17.31Q304.14-16.31 304.47-15.66Q304.81-15.01 305.57-14.34L305.57-14.34L309.27-11.10Q310.51-10.02 311.45-8.52Q312.40-7.02 312.40-4.97L312.40-4.97Q312.40-3.35 311.72-2.17Q311.05-1.00 309.87-0.38Q308.70 0.24 307.16 0.24ZM323.26 0.24L323.26 0.24Q320.93 0.24 319.65-0.73Q318.37-1.70 317.87-3.35Q317.37-5.00 317.37-7.02L317.37-7.02L317.37-14.74Q317.37-16.96 317.87-18.60Q318.37-20.25 319.65-21.15Q320.93-22.06 323.26-22.06L323.26-22.06Q325.31-22.06 326.51-21.30Q327.71-20.55 328.24-19.14Q328.76-17.74 328.76-15.77L328.76-15.77L328.76-14.04L325.88-14.04L325.88-15.58Q325.88-16.79 325.75-17.73Q325.63-18.66 325.09-19.17Q324.55-19.68 323.28-19.68L323.28-19.68Q321.99-19.68 321.39-19.13Q320.80-18.58 320.62-17.56Q320.45-16.55 320.45-15.20L320.45-15.20L320.45-6.53Q320.45-4.89 320.72-3.93Q320.99-2.97 321.61-2.56Q322.23-2.16 323.28-2.16L323.28-2.16Q324.53-2.16 325.06-2.71Q325.61-3.27 325.74-4.24Q325.88-5.21 325.88-6.51L325.88-6.51L325.88-8.13L328.76-8.13L328.76-6.51Q328.76-4.51 328.28-2.98Q327.79-1.46 326.60-0.61Q325.42 0.24 323.26 0.24ZM340.27 0.24L340.27 0.24Q338.06 0.24 336.73-0.62Q335.41-1.48 334.84-3.09Q334.28-4.70 334.28-6.86L334.28-6.86L334.28-15.15Q334.28-17.31 334.86-18.86Q335.44-20.41 336.75-21.24Q338.06-22.06 340.27-22.06L340.27-22.06Q342.48-22.06 343.78-21.22Q345.08-20.38 345.66-18.85Q346.24-17.31 346.24-15.15L346.24-15.15L346.24-6.83Q346.24-4.70 345.66-3.10Q345.08-1.51 343.78-0.63Q342.48 0.24 340.27 0.24ZM340.27-2.16L340.27-2.16Q341.48-2.16 342.11-2.66Q342.73-3.16 342.94-4.06Q343.16-4.97 343.16-6.18L343.16-6.18L343.16-15.77Q343.16-16.98 342.94-17.86Q342.73-18.74 342.11-19.21Q341.48-19.68 340.27-19.68L340.27-19.68Q339.05-19.68 338.42-19.21Q337.79-18.74 337.57-17.86Q337.35-16.98 337.35-15.77L337.35-15.77L337.35-6.18Q337.35-4.97 337.57-4.06Q337.79-3.16 338.42-2.66Q339.05-2.16 340.27-2.16ZM355.28 0L352.23 0L352.23-21.87L356.63-21.87Q358.82-21.87 360.25-21.29Q361.68-20.71 362.37-19.43Q363.06-18.14 363.06-16.07L363.06-16.07Q363.06-14.80 362.79-13.76Q362.52-12.72 361.93-12.00Q361.33-11.29 360.36-10.96L360.36-10.96L363.47 0L360.52 0L357.66-10.26L355.28-10.26L355.28 0ZM355.28-19.68L355.28-12.45L356.45-12.45Q357.74-12.45 358.55-12.77Q359.36-13.10 359.74-13.88Q360.12-14.66 360.12-16.07L360.12-16.07Q360.12-17.98 359.42-18.83Q358.71-19.68 356.63-19.68L356.63-19.68L355.28-19.68ZM377.78 0L369.25 0L369.25-21.87L377.72-21.87L377.72-19.60L372.30-19.60L372.30-12.37L376.70-12.37L376.70-10.21L372.30-10.21L372.30-2.19L377.78-2.19L377.78 0ZM388.39 0.24L388.39 0.24Q386.50 0.24 385.25-0.57Q383.99-1.38 383.34-2.81Q382.69-4.24 382.59-6.13L382.59-6.13L385.29-6.86Q385.37-5.70 385.65-4.62Q385.94-3.54 386.58-2.85Q387.23-2.16 388.39-2.16L388.39-2.16Q389.58-2.16 390.19-2.82Q390.80-3.48 390.80-4.72L390.80-4.72Q390.80-6.21 390.12-7.11Q389.44-8.02 388.42-8.94L388.42-8.94L384.75-12.18Q383.67-13.12 383.15-14.24Q382.64-15.36 382.64-17.01L382.64-17.01Q382.64-19.41 384.02-20.74Q385.39-22.06 387.77-22.06L387.77-22.06Q389.07-22.06 390.05-21.72Q391.04-21.38 391.70-20.68Q392.36-19.98 392.75-18.91Q393.14-17.85 393.28-16.42L393.28-16.42L390.69-15.71Q390.61-16.79 390.36-17.70Q390.12-18.60 389.51-19.16Q388.90-19.71 387.77-19.71L387.77-19.71Q386.64-19.71 386.00-19.10Q385.37-18.50 385.37-17.31L385.37-17.31Q385.37-16.31 385.71-15.66Q386.04-15.01 386.80-14.34L386.80-14.34L390.50-11.10Q391.74-10.02 392.69-8.52Q393.63-7.02 393.63-4.97L393.63-4.97Q393.63-3.35 392.95-2.17Q392.28-1.00 391.11-0.38Q389.93 0.24 388.39 0.24ZM410.38-8.69L407.46-8.69L407.46-11.66L410.38-11.66L410.38-8.69ZM428.18 0L425.12 0L425.12-21.87L429.52-21.87Q431.71-21.87 433.14-21.29Q434.57-20.71 435.26-19.43Q435.95-18.14 435.95-16.07L435.95-16.07Q435.95-14.80 435.68-13.76Q435.41-12.72 434.82-12.00Q434.22-11.29 433.25-10.96L433.25-10.96L436.36 0L433.41 0L430.55-10.26L428.18-10.26L428.18 0ZM428.18-19.68L428.18-12.45L429.34-12.45Q430.63-12.45 431.44-12.77Q432.25-13.10 432.63-13.88Q433.01-14.66 433.01-16.07L433.01-16.07Q433.01-17.98 432.31-18.83Q431.60-19.68 429.52-19.68L429.52-19.68L428.18-19.68ZM445.30 0L442.30 0L442.30-21.87L445.30-21.87L445.30 0ZM454.26 0L451.78 0L452.18-21.87L455.18-21.87L459.04-4.13L462.93-21.87L465.90-21.87L466.31 0L463.85 0L463.61-15.88L459.91 0L458.18 0L454.51-15.88L454.26 0ZM474.33 0L471.46 0L476.11-21.87L479.05-21.87L483.72 0L480.83 0L479.83-5.51L475.38-5.51L474.33 0ZM477.59-17.55L475.79-7.70L479.43-7.70L477.59-17.55ZM494.09 0.24L494.09 0.24Q492.20 0.24 490.95-0.57Q489.69-1.38 489.05-2.81Q488.40-4.24 488.29-6.13L488.29-6.13L490.99-6.86Q491.07-5.70 491.35-4.62Q491.64-3.54 492.28-2.85Q492.93-2.16 494.09-2.16L494.09-2.16Q495.28-2.16 495.89-2.82Q496.50-3.48 496.50-4.72L496.50-4.72Q496.50-6.21 495.82-7.11Q495.15-8.02 494.12-8.94L494.12-8.94L490.45-12.18Q489.37-13.12 488.86-14.24Q488.34-15.36 488.34-17.01L488.34-17.01Q488.34-19.41 489.72-20.74Q491.10-22.06 493.47-22.06L493.47-22.06Q494.77-22.06 495.75-21.72Q496.74-21.38 497.40-20.68Q498.06-19.98 498.45-18.91Q498.85-17.85 498.98-16.42L498.98-16.42L496.39-15.71Q496.31-16.79 496.06-17.70Q495.82-18.60 495.21-19.16Q494.61-19.71 493.47-19.71L493.47-19.71Q492.34-19.71 491.70-19.10Q491.07-18.50 491.07-17.31L491.07-17.31Q491.07-16.31 491.41-15.66Q491.75-15.01 492.50-14.34L492.50-14.34L496.20-11.10Q497.44-10.02 498.39-8.52Q499.33-7.02 499.33-4.97L499.33-4.97Q499.33-3.35 498.66-2.17Q497.98-1.00 496.81-0.38Q495.63 0.24 494.09 0.24Z" fill="#f2ecdd"/></g>
<g transform="translate(64 505) skewX(-6)">
		<rect x="9" y="-21.22" width="269.17" height="60.45" fill="#7e0d19" opacity="0.5"/>
		<rect x="0" y="-30.22" width="269.17" height="60.45" fill="#e8192c"/>
		<g transform="skewX(6)"><g transform="translate(31 10.54)" opacity="1"><path d="M10.90 0L3.63 0L0.35-26.66L5.42-26.66L7.37-8.52L9.11-26.66L14.18-26.66L10.90 0ZM27.73 0L16.73 0L16.73-26.64L27.38-26.64L27.38-21.49L22.15-21.49L22.15-16.30L27.17-16.30L27.17-11.29L22.15-11.29L22.15-5.19L27.73-5.19L27.73 0ZM35.88 0L30.49 0L30.49-26.64L38.66-26.64Q40.70-26.64 41.75-25.71Q42.79-24.78 43.15-23.11Q43.50-21.43 43.50-19.18L43.50-19.18Q43.50-17.00 42.95-15.70Q42.40-14.40 40.87-13.90L40.87-13.90Q42.13-13.64 42.63-12.65Q43.14-11.66 43.14-10.08L43.14-10.08L43.14 0L37.89 0L37.89-10.43Q37.89-11.59 37.41-11.87Q36.94-12.15 35.88-12.15L35.88-12.15L35.88 0ZM35.91-21.71L35.91-16.77L37.19-16.77Q38.30-16.77 38.30-19.18L38.30-19.18Q38.30-20.74 38.06-21.22Q37.81-21.71 37.15-21.71L37.15-21.71L35.91-21.71ZM61.75 0L54.53 0L54.53-26.64L61.75-26.64Q64.65-26.64 65.98-25.23Q67.30-23.81 67.30-20.56L67.30-20.56L67.30-19.39Q67.30-17.51 66.63-16.35Q65.95-15.18 64.58-14.82L64.58-14.82Q66.38-14.36 66.99-12.69Q67.60-11.02 67.60-8.61L67.60-8.61Q67.60-6.02 67.12-4.09Q66.64-2.15 65.36-1.07Q64.09 0 61.75 0L61.75 0ZM59.73-22.52L59.73-16.60L60.82-16.60Q61.56-16.60 61.78-17.18Q61.99-17.76 61.99-18.56L61.99-18.56L61.99-21.24Q61.99-22.52 60.85-22.52L60.85-22.52L59.73-22.52ZM60.26-4.69L60.26-4.69Q62.34-4.69 62.34-6.66L62.34-6.66L62.34-9.99Q62.34-11.13 62.00-11.78Q61.66-12.44 60.72-12.44L60.72-12.44L59.73-12.44L59.73-4.72Q60.07-4.69 60.26-4.69ZM74.81 0L69.63 0L72.21-26.64L81.24-26.64L83.77 0L78.73 0L78.35-4.30L75.14-4.30L74.81 0ZM76.54-22.10L75.52-8.55L77.94-8.55L76.78-22.10L76.54-22.10ZM94.02 0L88.69 0L88.69-21.52L85.53-21.52L85.53-26.64L97.18-26.64L97.18-21.52L94.02-21.52L94.02 0ZM104.12 0L98.94 0L101.51-26.64L110.55-26.64L113.08 0L108.04 0L107.66-4.30L104.45-4.30L104.12 0ZM105.84-22.10L104.83-8.55L107.25-8.55L106.08-22.10L105.84-22.10ZM126.52 0L115.71 0L115.71-26.64L121.04-26.64L121.04-4.54L126.52-4.54L126.52 0ZM139.84 0L129.03 0L129.03-26.64L134.36-26.64L134.36-4.54L139.84-4.54L139.84 0ZM146.81 0L141.63 0L144.20-26.64L153.24-26.64L155.77 0L150.73 0L150.35-4.30L147.14-4.30L146.81 0ZM148.53-22.10L147.52-8.55L149.94-8.55L148.77-22.10L148.53-22.10ZM164.73 0.24L164.73 0.24Q161.08 0.24 159.47-1.57Q157.86-3.39 157.86-7.36L157.86-7.36L157.86-9.96L163.12-9.96L163.12-6.63Q163.12-5.71 163.40-5.18Q163.68-4.66 164.38-4.66L164.38-4.66Q165.11-4.66 165.39-5.09Q165.67-5.51 165.67-6.48L165.67-6.48Q165.67-7.70 165.42-8.53Q165.18-9.35 164.58-10.10Q163.99-10.85 162.93-11.85L162.93-11.85L160.54-14.12Q157.86-16.65 157.86-19.90L157.86-19.90Q157.86-23.31 159.44-25.10Q161.02-26.88 164.02-26.88L164.02-26.88Q167.68-26.88 169.22-24.93Q170.75-22.98 170.75-19.00L170.75-19.00L165.33-19.00L165.33-20.83Q165.33-21.37 165.02-21.68Q164.71-21.98 164.18-21.98L164.18-21.98Q163.55-21.98 163.25-21.62Q162.96-21.27 162.96-20.71L162.96-20.71Q162.96-20.15 163.26-19.50Q163.56-18.85 164.46-18.00L164.46-18.00L167.53-15.05Q168.45-14.17 169.22-13.19Q170.00-12.22 170.47-10.92Q170.93-9.63 170.93-7.77L170.93-7.77Q170.93-4.01 169.55-1.88Q168.16 0.24 164.73 0.24Z" fill="#08080b"/></g><path d="M219.57 -10.85 L238.17 0 L219.57 10.85 Z" fill="#08080b"/></g>
	</g>


	<circle cx="74" cy="578" r="6" fill="#e8192c"/>
	<g transform="translate(92 586)" opacity="1"><path d="M3.87 0L1.39 0L1.39-17.82L8.27-17.82L8.27-16.04L3.87-16.04L3.87-10.10L7.28-10.10L7.28-8.34L3.87-8.34L3.87 0ZM15.47 0L12.99 0L12.99-17.82L16.57-17.82Q18.36-17.82 19.52-17.35Q20.69-16.87 21.25-15.83Q21.81-14.78 21.81-13.09L21.81-13.09Q21.81-12.06 21.59-11.21Q21.37-10.36 20.89-9.78Q20.40-9.20 19.61-8.93L19.61-8.93L22.14 0L19.74 0L17.41-8.36L15.47-8.36L15.47 0ZM15.47-16.04L15.47-10.14L16.42-10.14Q17.48-10.14 18.14-10.41Q18.80-10.67 19.10-11.31Q19.41-11.95 19.41-13.09L19.41-13.09Q19.41-14.65 18.84-15.34Q18.27-16.04 16.57-16.04L16.57-16.04L15.47-16.04ZM34.36 0L27.41 0L27.41-17.82L34.31-17.82L34.31-15.97L29.89-15.97L29.89-10.08L33.48-10.08L33.48-8.32L29.89-8.32L29.89-1.78L34.36-1.78L34.36 0ZM46.31 0L39.36 0L39.36-17.82L46.27-17.82L46.27-15.97L41.85-15.97L41.85-10.08L45.43-10.08L45.43-8.32L41.85-8.32L41.85-1.78L46.31-1.78L46.31 0ZM55.52 0.20L55.52 0.20Q53.98 0.20 52.95-0.46Q51.93-1.12 51.40-2.29Q50.87-3.45 50.79-4.99L50.79-4.99L52.99-5.59Q53.05-4.64 53.28-3.76Q53.51-2.88 54.04-2.32Q54.57-1.76 55.52-1.76L55.52-1.76Q56.48-1.76 56.98-2.30Q57.47-2.84 57.47-3.85L57.47-3.85Q57.47-5.06 56.92-5.80Q56.37-6.53 55.54-7.28L55.54-7.28L52.55-9.92Q51.67-10.69 51.25-11.60Q50.83-12.52 50.83-13.86L50.83-13.86Q50.83-15.82 51.95-16.90Q53.07-17.97 55.01-17.97L55.01-17.97Q56.07-17.97 56.87-17.70Q57.67-17.42 58.21-16.85Q58.75-16.28 59.07-15.41Q59.39-14.54 59.50-13.38L59.50-13.38L57.39-12.80Q57.32-13.68 57.12-14.42Q56.92-15.16 56.43-15.61Q55.93-16.06 55.01-16.06L55.01-16.06Q54.09-16.06 53.57-15.56Q53.05-15.07 53.05-14.10L53.05-14.10Q53.05-13.29 53.33-12.76Q53.60-12.23 54.22-11.68L54.22-11.68L57.23-9.04Q58.24-8.16 59.01-6.94Q59.78-5.72 59.78-4.05L59.78-4.05Q59.78-2.73 59.23-1.77Q58.68-0.81 57.73-0.31Q56.77 0.20 55.52 0.20ZM69.16 0L66.68 0L66.68-15.97L63.66-15.97L63.66-17.82L72.09-17.82L72.09-15.97L69.16-15.97L69.16 0ZM81.91 0L79.53 0L79.53-6.29L75.68-17.82L77.99-17.82L80.72-9.22L83.41-17.82L85.74-17.82L81.91-6.29L81.91 0ZM97.43 0L90.39 0L90.39-17.82L92.87-17.82L92.87-1.78L97.43-1.78L97.43 0ZM109.07 0L102.12 0L102.12-17.82L109.03-17.82L109.03-15.97L104.61-15.97L104.61-10.08L108.19-10.08L108.19-8.32L104.61-8.32L104.61-1.78L109.07-1.78L109.07 0ZM126.67 0.20L126.67 0.20Q124.86 0.20 123.79-0.51Q122.71-1.21 122.25-2.52Q121.78-3.83 121.78-5.59L121.78-5.59L121.78-12.34Q121.78-14.10 122.26-15.37Q122.73-16.63 123.80-17.30Q124.86-17.97 126.67-17.97L126.67-17.97Q128.47-17.97 129.53-17.29Q130.58-16.61 131.06-15.36Q131.53-14.10 131.53-12.34L131.53-12.34L131.53-5.57Q131.53-3.83 131.06-2.53Q130.58-1.23 129.53-0.52Q128.47 0.20 126.67 0.20ZM126.67-1.76L126.67-1.76Q127.66-1.76 128.16-2.17Q128.67-2.57 128.85-3.31Q129.02-4.05 129.02-5.04L129.02-5.04L129.02-12.85Q129.02-13.84 128.85-14.55Q128.67-15.27 128.16-15.65Q127.66-16.04 126.67-16.04L126.67-16.04Q125.68-16.04 125.16-15.65Q124.64-15.27 124.47-14.55Q124.29-13.84 124.29-12.85L124.29-12.85L124.29-5.04Q124.29-4.05 124.47-3.31Q124.64-2.57 125.16-2.17Q125.68-1.76 126.67-1.76ZM139.08 0L136.97 0L136.97-17.82L138.67-17.82L143.73-5.98L143.73-17.82L145.79-17.82L145.79 0L144.21 0L139.08-12.17L139.08 0ZM158.63 0L151.59 0L151.59-17.82L154.07-17.82L154.07-1.78L158.63-1.78L158.63 0ZM165.90 0L163.45 0L163.45-17.82L165.90-17.82L165.90 0ZM173.89 0L171.78 0L171.78-17.82L173.47-17.82L178.53-5.98L178.53-17.82L180.60-17.82L180.60 0L179.02 0L173.89-12.17L173.89 0ZM193.35 0L186.39 0L186.39-17.82L193.30-17.82L193.30-15.97L188.88-15.97L188.88-10.08L192.47-10.08L192.47-8.32L188.88-8.32L188.88-1.78L193.35-1.78L193.35 0ZM208.17-7.08L205.79-7.08L205.79-9.50L208.17-9.50L208.17-7.08ZM225.50 0.20L225.50 0.20Q223.96 0.20 222.94-0.46Q221.91-1.12 221.38-2.29Q220.86-3.45 220.77-4.99L220.77-4.99L222.97-5.59Q223.03-4.64 223.27-3.76Q223.50-2.88 224.02-2.32Q224.55-1.76 225.50-1.76L225.50-1.76Q226.47-1.76 226.96-2.30Q227.46-2.84 227.46-3.85L227.46-3.85Q227.46-5.06 226.91-5.80Q226.36-6.53 225.52-7.28L225.52-7.28L222.53-9.92Q221.65-10.69 221.23-11.60Q220.81-12.52 220.81-13.86L220.81-13.86Q220.81-15.82 221.93-16.90Q223.06-17.97 224.99-17.97L224.99-17.97Q226.05-17.97 226.85-17.70Q227.65-17.42 228.19-16.85Q228.73-16.28 229.05-15.41Q229.37-14.54 229.48-13.38L229.48-13.38L227.37-12.80Q227.30-13.68 227.10-14.42Q226.91-15.16 226.41-15.61Q225.92-16.06 224.99-16.06L224.99-16.06Q224.07-16.06 223.55-15.56Q223.03-15.07 223.03-14.10L223.03-14.10Q223.03-13.29 223.31-12.76Q223.58-12.23 224.20-11.68L224.20-11.68L227.21-9.04Q228.23-8.16 229.00-6.94Q229.77-5.72 229.77-4.05L229.77-4.05Q229.77-2.73 229.22-1.77Q228.67-0.81 227.71-0.31Q226.75 0.20 225.50 0.20ZM237.28 0L234.83 0L234.83-17.82L237.28-17.82L237.28 0ZM245.27 0L243.16 0L243.16-17.82L244.85-17.82L249.91-5.98L249.91-17.82L251.98-17.82L251.98 0L250.40 0L245.27-12.17L245.27 0ZM269.88 0L265.81 0L265.81-17.82L269.68-17.82Q271.66-17.82 272.82-17.21Q273.97-16.61 274.47-15.40Q274.96-14.19 274.96-12.39L274.96-12.39L274.96-5.83Q274.96-3.94 274.47-2.64Q273.97-1.34 272.86-0.67Q271.75 0 269.88 0L269.88 0ZM268.30-15.97L268.30-1.78L269.71-1.78Q271.07-1.78 271.64-2.31Q272.21-2.84 272.34-3.85Q272.46-4.86 272.46-6.29L272.46-6.29L272.46-12.08Q272.46-13.46 272.28-14.32Q272.10-15.18 271.51-15.58Q270.92-15.97 269.64-15.97L269.64-15.97L268.30-15.97ZM287.36 0L280.41 0L280.41-17.82L287.31-17.82L287.31-15.97L282.89-15.97L282.89-10.08L286.48-10.08L286.48-8.32L282.89-8.32L282.89-1.78L287.36-1.78L287.36 0ZM296.56 0.20L296.56 0.20Q295.02 0.20 294.00-0.46Q292.98-1.12 292.45-2.29Q291.92-3.45 291.83-4.99L291.83-4.99L294.03-5.59Q294.10-4.64 294.33-3.76Q294.56-2.88 295.09-2.32Q295.62-1.76 296.56-1.76L296.56-1.76Q297.53-1.76 298.03-2.30Q298.52-2.84 298.52-3.85L298.52-3.85Q298.52-5.06 297.97-5.80Q297.42-6.53 296.58-7.28L296.58-7.28L293.59-9.92Q292.71-10.69 292.29-11.60Q291.88-12.52 291.88-13.86L291.88-13.86Q291.88-15.82 293.00-16.90Q294.12-17.97 296.06-17.97L296.06-17.97Q297.11-17.97 297.92-17.70Q298.72-17.42 299.26-16.85Q299.80-16.28 300.12-15.41Q300.43-14.54 300.54-13.38L300.54-13.38L298.43-12.80Q298.37-13.68 298.17-14.42Q297.97-15.16 297.48-15.61Q296.98-16.06 296.06-16.06L296.06-16.06Q295.13-16.06 294.62-15.56Q294.10-15.07 294.10-14.10L294.10-14.10Q294.10-13.29 294.37-12.76Q294.65-12.23 295.26-11.68L295.26-11.68L298.28-9.04Q299.29-8.16 300.06-6.94Q300.83-5.72 300.83-4.05L300.83-4.05Q300.83-2.73 300.28-1.77Q299.73-0.81 298.77-0.31Q297.82 0.20 296.56 0.20ZM310.23 0.20L310.23 0.20Q308.34 0.20 307.30-0.59Q306.25-1.39 305.84-2.73Q305.44-4.07 305.44-5.72L305.44-5.72L305.44-12.01Q305.44-13.82 305.84-15.16Q306.25-16.50 307.30-17.24Q308.34-17.97 310.23-17.97L310.23-17.97Q311.90-17.97 312.88-17.36Q313.86-16.74 314.29-15.60Q314.72-14.45 314.72-12.85L314.72-12.85L314.72-11.44L312.37-11.44L312.37-12.69Q312.37-13.68 312.27-14.44Q312.17-15.20 311.73-15.62Q311.29-16.04 310.25-16.04L310.25-16.04Q309.20-16.04 308.71-15.59Q308.23-15.14 308.09-14.31Q307.94-13.49 307.94-12.39L307.94-12.39L307.94-5.32Q307.94-3.98 308.16-3.20Q308.38-2.42 308.89-2.09Q309.40-1.76 310.25-1.76L310.25-1.76Q311.27-1.76 311.71-2.21Q312.15-2.66 312.26-3.45Q312.37-4.25 312.37-5.30L312.37-5.30L312.37-6.62L314.72-6.62L314.72-5.30Q314.72-3.67 314.32-2.43Q313.93-1.19 312.96-0.49Q311.99 0.20 310.23 0.20ZM321.46 0L319.13 0L322.91-17.82L325.31-17.82L329.12 0L326.76 0L325.95-4.49L322.32-4.49L321.46 0ZM324.12-14.30L322.65-6.27L325.62-6.27L324.12-14.30ZM336.41 0L333.92 0L333.92-17.82L337.51-17.82Q339.29-17.82 340.45-17.35Q341.62-16.87 342.18-15.83Q342.74-14.78 342.74-13.09L342.74-13.09Q342.74-12.06 342.52-11.21Q342.30-10.36 341.82-9.78Q341.33-9.20 340.54-8.93L340.54-8.93L343.07 0L340.67 0L338.34-8.36L336.41-8.36L336.41 0ZM336.41-16.04L336.41-10.14L337.35-10.14Q338.41-10.14 339.07-10.41Q339.73-10.67 340.04-11.31Q340.34-11.95 340.34-13.09L340.34-13.09Q340.34-14.65 339.77-15.34Q339.20-16.04 337.51-16.04L337.51-16.04L336.41-16.04ZM352.58 0.22L352.58 0.22Q350.91 0.22 349.91-0.49Q348.91-1.21 348.46-2.57Q348.01-3.94 348.01-5.85L348.01-5.85L348.01-11.81Q348.01-13.77 348.42-15.15Q348.82-16.52 349.87-17.25Q350.91-17.97 352.78-17.97L352.78-17.97Q354.45-17.97 355.48-17.41Q356.50-16.85 356.96-15.70Q357.42-14.54 357.42-12.78L357.42-12.78L357.42-12.12L355.09-12.12L355.09-12.67Q355.09-13.84 354.94-14.57Q354.78-15.31 354.31-15.67Q353.84-16.04 352.83-16.04L352.83-16.04Q351.73-16.04 351.23-15.53Q350.74-15.03 350.62-14.16Q350.49-13.29 350.49-12.19L350.49-12.19L350.49-5.59Q350.49-4.31 350.68-3.45Q350.87-2.60 351.40-2.18Q351.92-1.76 352.89-1.76L352.89-1.76Q353.86-1.76 354.39-2.22Q354.92-2.68 355.11-3.59Q355.31-4.49 355.31-5.83L355.31-5.83L355.31-7.06L353.05-7.06L353.05-8.82L357.56-8.82L357.56 0L355.99 0L355.75-2.05Q355.40-1.06 354.65-0.42Q353.90 0.22 352.58 0.22ZM364.47 0L362.14 0L365.92-17.82L368.32-17.82L372.13 0L369.77 0L368.96-4.49L365.33-4.49L364.47 0ZM367.13-14.30L365.66-6.27L368.63-6.27L367.13-14.30ZM381.13 0.20L381.13 0.20Q379.59 0.20 378.57-0.46Q377.55-1.12 377.02-2.29Q376.49-3.45 376.40-4.99L376.40-4.99L378.60-5.59Q378.67-4.64 378.90-3.76Q379.13-2.88 379.66-2.32Q380.19-1.76 381.13-1.76L381.13-1.76Q382.10-1.76 382.60-2.30Q383.09-2.84 383.09-3.85L383.09-3.85Q383.09-5.06 382.54-5.80Q381.99-6.53 381.16-7.28L381.16-7.28L378.16-9.92Q377.28-10.69 376.87-11.60Q376.45-12.52 376.45-13.86L376.45-13.86Q376.45-15.82 377.57-16.90Q378.69-17.97 380.63-17.97L380.63-17.97Q381.68-17.97 382.49-17.70Q383.29-17.42 383.83-16.85Q384.37-16.28 384.69-15.41Q385.01-14.54 385.12-13.38L385.12-13.38L383.00-12.80Q382.94-13.68 382.74-14.42Q382.54-15.16 382.05-15.61Q381.55-16.06 380.63-16.06L380.63-16.06Q379.70-16.06 379.19-15.56Q378.67-15.07 378.67-14.10L378.67-14.10Q378.67-13.29 378.95-12.76Q379.22-12.23 379.84-11.68L379.84-11.68L382.85-9.04Q383.86-8.16 384.63-6.94Q385.40-5.72 385.40-4.05L385.40-4.05Q385.40-2.73 384.85-1.77Q384.30-0.81 383.35-0.31Q382.39 0.20 381.13 0.20Z" fill="#a8a294"/></g>
	<g transform="translate(973.63 586)" opacity="1"><path d="M3.87 0L1.39 0L1.39-17.82L4.97-17.82Q6.75-17.82 7.92-17.35Q9.09-16.87 9.65-15.83Q10.21-14.78 10.21-13.09L10.21-13.09Q10.21-12.06 9.99-11.21Q9.77-10.36 9.28-9.78Q8.80-9.20 8.01-8.93L8.01-8.93L10.54 0L8.14 0L5.81-8.36L3.87-8.36L3.87 0ZM3.87-16.04L3.87-10.14L4.82-10.14Q5.87-10.14 6.53-10.41Q7.19-10.67 7.50-11.31Q7.81-11.95 7.81-13.09L7.81-13.09Q7.81-14.65 7.24-15.34Q6.67-16.04 4.97-16.04L4.97-16.04L3.87-16.04ZM17.17 0L14.84 0L18.62-17.82L21.02-17.82L24.82 0L22.47 0L21.66-4.49L18.03-4.49L17.17 0ZM19.83-14.30L18.36-6.27L21.33-6.27L19.83-14.30ZM32.11 0L29.63 0L29.63-17.82L34.05-17.82Q35.66-17.82 36.61-17.24Q37.57-16.65 38.01-15.55Q38.45-14.45 38.45-12.89L38.45-12.89Q38.45-11.48 37.95-10.45Q37.46-9.42 36.49-8.85Q35.52-8.29 34.07-8.29L34.07-8.29L32.11-8.29L32.11 0ZM32.11-16.04L32.11-10.08L33.26-10.08Q34.34-10.08 34.95-10.32Q35.57-10.56 35.83-11.16Q36.10-11.77 36.10-12.87L36.10-12.87Q36.10-14.15 35.91-14.83Q35.72-15.51 35.13-15.77Q34.53-16.04 33.28-16.04L33.28-16.04L32.11-16.04ZM50.14 0L43.19 0L43.19-17.82L50.10-17.82L50.10-15.97L45.67-15.97L45.67-10.08L49.26-10.08L49.26-8.32L45.67-8.32L45.67-1.78L50.14-1.78L50.14 0ZM56.51 0L54.17 0L57.96-17.82L60.36-17.82L64.16 0L61.81 0L60.99-4.49L57.36-4.49L56.51 0ZM59.17-14.30L57.69-6.27L60.66-6.27L59.17-14.30ZM71.45 0L68.97 0L68.97-17.82L72.55-17.82Q74.33-17.82 75.50-17.35Q76.67-16.87 77.23-15.83Q77.79-14.78 77.79-13.09L77.79-13.09Q77.79-12.06 77.57-11.21Q77.35-10.36 76.86-9.78Q76.38-9.20 75.59-8.93L75.59-8.93L78.12 0L75.72 0L73.39-8.36L71.45-8.36L71.45 0ZM71.45-16.04L71.45-10.14L72.40-10.14Q73.45-10.14 74.11-10.41Q74.77-10.67 75.08-11.31Q75.39-11.95 75.39-13.09L75.39-13.09Q75.39-14.65 74.82-15.34Q74.25-16.04 72.55-16.04L72.55-16.04L71.45-16.04ZM85.43 0L83.08 0L83.08-2.62L85.43-2.62L85.43 0ZM95.07 0.20L95.07 0.20Q93.27 0.20 92.19-0.51Q91.11-1.21 90.65-2.52Q90.19-3.83 90.19-5.59L90.19-5.59L90.19-12.34Q90.19-14.10 90.66-15.37Q91.14-16.63 92.20-17.30Q93.27-17.97 95.07-17.97L95.07-17.97Q96.88-17.97 97.93-17.29Q98.99-16.61 99.46-15.36Q99.94-14.10 99.94-12.34L99.94-12.34L99.94-5.57Q99.94-3.83 99.46-2.53Q98.99-1.23 97.93-0.52Q96.88 0.20 95.07 0.20ZM95.07-1.76L95.07-1.76Q96.06-1.76 96.57-2.17Q97.08-2.57 97.25-3.31Q97.43-4.05 97.43-5.04L97.43-5.04L97.43-12.85Q97.43-13.84 97.25-14.55Q97.08-15.27 96.57-15.65Q96.06-16.04 95.07-16.04L95.07-16.04Q94.08-16.04 93.57-15.65Q93.05-15.27 92.87-14.55Q92.70-13.84 92.70-12.85L92.70-12.85L92.70-5.04Q92.70-4.05 92.87-3.31Q93.05-2.57 93.57-2.17Q94.08-1.76 95.07-1.76ZM107.49 0L105.38 0L105.38-17.82L107.07-17.82L112.13-5.98L112.13-17.82L114.20-17.82L114.20 0L112.62 0L107.49-12.17L107.49 0ZM127.03 0L119.99 0L119.99-17.82L122.48-17.82L122.48-1.78L127.03-1.78L127.03 0ZM134.30 0L131.86 0L131.86-17.82L134.30-17.82L134.30 0ZM142.30 0L140.18 0L140.18-17.82L141.88-17.82L146.94-5.98L146.94-17.82L149.01-17.82L149.01 0L147.42 0L142.30-12.17L142.30 0ZM161.75 0L154.80 0L154.80-17.82L161.71-17.82L161.71-15.97L157.29-15.97L157.29-10.08L160.87-10.08L160.87-8.32L157.29-8.32L157.29-1.78L161.75-1.78L161.75 0Z" fill="#a8a294"/></g>
</svg>
