<svg xmlns="http://www.w3.org/2000/svg" width="1200" height="630" viewBox="0 0 1200 630" role="img" aria-label="Rapear Online">

	<defs>
		<linearGradient id="bg" x1="0" y1="0" x2="0.65" y2="1">
			<stop offset="0" stop-color="#0b0b10"/>
			<stop offset="0.5" stop-color="#121319"/>
			<stop offset="1" stop-color="#08080b"/>
		</linearGradient>
		<radialGradient id="topglow" cx="0.5" cy="0" r="0.8">
			<stop offset="0" stop-color="#e8192c" stop-opacity="0.28"/>
			<stop offset="1" stop-color="#e8192c" stop-opacity="0"/>
		</radialGradient>
		<linearGradient id="spotL" x1="0" y1="0" x2="0" y2="1">
			<stop offset="0" stop-color="#e8192c" stop-opacity="0.30"/>
			<stop offset="0.75" stop-color="#e8192c" stop-opacity="0"/>
		</linearGradient>
		<linearGradient id="spotR" x1="0" y1="0" x2="0" y2="1">
			<stop offset="0" stop-color="#f2ecdd" stop-opacity="0.14"/>
			<stop offset="0.75" stop-color="#f2ecdd" stop-opacity="0"/>
		</linearGradient>
		<pattern id="grid" width="44" height="44" patternUnits="userSpaceOnUse">
			<path d="M44 0H0v44" fill="none" stroke="#ffffff" stroke-opacity="0.04" stroke-width="1"/>
		</pattern>
	</defs>
	<rect width="1200" height="630" fill="url(#bg)"/>
	<rect width="1200" height="630" fill="url(#grid)"/>
	<rect width="1200" height="630" fill="url(#topglow)"/>
	<g transform="translate(250 -40) rotate(8)"><rect x="-110" y="0" width="220" height="750" fill="url(#spotL)" opacity="0.9"/></g>
	<g transform="translate(960 -40) rotate(-8)"><rect x="-130" y="0" width="260" height="750" fill="url(#spotR)" opacity="0.9"/></g>
	<g opacity="0.95"><circle cx="30" cy="656" r="26" fill="#040406"/><circle cx="75.6" cy="654.25" r="31.95" fill="#040406"/><circle cx="121.2" cy="652.52" r="24.47" fill="#040406"/><circle cx="166.8" cy="650.85" r="20.45" fill="#040406"/><circle cx="212.4" cy="649.26" r="28.96" fill="#040406"/><circle cx="258" cy="647.77" r="30.79" fill="#040406"/><circle cx="303.6" cy="646.42" r="21.8" fill="#040406"/><circle cx="349.2" cy="645.21" r="32.29" fill="#040406"/><circle cx="394.8" cy="644.18" r="41.15" fill="#040406"/><circle cx="440.4" cy="643.33" r="38.38" fill="#040406"/><circle cx="486" cy="642.69" r="30.23" fill="#040406"/><circle cx="531.6" cy="642.25" r="35.11" fill="#040406"/><circle cx="577.2" cy="642.03" r="42" fill="#040406"/><circle cx="622.8" cy="642.03" r="35.35" fill="#040406"/><circle cx="668.4" cy="642.25" r="30.17" fill="#040406"/><circle cx="714" cy="642.69" r="38.15" fill="#040406"/><circle cx="759.6" cy="643.33" r="41.28" fill="#040406"/><circle cx="805.2" cy="644.18" r="32.49" fill="#040406"/><circle cx="850.8" cy="645.21" r="31.63" fill="#040406"/><circle cx="896.4" cy="646.42" r="30.64" fill="#040406"/><circle cx="942" cy="647.77" r="29.17" fill="#040406"/><circle cx="987.6" cy="649.26" r="20.54" fill="#040406"/><circle cx="1033.2" cy="650.85" r="24.23" fill="#040406"/><circle cx="1078.8" cy="652.52" r="31.91" fill="#040406"/><circle cx="1124.4" cy="654.25" r="26.24" fill="#040406"/><circle cx="1170" cy="656" r="20.02" fill="#040406"/></g>
	<rect x="0" y="0" width="1200" height="6" fill="#e8192c"/>
	<rect x="0" y="624" width="1200" height="6" fill="#15151b"/>
	<rect x="0" y="624" width="408.00000000000006" height="6" fill="#e8192c"/>
<g transform="translate(1012 286) skewX(-8)">
		<rect x="-84.00000000000001" y="-67.2" width="168.00000000000003" height="134.4" fill="#e8192c"/>
		<g transform="translate(0 32.256)"><g transform="translate(-44.82 0)" opacity="1"><path d="M33.86 0L11.29 0L1.08-82.82L16.84-82.82L22.90-26.48L28.31-82.82L44.07-82.82L33.86 0ZM68.52 0.75L68.52 0.75Q57.19 0.75 52.18-4.89Q47.17-10.54 47.17-22.86L47.17-22.86L47.17-30.95L63.54-30.95L63.54-20.60Q63.54-17.73 64.41-16.11Q65.28-14.49 67.44-14.49L67.44-14.49Q69.70-14.49 70.57-15.80Q71.44-17.12 71.44-20.13L71.44-20.13Q71.44-23.94 70.69-26.50Q69.94-29.07 68.08-31.39Q66.22-33.72 62.93-36.83L62.93-36.83L55.50-43.88Q47.17-51.73 47.17-61.85L47.17-61.85Q47.17-72.43 52.09-77.98Q57.00-83.53 66.31-83.53L66.31-83.53Q77.70-83.53 82.47-77.46Q87.24-71.39 87.24-59.02L87.24-59.02L70.41-59.02L70.41-64.72Q70.41-66.41 69.44-67.35Q68.48-68.29 66.83-68.29L66.83-68.29Q64.86-68.29 63.94-67.18Q63.02-66.08 63.02-64.34L63.02-64.34Q63.02-62.60 63.96-60.58Q64.90-58.55 67.68-55.92L67.68-55.92L77.23-46.75Q80.09-44.02 82.49-40.99Q84.89-37.95 86.35-33.93Q87.81-29.91 87.81-24.13L87.81-24.13Q87.81-12.46 83.50-5.86Q79.20 0.75 68.52 0.75Z" fill="#08080b"/></g></g>
	</g>
<g transform="translate(66 104)" opacity="1"><path d="M7.62 0.25L7.62 0.25Q5.15 0.25 3.84-0.73Q2.52-1.71 2.04-3.49Q1.57-5.26 1.57-7.64L1.57-7.64L1.57-22.68L4.59-22.68L4.59-7.50Q4.59-6.05 4.79-4.84Q4.98-3.64 5.64-2.94Q6.30-2.24 7.62-2.24L7.62-2.24Q8.96-2.24 9.60-2.94Q10.25-3.64 10.44-4.84Q10.64-6.05 10.64-7.50L10.64-7.50L10.64-22.68L13.64-22.68L13.64-7.64Q13.64-5.26 13.16-3.49Q12.68-1.71 11.38-0.73Q10.08 0.25 7.62 0.25ZM27.66 0L24.97 0L24.97-22.68L27.12-22.68L33.56-7.62L33.56-22.68L36.20-22.68L36.20 0L34.18 0L27.66-15.48L27.66 0ZM52.93 0L47.75 0L47.75-22.68L52.68-22.68Q55.20-22.68 56.67-21.91Q58.14-21.14 58.77-19.60Q59.40-18.06 59.40-15.76L59.40-15.76L59.40-7.42Q59.40-5.01 58.77-3.36Q58.14-1.71 56.73-0.85Q55.31 0 52.93 0L52.93 0ZM50.92-20.33L50.92-2.27L52.71-2.27Q54.44-2.27 55.17-2.94Q55.90-3.61 56.05-4.90Q56.21-6.19 56.21-8.01L56.21-8.01L56.21-15.37Q56.21-17.14 55.98-18.23Q55.76-19.32 55.00-19.82Q54.25-20.33 52.62-20.33L52.62-20.33L50.92-20.33ZM79.36 0L70.51 0L70.51-22.68L79.30-22.68L79.30-20.33L73.67-20.33L73.67-12.82L78.24-12.82L78.24-10.58L73.67-10.58L73.67-2.27L79.36-2.27L79.36 0ZM93.07 0L89.90 0L89.90-22.68L94.47-22.68Q96.74-22.68 98.22-22.08Q99.70-21.48 100.42-20.15Q101.13-18.82 101.13-16.66L101.13-16.66Q101.13-15.34 100.85-14.27Q100.57-13.19 99.96-12.45Q99.34-11.70 98.33-11.37L98.33-11.37L101.55 0L98.50 0L95.53-10.64L93.07-10.64L93.07 0ZM93.07-20.41L93.07-12.91L94.27-12.91Q95.62-12.91 96.46-13.24Q97.30-13.58 97.69-14.39Q98.08-15.20 98.08-16.66L98.08-16.66Q98.08-18.65 97.35-19.53Q96.62-20.41 94.47-20.41L94.47-20.41L93.07-20.41ZM117.84 0.28L117.84 0.28Q115.71 0.28 114.44-0.63Q113.16-1.54 112.59-3.28Q112.02-5.01 112.02-7.45L112.02-7.45L112.02-15.04Q112.02-17.53 112.53-19.28Q113.05-21.03 114.38-21.95Q115.71-22.88 118.09-22.88L118.09-22.88Q120.22-22.88 121.52-22.16Q122.82-21.45 123.41-19.98Q124-18.51 124-16.27L124-16.27L124-15.43L121.03-15.43L121.03-16.13Q121.03-17.61 120.84-18.55Q120.64-19.49 120.04-19.95Q119.44-20.41 118.15-20.41L118.15-20.41Q116.75-20.41 116.12-19.77Q115.49-19.12 115.33-18.02Q115.18-16.91 115.18-15.51L115.18-15.51L115.18-7.11Q115.18-5.49 115.42-4.40Q115.66-3.30 116.33-2.77Q117-2.24 118.23-2.24L118.23-2.24Q119.46-2.24 120.14-2.83Q120.81-3.42 121.06-4.56Q121.31-5.71 121.31-7.42L121.31-7.42L121.31-8.99L118.43-8.99L118.43-11.23L124.17-11.23L124.17 0L122.18 0L121.87-2.60Q121.42-1.34 120.47-0.53Q119.52 0.28 117.84 0.28ZM138.58 0L135.42 0L135.42-22.68L139.98-22.68Q142.25-22.68 143.73-22.08Q145.22-21.48 145.93-20.15Q146.64-18.82 146.64-16.66L146.64-16.66Q146.64-15.34 146.36-14.27Q146.08-13.19 145.47-12.45Q144.85-11.70 143.84-11.37L143.84-11.37L147.06 0L144.01 0L141.04-10.64L138.58-10.64L138.58 0ZM138.58-20.41L138.58-12.91L139.78-12.91Q141.13-12.91 141.97-13.24Q142.81-13.58 143.20-14.39Q143.59-15.20 143.59-16.66L143.59-16.66Q143.59-18.65 142.86-19.53Q142.14-20.41 139.98-20.41L139.98-20.41L138.58-20.41ZM163.74 0.25L163.74 0.25Q161.45 0.25 160.08-0.64Q158.70-1.54 158.12-3.21Q157.53-4.87 157.53-7.11L157.53-7.11L157.53-15.71Q157.53-17.95 158.13-19.56Q158.73-21.17 160.09-22.02Q161.45-22.88 163.74-22.88L163.74-22.88Q166.04-22.88 167.38-22.01Q168.73-21.14 169.33-19.54Q169.93-17.95 169.93-15.71L169.93-15.71L169.93-7.08Q169.93-4.87 169.33-3.22Q168.73-1.57 167.38-0.66Q166.04 0.25 163.74 0.25ZM163.74-2.24L163.74-2.24Q165.00-2.24 165.65-2.76Q166.29-3.28 166.52-4.21Q166.74-5.15 166.74-6.41L166.74-6.41L166.74-16.35Q166.74-17.61 166.52-18.52Q166.29-19.43 165.65-19.92Q165.00-20.41 163.74-20.41L163.74-20.41Q162.48-20.41 161.83-19.92Q161.17-19.43 160.94-18.52Q160.72-17.61 160.72-16.35L160.72-16.35L160.72-6.41Q160.72-5.15 160.94-4.21Q161.17-3.28 161.83-2.76Q162.48-2.24 163.74-2.24ZM186.89 0.25L186.89 0.25Q184.43 0.25 183.11-0.73Q181.80-1.71 181.32-3.49Q180.84-5.26 180.84-7.64L180.84-7.64L180.84-22.68L183.87-22.68L183.87-7.50Q183.87-6.05 184.06-4.84Q184.26-3.64 184.92-2.94Q185.58-2.24 186.89-2.24L186.89-2.24Q188.24-2.24 188.88-2.94Q189.52-3.64 189.72-4.84Q189.92-6.05 189.92-7.50L189.92-7.50L189.92-22.68L192.91-22.68L192.91-7.64Q192.91-5.26 192.44-3.49Q191.96-1.71 190.66-0.73Q189.36 0.25 186.89 0.25ZM206.93 0L204.24 0L204.24-22.68L206.40-22.68L212.84-7.62L212.84-22.68L215.47-22.68L215.47 0L213.46 0L206.93-15.48L206.93 0ZM232.21 0L227.03 0L227.03-22.68L231.96-22.68Q234.48-22.68 235.95-21.91Q237.42-21.14 238.05-19.60Q238.68-18.06 238.68-15.76L238.68-15.76L238.68-7.42Q238.68-5.01 238.05-3.36Q237.42-1.71 236.00-0.85Q234.59 0 232.21 0L232.21 0ZM230.19-20.33L230.19-2.27L231.98-2.27Q233.72-2.27 234.45-2.94Q235.18-3.61 235.33-4.90Q235.48-6.19 235.48-8.01L235.48-8.01L235.48-15.37Q235.48-17.14 235.26-18.23Q235.04-19.32 234.28-19.82Q233.52-20.33 231.90-20.33L231.90-20.33L230.19-20.33ZM267.36 0L264.20 0L264.20-22.68L272.96-22.68L272.96-20.41L267.36-20.41L267.36-12.85L271.70-12.85L271.70-10.61L267.36-10.61L267.36 0ZM286.31 0L283.14 0L283.14-22.68L287.71-22.68Q289.98-22.68 291.46-22.08Q292.94-21.48 293.66-20.15Q294.37-18.82 294.37-16.66L294.37-16.66Q294.37-15.34 294.09-14.27Q293.81-13.19 293.20-12.45Q292.58-11.70 291.57-11.37L291.57-11.37L294.79 0L291.74 0L288.77-10.64L286.31-10.64L286.31 0ZM286.31-20.41L286.31-12.91L287.51-12.91Q288.86-12.91 289.70-13.24Q290.54-13.58 290.93-14.39Q291.32-15.20 291.32-16.66L291.32-16.66Q291.32-18.65 290.59-19.53Q289.86-20.41 287.71-20.41L287.71-20.41L286.31-20.41ZM314.52 0L305.68 0L305.68-22.68L314.47-22.68L314.47-20.33L308.84-20.33L308.84-12.82L313.40-12.82L313.40-10.58L308.84-10.58L308.84-2.27L314.52-2.27L314.52 0ZM333.92 0L325.07 0L325.07-22.68L333.86-22.68L333.86-20.33L328.24-20.33L328.24-12.82L332.80-12.82L332.80-10.58L328.24-10.58L328.24-2.27L333.92-2.27L333.92 0ZM349.82 0.25L349.82 0.25Q347.86 0.25 346.55-0.59Q345.25-1.43 344.58-2.91Q343.91-4.40 343.80-6.36L343.80-6.36L346.60-7.11Q346.68-5.91 346.97-4.79Q347.27-3.67 347.94-2.95Q348.61-2.24 349.82-2.24L349.82-2.24Q351.05-2.24 351.68-2.93Q352.31-3.61 352.31-4.90L352.31-4.90Q352.31-6.44 351.61-7.38Q350.91-8.32 349.84-9.27L349.84-9.27L346.04-12.63Q344.92-13.61 344.38-14.77Q343.85-15.93 343.85-17.64L343.85-17.64Q343.85-20.13 345.28-21.50Q346.71-22.88 349.17-22.88L349.17-22.88Q350.52-22.88 351.54-22.53Q352.56-22.18 353.25-21.45Q353.93-20.72 354.34-19.61Q354.74-18.51 354.88-17.02L354.88-17.02L352.20-16.30Q352.11-17.42 351.86-18.35Q351.61-19.29 350.98-19.87Q350.35-20.44 349.17-20.44L349.17-20.44Q348.00-20.44 347.34-19.81Q346.68-19.18 346.68-17.95L346.68-17.95Q346.68-16.91 347.03-16.24Q347.38-15.57 348.16-14.87L348.16-14.87L352-11.51Q353.29-10.39 354.27-8.83Q355.25-7.28 355.25-5.15L355.25-5.15Q355.25-3.47 354.55-2.25Q353.85-1.04 352.63-0.39Q351.41 0.25 349.82 0.25ZM371.37 0L368.20 0L368.20-20.33L364.37-20.33L364.37-22.68L375.09-22.68L375.09-20.33L371.37-20.33L371.37 0ZM391.77 0L388.75 0L388.75-8.01L383.85-22.68L386.79-22.68L390.26-11.73L393.68-22.68L396.64-22.68L391.77-8.01L391.77 0ZM415.70 0L406.74 0L406.74-22.68L409.91-22.68L409.91-2.27L415.70-2.27L415.70 0ZM434.71 0L425.86 0L425.86-22.68L434.65-22.68L434.65-20.33L429.02-20.33L429.02-12.82L433.59-12.82L433.59-10.58L429.02-10.58L429.02-2.27L434.71-2.27L434.71 0ZM468.63 0L459.67 0L459.67-22.68L462.83-22.68L462.83-2.27L468.63-2.27L468.63 0ZM487.63 0L478.78 0L478.78-22.68L487.58-22.68L487.58-20.33L481.95-20.33L481.95-12.82L486.51-12.82L486.51-10.58L481.95-10.58L481.95-2.27L487.63-2.27L487.63 0ZM499.92 0L496.95 0L501.76-22.68L504.82-22.68L509.66 0L506.66 0L505.63-5.71L501.01-5.71L499.92 0ZM503.30-18.20L501.43-7.98L505.21-7.98L503.30-18.20ZM525.36 0.28L525.36 0.28Q523.23 0.28 521.96-0.63Q520.68-1.54 520.11-3.28Q519.54-5.01 519.54-7.45L519.54-7.45L519.54-15.04Q519.54-17.53 520.05-19.28Q520.57-21.03 521.90-21.95Q523.23-22.88 525.61-22.88L525.61-22.88Q527.74-22.88 529.04-22.16Q530.34-21.45 530.93-19.98Q531.52-18.51 531.52-16.27L531.52-16.27L531.52-15.43L528.55-15.43L528.55-16.13Q528.55-17.61 528.36-18.55Q528.16-19.49 527.56-19.95Q526.96-20.41 525.67-20.41L525.67-20.41Q524.27-20.41 523.64-19.77Q523.01-19.12 522.85-18.02Q522.70-16.91 522.70-15.51L522.70-15.51L522.70-7.11Q522.70-5.49 522.94-4.40Q523.18-3.30 523.85-2.77Q524.52-2.24 525.75-2.24L525.75-2.24Q526.98-2.24 527.66-2.83Q528.33-3.42 528.58-4.56Q528.83-5.71 528.83-7.42L528.83-7.42L528.83-8.99L525.95-8.99L525.95-11.23L531.69-11.23L531.69 0L529.70 0L529.39-2.60Q528.94-1.34 527.99-0.53Q527.04 0.28 525.36 0.28ZM548.79 0.25L548.79 0.25Q546.32 0.25 545.01-0.73Q543.69-1.71 543.22-3.49Q542.74-5.26 542.74-7.64L542.74-7.64L542.74-22.68L545.76-22.68L545.76-7.50Q545.76-6.05 545.96-4.84Q546.16-3.64 546.81-2.94Q547.47-2.24 548.79-2.24L548.79-2.24Q550.13-2.24 550.78-2.94Q551.42-3.64 551.62-4.84Q551.81-6.05 551.81-7.50L551.81-7.50L551.81-22.68L554.81-22.68L554.81-7.64Q554.81-5.26 554.33-3.49Q553.86-1.71 552.55-0.73Q551.25 0.25 548.79 0.25ZM574.99 0L566.14 0L566.14-22.68L574.93-22.68L574.93-20.33L569.30-20.33L569.30-12.82L573.87-12.82L573.87-10.58L569.30-10.58L569.30-2.27L574.99-2.27L574.99 0Z" fill="#e8192c"/></g>
<g transform="translate(60 242) skewX(-3)" opacity="1"><path d="M29.67 0L5.33 0L5.33-120.31L42.25-120.31Q51.47-120.31 56.19-116.11Q60.91-111.90 62.51-104.35Q64.12-96.80 64.12-86.61L64.12-86.61Q64.12-76.77 61.63-70.89Q59.13-65.01 52.23-62.75L52.23-62.75Q57.90-61.59 60.19-57.11Q62.48-52.64 62.48-45.53L62.48-45.53L62.48 0L38.76 0L38.76-47.10Q38.76-52.36 36.61-53.63Q34.45-54.89 29.67-54.89L29.67-54.89L29.67 0ZM29.80-98.03L29.80-75.74L35.62-75.74Q40.61-75.74 40.61-86.61L40.61-86.61Q40.61-93.65 39.51-95.84Q38.42-98.03 35.41-98.03L35.41-98.03L29.80-98.03ZM92.15 0L68.77 0L80.39-120.31L121.20-120.31L132.62 0L109.85 0L108.14-19.41L93.65-19.41L92.15 0ZM99.94-99.80L95.36-38.62L106.30-38.62L101.04-99.80L99.94-99.80ZM163.65 0L140 0L140-120.31L171.79-120.31Q181.77-120.31 187.61-115.87Q193.46-111.43 195.99-103.22Q198.52-95.02 198.52-83.67L198.52-83.67Q198.52-72.73 196.40-64.63Q194.28-56.53 188.84-52.09Q183.41-47.65 173.43-47.65L173.43-47.65L163.65-47.65L163.65 0ZM163.65-98.37L163.65-69.25L165.02-69.25Q171.72-69.25 173.22-73.01Q174.73-76.77 174.73-84.08L174.73-84.08Q174.73-90.92 173.26-94.64Q171.79-98.37 166.32-98.37L166.32-98.37L163.65-98.37ZM255.80 0L206.10 0L206.10-120.31L254.23-120.31L254.23-97.07L230.58-97.07L230.58-73.62L253.27-73.62L253.27-51.00L230.58-51.00L230.58-23.45L255.80-23.45L255.80 0ZM283.83 0L260.45 0L272.07-120.31L312.88-120.31L324.30 0L301.53 0L299.82-19.41L285.33-19.41L283.83 0ZM291.62-99.80L287.04-38.62L297.98-38.62L292.71-99.80L291.62-99.80ZM356.02 0L331.68 0L331.68-120.31L368.59-120.31Q377.82-120.31 382.54-116.11Q387.26-111.90 388.86-104.35Q390.47-96.80 390.47-86.61L390.47-86.61Q390.47-76.77 387.97-70.89Q385.48-65.01 378.57-62.75L378.57-62.75Q384.25-61.59 386.54-57.11Q388.83-52.64 388.83-45.53L388.83-45.53L388.83 0L365.11 0L365.11-47.10Q365.11-52.36 362.95-53.63Q360.80-54.89 356.02-54.89L356.02-54.89L356.02 0ZM356.15-98.03L356.15-75.74L361.96-75.74Q366.95-75.74 366.95-86.61L366.95-86.61Q366.95-93.65 365.86-95.84Q364.77-98.03 361.76-98.03L361.76-98.03L356.15-98.03Z" fill="none" stroke="#f2ecdd" stroke-width="3" stroke-linejoin="round"/></g>
<g transform="translate(60 373.6) skewX(-3)" opacity="1"><path d="M34.04 1.09L34.04 1.09Q19.62 1.09 12.00-7.62Q4.38-16.34 4.38-32.81L4.38-32.81L4.38-89.96Q4.38-105.41 11.93-113.41Q19.48-121.41 34.04-121.41L34.04-121.41Q48.60-121.41 56.16-113.41Q63.71-105.41 63.71-89.96L63.71-89.96L63.71-32.81Q63.71-16.34 56.09-7.62Q48.47 1.09 34.04 1.09ZM34.25-21.05L34.25-21.05Q39.72-21.05 39.72-31.65L39.72-31.65L39.72-90.37Q39.72-99.26 34.38-99.26L34.38-99.26Q28.37-99.26 28.37-90.17L28.37-90.17L28.37-31.51Q28.37-25.91 29.74-23.48Q31.10-21.05 34.25-21.05ZM96.93 0L73.42 0L73.42-120.31L98.16-120.31L109.24-62.69L109.24-120.31L132.48-120.31L132.48 0L108.96 0L96.93-60.16L96.93 0ZM191.95 0L143.14 0L143.14-120.31L167.21-120.31L167.21-20.51L191.95-20.51L191.95 0ZM220.94 0L197.70 0L197.70-120.31L220.94-120.31L220.94 0ZM254.02 0L230.51 0L230.51-120.31L255.25-120.31L266.33-62.69L266.33-120.31L289.57-120.31L289.57 0L266.05 0L254.02-60.16L254.02 0ZM349.93 0L300.23 0L300.23-120.31L348.36-120.31L348.36-97.07L324.71-97.07L324.71-73.62L347.40-73.62L347.40-51.00L324.71-51.00L324.71-23.45L349.93-23.45L349.93 0Z" fill="#e8192c"/></g>
<g transform="translate(66 436)" opacity="1"><path d="M7.53 0L1.70 0L1.70-21.87L6.72-21.87Q8.21-21.87 9.30-21.55Q10.39-21.22 11.12-20.55Q11.85-19.87 12.20-18.83Q12.55-17.79 12.55-16.39L12.55-16.39Q12.55-15.04 12.22-14.05Q11.88-13.07 11.19-12.50Q10.50-11.93 9.42-11.77L9.42-11.77Q10.75-11.47 11.56-10.76Q12.37-10.04 12.76-8.92Q13.15-7.80 13.15-6.24L13.15-6.24Q13.15-4.83 12.82-3.67Q12.50-2.51 11.81-1.70Q11.12-0.89 10.06-0.45Q8.99 0 7.53 0L7.53 0ZM4.75-10.42L4.75-2.19L6.80-2.19Q8.86-2.19 9.54-3.15Q10.23-4.10 10.23-6.24L10.23-6.24Q10.23-7.61 9.87-8.55Q9.50-9.48 8.71-9.95Q7.91-10.42 6.56-10.42L6.56-10.42L4.75-10.42ZM4.75-19.60L4.75-12.74L6.56-12.74Q7.86-12.74 8.59-13.11Q9.31-13.47 9.61-14.28Q9.91-15.09 9.91-16.39L9.91-16.39Q9.91-17.90 9.45-18.58Q8.99-19.25 8.02-19.43Q7.05-19.60 5.48-19.60L5.48-19.60L4.75-19.60ZM20.52 0L17.66 0L22.30-21.87L25.25-21.87L29.92 0L27.03 0L26.03-5.51L21.58-5.51L20.52 0ZM23.79-17.55L21.98-7.70L25.63-7.70L23.79-17.55ZM40.59 0L37.54 0L37.54-19.60L33.84-19.60L33.84-21.87L44.18-21.87L44.18-19.60L40.59-19.60L40.59 0ZM50.96 0L48.10 0L52.74-21.87L55.68-21.87L60.35 0L57.46 0L56.47-5.51L52.01-5.51L50.96 0ZM54.23-17.55L52.42-7.70L56.06-7.70L54.23-17.55ZM74.21 0L65.57 0L65.57-21.87L68.62-21.87L68.62-2.19L74.21-2.19L74.21 0ZM87.93 0L79.29 0L79.29-21.87L82.34-21.87L82.34-2.19L87.93-2.19L87.93 0ZM94.68 0L91.82 0L96.46-21.87L99.40-21.87L104.08 0L101.19 0L100.19-5.51L95.73-5.51L94.68 0ZM97.95-17.55L96.14-7.70L99.78-7.70L97.95-17.55ZM114.45 0.24L114.45 0.24Q112.56 0.24 111.30-0.57Q110.05-1.38 109.40-2.81Q108.75-4.24 108.64-6.13L108.64-6.13L111.34-6.86Q111.42-5.70 111.71-4.62Q111.99-3.54 112.64-2.85Q113.29-2.16 114.45-2.16L114.45-2.16Q115.63-2.16 116.24-2.82Q116.85-3.48 116.85-4.72L116.85-4.72Q116.85-6.21 116.17-7.11Q115.50-8.02 114.47-8.94L114.47-8.94L110.80-12.18Q109.72-13.12 109.21-14.24Q108.70-15.36 108.70-17.01L108.70-17.01Q108.70-19.41 110.07-20.74Q111.45-22.06 113.83-22.06L113.83-22.06Q115.12-22.06 116.11-21.72Q117.09-21.38 117.75-20.68Q118.42-19.98 118.81-18.91Q119.20-17.85 119.33-16.42L119.33-16.42L116.74-15.71Q116.66-16.79 116.42-17.70Q116.17-18.60 115.57-19.16Q114.96-19.71 113.83-19.71L113.83-19.71Q112.69-19.71 112.06-19.10Q111.42-18.50 111.42-17.31L111.42-17.31Q111.42-16.31 111.76-15.66Q112.10-15.01 112.85-14.34L112.85-14.34L116.55-11.10Q117.80-10.02 118.74-8.52Q119.69-7.02 119.69-4.97L119.69-4.97Q119.69-3.35 119.01-2.17Q118.33-1.00 117.16-0.38Q115.99 0.24 114.45 0.24ZM140.05 0L137.16 0L137.16-18.09Q137.13-18.06 136.55-17.93Q135.97-17.79 135.24-17.66Q134.51-17.52 133.95-17.41Q133.38-17.31 133.35-17.31L133.35-17.31L133.35-19.49Q133.81-19.60 134.42-19.79Q135.03-19.98 135.66-20.25Q136.30-20.52 136.88-20.93Q137.46-21.33 137.86-21.87L137.86-21.87L140.05-21.87L140.05 0ZM163.11 0L160.44 0L155.55-21.87L158.41-21.87L161.87-5.75L165.16-21.87L167.95-21.87L163.11 0ZM178.42 0.24L178.42 0.24Q176.53 0.24 175.28-0.57Q174.02-1.38 173.38-2.81Q172.73-4.24 172.62-6.13L172.62-6.13L175.32-6.86Q175.40-5.70 175.68-4.62Q175.97-3.54 176.62-2.85Q177.26-2.16 178.42-2.16L178.42-2.16Q179.61-2.16 180.22-2.82Q180.83-3.48 180.83-4.72L180.83-4.72Q180.83-6.21 180.15-7.11Q179.48-8.02 178.45-8.94L178.45-8.94L174.78-12.18Q173.70-13.12 173.19-14.24Q172.67-15.36 172.67-17.01L172.67-17.01Q172.67-19.41 174.05-20.74Q175.43-22.06 177.80-22.06L177.80-22.06Q179.10-22.06 180.09-21.72Q181.07-21.38 181.73-20.68Q182.39-19.98 182.79-18.91Q183.18-17.85 183.31-16.42L183.31-16.42L180.72-15.71Q180.64-16.79 180.40-17.70Q180.15-18.60 179.55-19.16Q178.94-19.71 177.80-19.71L177.80-19.71Q176.67-19.71 176.04-19.10Q175.40-18.50 175.40-17.31L175.40-17.31Q175.40-16.31 175.74-15.66Q176.08-15.01 176.83-14.34L176.83-14.34L180.53-11.10Q181.77-10.02 182.72-8.52Q183.66-7.02 183.66-4.97L183.66-4.97Q183.66-3.35 182.99-2.17Q182.31-1.00 181.14-0.38Q179.96 0.24 178.42 0.24ZM204.03 0L201.14 0L201.14-18.09Q201.11-18.06 200.53-17.93Q199.95-17.79 199.22-17.66Q198.49-17.52 197.92-17.41Q197.36-17.31 197.33-17.31L197.33-17.31L197.33-19.49Q197.79-19.60 198.40-19.79Q199.00-19.98 199.64-20.25Q200.27-20.52 200.85-20.93Q201.43-21.33 201.84-21.87L201.84-21.87L204.03-21.87L204.03 0ZM222.80-8.69L219.88-8.69L219.88-11.66L222.80-11.66L222.80-8.69ZM243.38 0L237.55 0L237.55-21.87L242.57-21.87Q244.05-21.87 245.15-21.55Q246.24-21.22 246.97-20.55Q247.70-19.87 248.05-18.83Q248.40-17.79 248.40-16.39L248.40-16.39Q248.40-15.04 248.06-14.05Q247.72-13.07 247.04-12.50Q246.35-11.93 245.27-11.77L245.27-11.77Q246.59-11.47 247.40-10.76Q248.21-10.04 248.60-8.92Q248.99-7.80 248.99-6.24L248.99-6.24Q248.99-4.83 248.67-3.67Q248.35-2.51 247.66-1.70Q246.97-0.89 245.90-0.45Q244.84 0 243.38 0L243.38 0ZM240.60-10.42L240.60-2.19L242.65-2.19Q244.70-2.19 245.39-3.15Q246.08-4.10 246.08-6.24L246.08-6.24Q246.08-7.61 245.71-8.55Q245.35-9.48 244.55-9.95Q243.76-10.42 242.41-10.42L242.41-10.42L240.60-10.42ZM240.60-19.60L240.60-12.74L242.41-12.74Q243.70-12.74 244.43-13.11Q245.16-13.47 245.46-14.28Q245.75-15.09 245.75-16.39L245.75-16.39Q245.75-17.90 245.29-18.58Q244.84-19.25 243.86-19.43Q242.89-19.60 241.33-19.60L241.33-19.60L240.60-19.60ZM263.23 0L254.69 0L254.69-21.87L263.17-21.87L263.17-19.60L257.74-19.60L257.74-12.37L262.15-12.37L262.15-10.21L257.74-10.21L257.74-2.19L263.23-2.19L263.23 0ZM270.36 0L267.49 0L272.14-21.87L275.08-21.87L279.75 0L276.86 0L275.86-5.51L271.41-5.51L270.36 0ZM273.62-17.55L271.81-7.70L275.46-7.70L273.62-17.55ZM290.42 0L287.37 0L287.37-19.60L283.67-19.60L283.67-21.87L294.01-21.87L294.01-19.60L290.42-19.60L290.42 0ZM304.27 0.24L304.27 0.24Q302.38 0.24 301.13-0.57Q299.87-1.38 299.23-2.81Q298.58-4.24 298.47-6.13L298.47-6.13L301.17-6.86Q301.25-5.70 301.53-4.62Q301.82-3.54 302.47-2.85Q303.11-2.16 304.27-2.16L304.27-2.16Q305.46-2.16 306.07-2.82Q306.68-3.48 306.68-4.72L306.68-4.72Q306.68-6.21 306.00-7.11Q305.33-8.02 304.30-8.94L304.30-8.94L300.63-12.18Q299.55-13.12 299.04-14.24Q298.52-15.36 298.52-17.01L298.52-17.01Q298.52-19.41 299.90-20.74Q301.28-22.06 303.65-22.06L303.65-22.06Q304.95-22.06 305.94-21.72Q306.92-21.38 307.58-20.68Q308.24-19.98 308.64-18.91Q309.03-17.85 309.16-16.42L309.16-16.42L306.57-15.71Q306.49-16.79 306.25-17.70Q306.00-18.60 305.40-19.16Q304.79-19.71 303.65-19.71L303.65-19.71Q302.52-19.71 301.89-19.10Q301.25-18.50 301.25-17.31L301.25-17.31Q301.25-16.31 301.59-15.66Q301.93-15.01 302.68-14.34L302.68-14.34L306.38-11.10Q307.62-10.02 308.57-8.52Q309.51-7.02 309.51-4.97L309.51-4.97Q309.51-3.35 308.84-2.17Q308.16-1.00 306.99-0.38Q305.81 0.24 304.27 0.24ZM326.26-8.69L323.34-8.69L323.34-11.66L326.26-11.66L326.26-8.69ZM340.95 0.51L339.49 0.51L339.49-1.67Q340.49-1.67 341.11-1.81Q341.74-1.94 342.07-2.29Q342.41-2.65 342.55-3.31Q342.68-3.97 342.68-5.00L342.68-5.00L342.68-21.87L345.70-21.87L345.70-4.94Q345.70-3.05 345.30-1.85Q344.89-0.65 343.87-0.07Q342.84 0.51 340.95 0.51L340.95 0.51ZM357.78 0.24L357.78 0.24Q355.40 0.24 354.13-0.70Q352.86-1.65 352.40-3.36Q351.94-5.08 351.94-7.37L351.94-7.37L351.94-21.87L354.86-21.87L354.86-7.24Q354.86-5.83 355.05-4.67Q355.24-3.51 355.87-2.83Q356.51-2.16 357.78-2.16L357.78-2.16Q359.07-2.16 359.69-2.83Q360.31-3.51 360.50-4.67Q360.69-5.83 360.69-7.24L360.69-7.24L360.69-21.87L363.58-21.87L363.58-7.37Q363.58-5.08 363.12-3.36Q362.66-1.65 361.41-0.70Q360.15 0.24 357.78 0.24ZM378.33 0L369.79 0L369.79-21.87L378.27-21.87L378.27-19.60L372.85-19.60L372.85-12.37L377.25-12.37L377.25-10.21L372.85-10.21L372.85-2.19L378.33-2.19L378.33 0ZM392.77 0L383.11 0L383.11-2.19L389.53-19.68L383.51-19.68L383.51-21.87L392.77-21.87L392.77-20.55L386.00-2.19L392.77-2.19L392.77 0ZM410.38 0L407.39 0L407.39-21.87L410.38-21.87L410.38 0ZM418.60 0L415.73 0L420.38-21.87L423.32-21.87L427.99 0L425.10 0L424.10-5.51L419.65-5.51L418.60 0ZM421.86-17.55L420.05-7.70L423.70-7.70L421.86-17.55ZM444.58-8.69L441.66-8.69L441.66-11.66L444.58-11.66L444.58-8.69ZM462.37 0L459.32 0L459.32-21.87L463.72-21.87Q465.91-21.87 467.34-21.29Q468.77-20.71 469.46-19.43Q470.15-18.14 470.15-16.07L470.15-16.07Q470.15-14.80 469.88-13.76Q469.61-12.72 469.02-12.00Q468.42-11.29 467.45-10.96L467.45-10.96L470.56 0L467.61 0L464.75-10.26L462.37-10.26L462.37 0ZM462.37-19.68L462.37-12.45L463.54-12.45Q464.83-12.45 465.64-12.77Q466.45-13.10 466.83-13.88Q467.21-14.66 467.21-16.07L467.21-16.07Q467.21-17.98 466.51-18.83Q465.80-19.68 463.72-19.68L463.72-19.68L462.37-19.68ZM478.01 0L475.15 0L479.79-21.87L482.74-21.87L487.41 0L484.52 0L483.52-5.51L479.06-5.51L478.01 0ZM481.28-17.55L479.47-7.70L483.11-7.70L481.28-17.55ZM495.21 0L492.62 0L492.62-21.87L494.70-21.87L500.91-7.34L500.91-21.87L503.45-21.87L503.45 0L501.50 0L495.21-14.93L495.21 0ZM512.93 0L509.88 0L509.88-21.87L512.93-21.87L512.93-11.56L517.95-21.87L520.78-21.87L516.46-12.23L521.49 0L518.52 0L514.33-10.26L512.93-7.72L512.93 0ZM529.40 0L526.40 0L526.40-21.87L529.40-21.87L529.40 0ZM538.53 0L535.94 0L535.94-21.87L538.02-21.87L544.23-7.34L544.23-21.87L546.76-21.87L546.76 0L544.82 0L538.53-14.93L538.53 0ZM558.40 0.27L558.40 0.27Q556.35 0.27 555.12-0.61Q553.90-1.48 553.34-3.16Q552.79-4.83 552.79-7.18L552.79-7.18L552.79-14.50Q552.79-16.90 553.29-18.59Q553.79-20.28 555.07-21.17Q556.35-22.06 558.65-22.06L558.65-22.06Q560.70-22.06 561.96-21.37Q563.21-20.68 563.78-19.26Q564.34-17.85 564.34-15.69L564.34-15.69L564.34-14.88L561.48-14.88L561.48-15.55Q561.48-16.98 561.29-17.89Q561.10-18.79 560.52-19.24Q559.94-19.68 558.70-19.68L558.70-19.68Q557.35-19.68 556.74-19.06Q556.14-18.44 555.99-17.37Q555.84-16.31 555.84-14.96L555.84-14.96L555.84-6.86Q555.84-5.29 556.07-4.24Q556.30-3.19 556.95-2.67Q557.59-2.16 558.78-2.16L558.78-2.16Q559.97-2.16 560.62-2.73Q561.27-3.29 561.51-4.40Q561.75-5.51 561.75-7.16L561.75-7.16L561.75-8.67L558.97-8.67L558.97-10.83L564.51-10.83L564.51 0L562.59 0L562.29-2.51Q561.86-1.30 560.94-0.51Q560.02 0.27 558.40 0.27ZM588.35 0L579.82 0L579.82-21.87L588.30-21.87L588.30-19.60L582.87-19.60L582.87-12.37L587.27-12.37L587.27-10.21L582.87-10.21L582.87-2.19L588.35-2.19L588.35 0ZM602.45 0L593.81 0L593.81-21.87L596.86-21.87L596.86-2.19L602.45-2.19L602.45 0ZM613.12 0.24L613.12 0.24Q610.91 0.24 609.58-0.62Q608.26-1.48 607.69-3.09Q607.13-4.70 607.13-6.86L607.13-6.86L607.13-15.15Q607.13-17.31 607.71-18.86Q608.29-20.41 609.60-21.24Q610.91-22.06 613.12-22.06L613.12-22.06Q615.33-22.06 616.63-21.22Q617.93-20.38 618.51-18.85Q619.09-17.31 619.09-15.15L619.09-15.15L619.09-6.83Q619.09-4.70 618.51-3.10Q617.93-1.51 616.63-0.63Q615.33 0.24 613.12 0.24ZM613.12-2.16L613.12-2.16Q614.33-2.16 614.96-2.66Q615.58-3.16 615.79-4.06Q616.01-4.97 616.01-6.18L616.01-6.18L616.01-15.77Q616.01-16.98 615.79-17.86Q615.58-18.74 614.96-19.21Q614.33-19.68 613.12-19.68L613.12-19.68Q611.90-19.68 611.27-19.21Q610.64-18.74 610.42-17.86Q610.20-16.98 610.20-15.77L610.20-15.77L610.20-6.18Q610.20-4.97 610.42-4.06Q610.64-3.16 611.27-2.66Q611.90-2.16 613.12-2.16Z" fill="#f2ecdd"/></g>
<g transform="translate(64 505) skewX(-6)">
		<rect x="9" y="-21.22" width="293.23" height="60.45" fill="#7e0d19" opacity="0.5"/>
		<rect x="0" y="-30.22" width="293.23" height="60.45" fill="#e8192c"/>
		<g transform="skewX(6)"><g transform="translate(31 10.54)" opacity="1"><path d="M8.40 0L1.18 0L1.18-26.64L8.40-26.64Q11.31-26.64 12.63-25.23Q13.96-23.81 13.96-20.56L13.96-20.56L13.96-19.39Q13.96-17.51 13.28-16.35Q12.61-15.18 11.23-14.82L11.23-14.82Q13.03-14.36 13.65-12.69Q14.26-11.02 14.26-8.61L14.26-8.61Q14.26-6.02 13.77-4.09Q13.29-2.15 12.02-1.07Q10.75 0 8.40 0L8.40 0ZM6.39-22.52L6.39-16.60L7.48-16.60Q8.22-16.60 8.43-17.18Q8.64-17.76 8.64-18.56L8.64-18.56L8.64-21.24Q8.64-22.52 7.51-22.52L7.51-22.52L6.39-22.52ZM6.92-4.69L6.92-4.69Q8.99-4.69 8.99-6.66L8.99-6.66L8.99-9.99Q8.99-11.13 8.65-11.78Q8.31-12.44 7.37-12.44L7.37-12.44L6.39-12.44L6.39-4.72Q6.72-4.69 6.92-4.69ZM21.46 0L16.29 0L18.86-26.64L27.90-26.64L30.43 0L25.39 0L25.01-4.30L21.80-4.30L21.46 0ZM23.19-22.10L22.18-8.55L24.60-8.55L23.43-22.10L23.19-22.10ZM40.67 0L35.35 0L35.35-21.52L32.18-21.52L32.18-26.64L43.84-26.64L43.84-21.52L40.67-21.52L40.67 0ZM50.77 0L45.59 0L48.17-26.64L57.20-26.64L59.73 0L54.69 0L54.31-4.30L51.10-4.30L50.77 0ZM52.50-22.10L51.48-8.55L53.90-8.55L52.74-22.10L52.50-22.10ZM73.17 0L62.37 0L62.37-26.64L67.70-26.64L67.70-4.54L73.17-4.54L73.17 0ZM86.50 0L75.69 0L75.69-26.64L81.02-26.64L81.02-4.54L86.50-4.54L86.50 0ZM93.46 0L88.28 0L90.86-26.64L99.89-26.64L102.42 0L97.38 0L97.00-4.30L93.79-4.30L93.46 0ZM95.19-22.10L94.17-8.55L96.59-8.55L95.43-22.10L95.19-22.10ZM98.92-28.87L91.73-27.44L91.73-30.82L98.92-34.12L98.92-28.87ZM118.82 0.24L118.82 0.24Q113.11 0.24 113.11-7.93L113.11-7.93L113.11-19.42Q113.11-26.88 119.65-26.88L119.65-26.88Q122.34-26.88 123.78-25.80Q125.22-24.72 125.76-22.64Q126.31-20.57 126.31-17.59L126.31-17.59L121.10-17.59L121.10-19.95Q121.10-20.81 120.87-21.40Q120.63-21.98 119.89-21.98L119.89-21.98Q118.97-21.98 118.67-21.36Q118.38-20.74 118.38-20.00L118.38-20.00L118.38-7.08Q118.38-6.01 118.66-5.34Q118.94-4.66 119.75-4.66L119.75-4.66Q120.60-4.66 120.88-5.34Q121.16-6.01 121.16-7.11L121.16-7.11L121.16-10.91L119.74-10.91L119.74-15.52L126.25-15.52L126.25 0L124.11 0L123.21-2.24Q121.81 0.24 118.82 0.24ZM134.74 0L129.35 0L129.35-26.64L137.53-26.64Q139.57-26.64 140.61-25.71Q141.66-24.78 142.01-23.11Q142.37-21.43 142.37-19.18L142.37-19.18Q142.37-17.00 141.82-15.70Q141.26-14.40 139.74-13.90L139.74-13.90Q140.99-13.64 141.50-12.65Q142.01-11.66 142.01-10.08L142.01-10.08L142.01 0L136.75 0L136.75-10.43Q136.75-11.59 136.28-11.87Q135.80-12.15 134.74-12.15L134.74-12.15L134.74 0ZM134.77-21.71L134.77-16.77L136.06-16.77Q137.16-16.77 137.16-19.18L137.16-19.18Q137.16-20.74 136.92-21.22Q136.68-21.71 136.01-21.71L136.01-21.71L134.77-21.71ZM149.58 0L144.40 0L146.97-26.64L156.01-26.64L158.54 0L153.50 0L153.12-4.30L149.91-4.30L149.58 0ZM151.30-22.10L150.29-8.55L152.71-8.55L151.54-22.10L151.30-22.10ZM168.79 0L163.46 0L163.46-21.52L160.29-21.52L160.29-26.64L171.95-26.64L171.95-21.52L168.79-21.52L168.79 0ZM179.34 0L174.19 0L174.19-26.64L179.34-26.64L179.34 0ZM188.78 0.24L188.78 0.24Q185.13 0.24 183.52-1.57Q181.91-3.39 181.91-7.36L181.91-7.36L181.91-9.96L187.18-9.96L187.18-6.63Q187.18-5.71 187.46-5.18Q187.74-4.66 188.43-4.66L188.43-4.66Q189.16-4.66 189.44-5.09Q189.72-5.51 189.72-6.48L189.72-6.48Q189.72-7.70 189.48-8.53Q189.24-9.35 188.64-10.10Q188.04-10.85 186.98-11.85L186.98-11.85L184.59-14.12Q181.91-16.65 181.91-19.90L181.91-19.90Q181.91-23.31 183.49-25.10Q185.07-26.88 188.07-26.88L188.07-26.88Q191.73-26.88 193.27-24.93Q194.81-22.98 194.81-19.00L194.81-19.00L189.39-19.00L189.39-20.83Q189.39-21.37 189.08-21.68Q188.77-21.98 188.24-21.98L188.24-21.98Q187.60-21.98 187.31-21.62Q187.01-21.27 187.01-20.71L187.01-20.71Q187.01-20.15 187.31-19.50Q187.62-18.85 188.51-18.00L188.51-18.00L191.58-15.05Q192.51-14.17 193.28-13.19Q194.05-12.22 194.52-10.92Q194.99-9.63 194.99-7.77L194.99-7.77Q194.99-4.01 193.60-1.88Q192.22 0.24 188.78 0.24Z" fill="#08080b"/></g><path d="M243.63 -10.85 L262.23 0 L243.63 10.85 Z" fill="#08080b"/></g>
	</g>


	<circle cx="74" cy="578" r="6" fill="#e8192c"/>
	<g transform="translate(92 586)" opacity="1"><path d="M3.87 0L1.39 0L1.39-17.82L8.27-17.82L8.27-16.04L3.87-16.04L3.87-10.10L7.28-10.10L7.28-8.34L3.87-8.34L3.87 0ZM15.47 0L12.99 0L12.99-17.82L16.57-17.82Q18.36-17.82 19.52-17.35Q20.69-16.87 21.25-15.83Q21.81-14.78 21.81-13.09L21.81-13.09Q21.81-12.06 21.59-11.21Q21.37-10.36 20.89-9.78Q20.40-9.20 19.61-8.93L19.61-8.93L22.14 0L19.74 0L17.41-8.36L15.47-8.36L15.47 0ZM15.47-16.04L15.47-10.14L16.42-10.14Q17.48-10.14 18.14-10.41Q18.80-10.67 19.10-11.31Q19.41-11.95 19.41-13.09L19.41-13.09Q19.41-14.65 18.84-15.34Q18.27-16.04 16.57-16.04L16.57-16.04L15.47-16.04ZM34.36 0L27.41 0L27.41-17.82L34.31-17.82L34.31-15.97L29.89-15.97L29.89-10.08L33.48-10.08L33.48-8.32L29.89-8.32L29.89-1.78L34.36-1.78L34.36 0ZM46.31 0L39.36 0L39.36-17.82L46.27-17.82L46.27-15.97L41.85-15.97L41.85-10.08L45.43-10.08L45.43-8.32L41.85-8.32L41.85-1.78L46.31-1.78L46.31 0ZM55.52 0.20L55.52 0.20Q53.98 0.20 52.95-0.46Q51.93-1.12 51.40-2.29Q50.87-3.45 50.79-4.99L50.79-4.99L52.99-5.59Q53.05-4.64 53.28-3.76Q53.51-2.88 54.04-2.32Q54.57-1.76 55.52-1.76L55.52-1.76Q56.48-1.76 56.98-2.30Q57.47-2.84 57.47-3.85L57.47-3.85Q57.47-5.06 56.92-5.80Q56.37-6.53 55.54-7.28L55.54-7.28L52.55-9.92Q51.67-10.69 51.25-11.60Q50.83-12.52 50.83-13.86L50.83-13.86Q50.83-15.82 51.95-16.90Q53.07-17.97 55.01-17.97L55.01-17.97Q56.07-17.97 56.87-17.70Q57.67-17.42 58.21-16.85Q58.75-16.28 59.07-15.41Q59.39-14.54 59.50-13.38L59.50-13.38L57.39-12.80Q57.32-13.68 57.12-14.42Q56.92-15.16 56.43-15.61Q55.93-16.06 55.01-16.06L55.01-16.06Q54.09-16.06 53.57-15.56Q53.05-15.07 53.05-14.10L53.05-14.10Q53.05-13.29 53.33-12.76Q53.60-12.23 54.22-11.68L54.22-11.68L57.23-9.04Q58.24-8.16 59.01-6.94Q59.78-5.72 59.78-4.05L59.78-4.05Q59.78-2.73 59.23-1.77Q58.68-0.81 57.73-0.31Q56.77 0.20 55.52 0.20ZM69.16 0L66.68 0L66.68-15.97L63.66-15.97L63.66-17.82L72.09-17.82L72.09-15.97L69.16-15.97L69.16 0ZM81.91 0L79.53 0L79.53-6.29L75.68-17.82L77.99-17.82L80.72-9.22L83.41-17.82L85.74-17.82L81.91-6.29L81.91 0ZM97.43 0L90.39 0L90.39-17.82L92.87-17.82L92.87-1.78L97.43-1.78L97.43 0ZM109.07 0L102.12 0L102.12-17.82L109.03-17.82L109.03-15.97L104.61-15.97L104.61-10.08L108.19-10.08L108.19-8.32L104.61-8.32L104.61-1.78L109.07-1.78L109.07 0ZM126.67 0.20L126.67 0.20Q124.86 0.20 123.79-0.51Q122.71-1.21 122.25-2.52Q121.78-3.83 121.78-5.59L121.78-5.59L121.78-12.34Q121.78-14.10 122.26-15.37Q122.73-16.63 123.80-17.30Q124.86-17.97 126.67-17.97L126.67-17.97Q128.47-17.97 129.53-17.29Q130.58-16.61 131.06-15.36Q131.53-14.10 131.53-12.34L131.53-12.34L131.53-5.57Q131.53-3.83 131.06-2.53Q130.58-1.23 129.53-0.52Q128.47 0.20 126.67 0.20ZM126.67-1.76L126.67-1.76Q127.66-1.76 128.16-2.17Q128.67-2.57 128.85-3.31Q129.02-4.05 129.02-5.04L129.02-5.04L129.02-12.85Q129.02-13.84 128.85-14.55Q128.67-15.27 128.16-15.65Q127.66-16.04 126.67-16.04L126.67-16.04Q125.68-16.04 125.16-15.65Q124.64-15.27 124.47-14.55Q124.29-13.84 124.29-12.85L124.29-12.85L124.29-5.04Q124.29-4.05 124.47-3.31Q124.64-2.57 125.16-2.17Q125.68-1.76 126.67-1.76ZM139.08 0L136.97 0L136.97-17.82L138.67-17.82L143.73-5.98L143.73-17.82L145.79-17.82L145.79 0L144.21 0L139.08-12.17L139.08 0ZM158.63 0L151.59 0L151.59-17.82L154.07-17.82L154.07-1.78L158.63-1.78L158.63 0ZM165.90 0L163.45 0L163.45-17.82L165.90-17.82L165.90 0ZM173.89 0L171.78 0L171.78-17.82L173.47-17.82L178.53-5.98L178.53-17.82L180.60-17.82L180.60 0L179.02 0L173.89-12.17L173.89 0ZM193.35 0L186.39 0L186.39-17.82L193.30-17.82L193.30-15.97L188.88-15.97L188.88-10.08L192.47-10.08L192.47-8.32L188.88-8.32L188.88-1.78L193.35-1.78L193.35 0ZM208.17-7.08L205.79-7.08L205.79-9.50L208.17-9.50L208.17-7.08ZM225.50 0.20L225.50 0.20Q223.96 0.20 222.94-0.46Q221.91-1.12 221.38-2.29Q220.86-3.45 220.77-4.99L220.77-4.99L222.97-5.59Q223.03-4.64 223.27-3.76Q223.50-2.88 224.02-2.32Q224.55-1.76 225.50-1.76L225.50-1.76Q226.47-1.76 226.96-2.30Q227.46-2.84 227.46-3.85L227.46-3.85Q227.46-5.06 226.91-5.80Q226.36-6.53 225.52-7.28L225.52-7.28L222.53-9.92Q221.65-10.69 221.23-11.60Q220.81-12.52 220.81-13.86L220.81-13.86Q220.81-15.82 221.93-16.90Q223.06-17.97 224.99-17.97L224.99-17.97Q226.05-17.97 226.85-17.70Q227.65-17.42 228.19-16.85Q228.73-16.28 229.05-15.41Q229.37-14.54 229.48-13.38L229.48-13.38L227.37-12.80Q227.30-13.68 227.10-14.42Q226.91-15.16 226.41-15.61Q225.92-16.06 224.99-16.06L224.99-16.06Q224.07-16.06 223.55-15.56Q223.03-15.07 223.03-14.10L223.03-14.10Q223.03-13.29 223.31-12.76Q223.58-12.23 224.20-11.68L224.20-11.68L227.21-9.04Q228.23-8.16 229.00-6.94Q229.77-5.72 229.77-4.05L229.77-4.05Q229.77-2.73 229.22-1.77Q228.67-0.81 227.71-0.31Q226.75 0.20 225.50 0.20ZM237.28 0L234.83 0L234.83-17.82L237.28-17.82L237.28 0ZM245.27 0L243.16 0L243.16-17.82L244.85-17.82L249.91-5.98L249.91-17.82L251.98-17.82L251.98 0L250.40 0L245.27-12.17L245.27 0ZM269.88 0L265.81 0L265.81-17.82L269.68-17.82Q271.66-17.82 272.82-17.21Q273.97-16.61 274.47-15.40Q274.96-14.19 274.96-12.39L274.96-12.39L274.96-5.83Q274.96-3.94 274.47-2.64Q273.97-1.34 272.86-0.67Q271.75 0 269.88 0L269.88 0ZM268.30-15.97L268.30-1.78L269.71-1.78Q271.07-1.78 271.64-2.31Q272.21-2.84 272.34-3.85Q272.46-4.86 272.46-6.29L272.46-6.29L272.46-12.08Q272.46-13.46 272.28-14.32Q272.10-15.18 271.51-15.58Q270.92-15.97 269.64-15.97L269.64-15.97L268.30-15.97ZM287.36 0L280.41 0L280.41-17.82L287.31-17.82L287.31-15.97L282.89-15.97L282.89-10.08L286.48-10.08L286.48-8.32L282.89-8.32L282.89-1.78L287.36-1.78L287.36 0ZM296.56 0.20L296.56 0.20Q295.02 0.20 294.00-0.46Q292.98-1.12 292.45-2.29Q291.92-3.45 291.83-4.99L291.83-4.99L294.03-5.59Q294.10-4.64 294.33-3.76Q294.56-2.88 295.09-2.32Q295.62-1.76 296.56-1.76L296.56-1.76Q297.53-1.76 298.03-2.30Q298.52-2.84 298.52-3.85L298.52-3.85Q298.52-5.06 297.97-5.80Q297.42-6.53 296.58-7.28L296.58-7.28L293.59-9.92Q292.71-10.69 292.29-11.60Q291.88-12.52 291.88-13.86L291.88-13.86Q291.88-15.82 293.00-16.90Q294.12-17.97 296.06-17.97L296.06-17.97Q297.11-17.97 297.92-17.70Q298.72-17.42 299.26-16.85Q299.80-16.28 300.12-15.41Q300.43-14.54 300.54-13.38L300.54-13.38L298.43-12.80Q298.37-13.68 298.17-14.42Q297.97-15.16 297.48-15.61Q296.98-16.06 296.06-16.06L296.06-16.06Q295.13-16.06 294.62-15.56Q294.10-15.07 294.10-14.10L294.10-14.10Q294.10-13.29 294.37-12.76Q294.65-12.23 295.26-11.68L295.26-11.68L298.28-9.04Q299.29-8.16 300.06-6.94Q300.83-5.72 300.83-4.05L300.83-4.05Q300.83-2.73 300.28-1.77Q299.73-0.81 298.77-0.31Q297.82 0.20 296.56 0.20ZM310.23 0.20L310.23 0.20Q308.34 0.20 307.30-0.59Q306.25-1.39 305.84-2.73Q305.44-4.07 305.44-5.72L305.44-5.72L305.44-12.01Q305.44-13.82 305.84-15.16Q306.25-16.50 307.30-17.24Q308.34-17.97 310.23-17.97L310.23-17.97Q311.90-17.97 312.88-17.36Q313.86-16.74 314.29-15.60Q314.72-14.45 314.72-12.85L314.72-12.85L314.72-11.44L312.37-11.44L312.37-12.69Q312.37-13.68 312.27-14.44Q312.17-15.20 311.73-15.62Q311.29-16.04 310.25-16.04L310.25-16.04Q309.20-16.04 308.71-15.59Q308.23-15.14 308.09-14.31Q307.94-13.49 307.94-12.39L307.94-12.39L307.94-5.32Q307.94-3.98 308.16-3.20Q308.38-2.42 308.89-2.09Q309.40-1.76 310.25-1.76L310.25-1.76Q311.27-1.76 311.71-2.21Q312.15-2.66 312.26-3.45Q312.37-4.25 312.37-5.30L312.37-5.30L312.37-6.62L314.72-6.62L314.72-5.30Q314.72-3.67 314.32-2.43Q313.93-1.19 312.96-0.49Q311.99 0.20 310.23 0.20ZM321.46 0L319.13 0L322.91-17.82L325.31-17.82L329.12 0L326.76 0L325.95-4.49L322.32-4.49L321.46 0ZM324.12-14.30L322.65-6.27L325.62-6.27L324.12-14.30ZM336.41 0L333.92 0L333.92-17.82L337.51-17.82Q339.29-17.82 340.45-17.35Q341.62-16.87 342.18-15.83Q342.74-14.78 342.74-13.09L342.74-13.09Q342.74-12.06 342.52-11.21Q342.30-10.36 341.82-9.78Q341.33-9.20 340.54-8.93L340.54-8.93L343.07 0L340.67 0L338.34-8.36L336.41-8.36L336.41 0ZM336.41-16.04L336.41-10.14L337.35-10.14Q338.41-10.14 339.07-10.41Q339.73-10.67 340.04-11.31Q340.34-11.95 340.34-13.09L340.34-13.09Q340.34-14.65 339.77-15.34Q339.20-16.04 337.51-16.04L337.51-16.04L336.41-16.04ZM352.58 0.22L352.58 0.22Q350.91 0.22 349.91-0.49Q348.91-1.21 348.46-2.57Q348.01-3.94 348.01-5.85L348.01-5.85L348.01-11.81Q348.01-13.77 348.42-15.15Q348.82-16.52 349.87-17.25Q350.91-17.97 352.78-17.97L352.78-17.97Q354.45-17.97 355.48-17.41Q356.50-16.85 356.96-15.70Q357.42-14.54 357.42-12.78L357.42-12.78L357.42-12.12L355.09-12.12L355.09-12.67Q355.09-13.84 354.94-14.57Q354.78-15.31 354.31-15.67Q353.84-16.04 352.83-16.04L352.83-16.04Q351.73-16.04 351.23-15.53Q350.74-15.03 350.62-14.16Q350.49-13.29 350.49-12.19L350.49-12.19L350.49-5.59Q350.49-4.31 350.68-3.45Q350.87-2.60 351.40-2.18Q351.92-1.76 352.89-1.76L352.89-1.76Q353.86-1.76 354.39-2.22Q354.92-2.68 355.11-3.59Q355.31-4.49 355.31-5.83L355.31-5.83L355.31-7.06L353.05-7.06L353.05-8.82L357.56-8.82L357.56 0L355.99 0L355.75-2.05Q355.40-1.06 354.65-0.42Q353.90 0.22 352.58 0.22ZM364.47 0L362.14 0L365.92-17.82L368.32-17.82L372.13 0L369.77 0L368.96-4.49L365.33-4.49L364.47 0ZM367.13-14.30L365.66-6.27L368.63-6.27L367.13-14.30ZM381.13 0.20L381.13 0.20Q379.59 0.20 378.57-0.46Q377.55-1.12 377.02-2.29Q376.49-3.45 376.40-4.99L376.40-4.99L378.60-5.59Q378.67-4.64 378.90-3.76Q379.13-2.88 379.66-2.32Q380.19-1.76 381.13-1.76L381.13-1.76Q382.10-1.76 382.60-2.30Q383.09-2.84 383.09-3.85L383.09-3.85Q383.09-5.06 382.54-5.80Q381.99-6.53 381.16-7.28L381.16-7.28L378.16-9.92Q377.28-10.69 376.87-11.60Q376.45-12.52 376.45-13.86L376.45-13.86Q376.45-15.82 377.57-16.90Q378.69-17.97 380.63-17.97L380.63-17.97Q381.68-17.97 382.49-17.70Q383.29-17.42 383.83-16.85Q384.37-16.28 384.69-15.41Q385.01-14.54 385.12-13.38L385.12-13.38L383.00-12.80Q382.94-13.68 382.74-14.42Q382.54-15.16 382.05-15.61Q381.55-16.06 380.63-16.06L380.63-16.06Q379.70-16.06 379.19-15.56Q378.67-15.07 378.67-14.10L378.67-14.10Q378.67-13.29 378.95-12.76Q379.22-12.23 379.84-11.68L379.84-11.68L382.85-9.04Q383.86-8.16 384.63-6.94Q385.40-5.72 385.40-4.05L385.40-4.05Q385.40-2.73 384.85-1.77Q384.30-0.81 383.35-0.31Q382.39 0.20 381.13 0.20Z" fill="#a8a294"/></g>
	<g transform="translate(973.63 586)" opacity="1"><path d="M3.87 0L1.39 0L1.39-17.82L4.97-17.82Q6.75-17.82 7.92-17.35Q9.09-16.87 9.65-15.83Q10.21-14.78 10.21-13.09L10.21-13.09Q10.21-12.06 9.99-11.21Q9.77-10.36 9.28-9.78Q8.80-9.20 8.01-8.93L8.01-8.93L10.54 0L8.14 0L5.81-8.36L3.87-8.36L3.87 0ZM3.87-16.04L3.87-10.14L4.82-10.14Q5.87-10.14 6.53-10.41Q7.19-10.67 7.50-11.31Q7.81-11.95 7.81-13.09L7.81-13.09Q7.81-14.65 7.24-15.34Q6.67-16.04 4.97-16.04L4.97-16.04L3.87-16.04ZM17.17 0L14.84 0L18.62-17.82L21.02-17.82L24.82 0L22.47 0L21.66-4.49L18.03-4.49L17.17 0ZM19.83-14.30L18.36-6.27L21.33-6.27L19.83-14.30ZM32.11 0L29.63 0L29.63-17.82L34.05-17.82Q35.66-17.82 36.61-17.24Q37.57-16.65 38.01-15.55Q38.45-14.45 38.45-12.89L38.45-12.89Q38.45-11.48 37.95-10.45Q37.46-9.42 36.49-8.85Q35.52-8.29 34.07-8.29L34.07-8.29L32.11-8.29L32.11 0ZM32.11-16.04L32.11-10.08L33.26-10.08Q34.34-10.08 34.95-10.32Q35.57-10.56 35.83-11.16Q36.10-11.77 36.10-12.87L36.10-12.87Q36.10-14.15 35.91-14.83Q35.72-15.51 35.13-15.77Q34.53-16.04 33.28-16.04L33.28-16.04L32.11-16.04ZM50.14 0L43.19 0L43.19-17.82L50.10-17.82L50.10-15.97L45.67-15.97L45.67-10.08L49.26-10.08L49.26-8.32L45.67-8.32L45.67-1.78L50.14-1.78L50.14 0ZM56.51 0L54.17 0L57.96-17.82L60.36-17.82L64.16 0L61.81 0L60.99-4.49L57.36-4.49L56.51 0ZM59.17-14.30L57.69-6.27L60.66-6.27L59.17-14.30ZM71.45 0L68.97 0L68.97-17.82L72.55-17.82Q74.33-17.82 75.50-17.35Q76.67-16.87 77.23-15.83Q77.79-14.78 77.79-13.09L77.79-13.09Q77.79-12.06 77.57-11.21Q77.35-10.36 76.86-9.78Q76.38-9.20 75.59-8.93L75.59-8.93L78.12 0L75.72 0L73.39-8.36L71.45-8.36L71.45 0ZM71.45-16.04L71.45-10.14L72.40-10.14Q73.45-10.14 74.11-10.41Q74.77-10.67 75.08-11.31Q75.39-11.95 75.39-13.09L75.39-13.09Q75.39-14.65 74.82-15.34Q74.25-16.04 72.55-16.04L72.55-16.04L71.45-16.04ZM85.43 0L83.08 0L83.08-2.62L85.43-2.62L85.43 0ZM95.07 0.20L95.07 0.20Q93.27 0.20 92.19-0.51Q91.11-1.21 90.65-2.52Q90.19-3.83 90.19-5.59L90.19-5.59L90.19-12.34Q90.19-14.10 90.66-15.37Q91.14-16.63 92.20-17.30Q93.27-17.97 95.07-17.97L95.07-17.97Q96.88-17.97 97.93-17.29Q98.99-16.61 99.46-15.36Q99.94-14.10 99.94-12.34L99.94-12.34L99.94-5.57Q99.94-3.83 99.46-2.53Q98.99-1.23 97.93-0.52Q96.88 0.20 95.07 0.20ZM95.07-1.76L95.07-1.76Q96.06-1.76 96.57-2.17Q97.08-2.57 97.25-3.31Q97.43-4.05 97.43-5.04L97.43-5.04L97.43-12.85Q97.43-13.84 97.25-14.55Q97.08-15.27 96.57-15.65Q96.06-16.04 95.07-16.04L95.07-16.04Q94.08-16.04 93.57-15.65Q93.05-15.27 92.87-14.55Q92.70-13.84 92.70-12.85L92.70-12.85L92.70-5.04Q92.70-4.05 92.87-3.31Q93.05-2.57 93.57-2.17Q94.08-1.76 95.07-1.76ZM107.49 0L105.38 0L105.38-17.82L107.07-17.82L112.13-5.98L112.13-17.82L114.20-17.82L114.20 0L112.62 0L107.49-12.17L107.49 0ZM127.03 0L119.99 0L119.99-17.82L122.48-17.82L122.48-1.78L127.03-1.78L127.03 0ZM134.30 0L131.86 0L131.86-17.82L134.30-17.82L134.30 0ZM142.30 0L140.18 0L140.18-17.82L141.88-17.82L146.94-5.98L146.94-17.82L149.01-17.82L149.01 0L147.42 0L142.30-12.17L142.30 0ZM161.75 0L154.80 0L154.80-17.82L161.71-17.82L161.71-15.97L157.29-15.97L157.29-10.08L160.87-10.08L160.87-8.32L157.29-8.32L157.29-1.78L161.75-1.78L161.75 0Z" fill="#a8a294"/></g>
</svg>
