<svg xmlns="http://www.w3.org/2000/svg" width="1200" height="630" viewBox="0 0 1200 630" role="img" aria-label="Rapear Online">

	<defs>
		<linearGradient id="bg" x1="0" y1="0" x2="0.65" y2="1">
			<stop offset="0" stop-color="#0b0b10"/>
			<stop offset="0.5" stop-color="#121319"/>
			<stop offset="1" stop-color="#08080b"/>
		</linearGradient>
		<radialGradient id="topglow" cx="0.5" cy="0" r="0.8">
			<stop offset="0" stop-color="#e8192c" stop-opacity="0.28"/>
			<stop offset="1" stop-color="#e8192c" stop-opacity="0"/>
		</radialGradient>
		<linearGradient id="spotL" x1="0" y1="0" x2="0" y2="1">
			<stop offset="0" stop-color="#e8192c" stop-opacity="0.30"/>
			<stop offset="0.75" stop-color="#e8192c" stop-opacity="0"/>
		</linearGradient>
		<linearGradient id="spotR" x1="0" y1="0" x2="0" y2="1">
			<stop offset="0" stop-color="#f2ecdd" stop-opacity="0.14"/>
			<stop offset="0.75" stop-color="#f2ecdd" stop-opacity="0"/>
		</linearGradient>
		<pattern id="grid" width="44" height="44" patternUnits="userSpaceOnUse">
			<path d="M44 0H0v44" fill="none" stroke="#ffffff" stroke-opacity="0.04" stroke-width="1"/>
		</pattern>
	</defs>
	<rect width="1200" height="630" fill="url(#bg)"/>
	<rect width="1200" height="630" fill="url(#grid)"/>
	<rect width="1200" height="630" fill="url(#topglow)"/>
	<g transform="translate(250 -40) rotate(8)"><rect x="-110" y="0" width="220" height="750" fill="url(#spotL)" opacity="0.9"/></g>
	<g transform="translate(960 -40) rotate(-8)"><rect x="-130" y="0" width="260" height="750" fill="url(#spotR)" opacity="0.9"/></g>
	<g opacity="0.95"><circle cx="30" cy="656" r="26" fill="#040406"/><circle cx="75.6" cy="654.25" r="31.95" fill="#040406"/><circle cx="121.2" cy="652.52" r="24.47" fill="#040406"/><circle cx="166.8" cy="650.85" r="20.45" fill="#040406"/><circle cx="212.4" cy="649.26" r="28.96" fill="#040406"/><circle cx="258" cy="647.77" r="30.79" fill="#040406"/><circle cx="303.6" cy="646.42" r="21.8" fill="#040406"/><circle cx="349.2" cy="645.21" r="32.29" fill="#040406"/><circle cx="394.8" cy="644.18" r="41.15" fill="#040406"/><circle cx="440.4" cy="643.33" r="38.38" fill="#040406"/><circle cx="486" cy="642.69" r="30.23" fill="#040406"/><circle cx="531.6" cy="642.25" r="35.11" fill="#040406"/><circle cx="577.2" cy="642.03" r="42" fill="#040406"/><circle cx="622.8" cy="642.03" r="35.35" fill="#040406"/><circle cx="668.4" cy="642.25" r="30.17" fill="#040406"/><circle cx="714" cy="642.69" r="38.15" fill="#040406"/><circle cx="759.6" cy="643.33" r="41.28" fill="#040406"/><circle cx="805.2" cy="644.18" r="32.49" fill="#040406"/><circle cx="850.8" cy="645.21" r="31.63" fill="#040406"/><circle cx="896.4" cy="646.42" r="30.64" fill="#040406"/><circle cx="942" cy="647.77" r="29.17" fill="#040406"/><circle cx="987.6" cy="649.26" r="20.54" fill="#040406"/><circle cx="1033.2" cy="650.85" r="24.23" fill="#040406"/><circle cx="1078.8" cy="652.52" r="31.91" fill="#040406"/><circle cx="1124.4" cy="654.25" r="26.24" fill="#040406"/><circle cx="1170" cy="656" r="20.02" fill="#040406"/></g>
	<rect x="0" y="0" width="1200" height="6" fill="#e8192c"/>
	<rect x="0" y="624" width="1200" height="6" fill="#15151b"/>
	<rect x="0" y="624" width="408.00000000000006" height="6" fill="#e8192c"/>

<g transform="translate(66 104)" opacity="1"><path d="M4.93 0L1.76 0L1.76-22.68L7.39-22.68Q9.44-22.68 10.65-21.94Q11.87-21.20 12.43-19.80Q12.99-18.40 12.99-16.41L12.99-16.41Q12.99-14.62 12.36-13.30Q11.73-11.98 10.50-11.27Q9.27-10.56 7.42-10.56L7.42-10.56L4.93-10.56L4.93 0ZM4.93-20.41L4.93-12.82L6.38-12.82Q7.76-12.82 8.54-13.13Q9.32-13.44 9.66-14.21Q10.00-14.98 10.00-16.38L10.00-16.38Q10.00-18.00 9.76-18.87Q9.52-19.74 8.76-20.08Q8.01-20.41 6.41-20.41L6.41-20.41L4.93-20.41ZM32.05 0L23.20 0L23.20-22.68L32.00-22.68L32.00-20.33L26.37-20.33L26.37-12.82L30.93-12.82L30.93-10.58L26.37-10.58L26.37-2.27L32.05-2.27L32.05 0ZM45.76 0L42.60 0L42.60-22.68L47.16-22.68Q49.43-22.68 50.92-22.08Q52.40-21.48 53.11-20.15Q53.83-18.82 53.83-16.66L53.83-16.66Q53.83-15.34 53.55-14.27Q53.27-13.19 52.65-12.45Q52.04-11.70 51.03-11.37L51.03-11.37L54.25 0L51.20 0L48.23-10.64L45.76-10.64L45.76 0ZM45.76-20.41L45.76-12.91L46.97-12.91Q48.31-12.91 49.15-13.24Q49.99-13.58 50.38-14.39Q50.78-15.20 50.78-16.66L50.78-16.66Q50.78-18.65 50.05-19.53Q49.32-20.41 47.16-20.41L47.16-20.41L45.76-20.41ZM68.30 0L65.13 0L65.13-22.68L73.90-22.68L73.90-20.41L68.30-20.41L68.30-12.85L72.64-12.85L72.64-10.61L68.30-10.61L68.30 0ZM87.36 0L84.25 0L84.25-22.68L87.36-22.68L87.36 0ZM107.98 0L99.02 0L99.02-22.68L102.19-22.68L102.19-2.27L107.98-2.27L107.98 0ZM137.73 0L132.55 0L132.55-22.68L137.48-22.68Q140-22.68 141.47-21.91Q142.94-21.14 143.57-19.60Q144.20-18.06 144.20-15.76L144.20-15.76L144.20-7.42Q144.20-5.01 143.57-3.36Q142.94-1.71 141.53-0.85Q140.11 0 137.73 0L137.73 0ZM135.72-20.33L135.72-2.27L137.51-2.27Q139.24-2.27 139.97-2.94Q140.70-3.61 140.85-4.90Q141.01-6.19 141.01-8.01L141.01-8.01L141.01-15.37Q141.01-17.14 140.78-18.23Q140.56-19.32 139.80-19.82Q139.05-20.33 137.42-20.33L137.42-20.33L135.72-20.33ZM164.16 0L155.31 0L155.31-22.68L164.10-22.68L164.10-20.33L158.47-20.33L158.47-12.82L163.04-12.82L163.04-10.58L158.47-10.58L158.47-2.27L164.16-2.27L164.16 0ZM191.64 0L189.06 0L189.48-22.68L192.59-22.68L196.59-4.28L200.62-22.68L203.70-22.68L204.12 0L201.58 0L201.32-16.46L197.49 0L195.70 0L191.89-16.46L191.64 0ZM221.28 0.25L221.28 0.25Q218.87 0.25 217.54-0.76Q216.21-1.76 215.69-3.47Q215.18-5.18 215.18-7.28L215.18-7.28L215.18-15.29Q215.18-17.58 215.69-19.29Q216.21-21 217.54-21.94Q218.87-22.88 221.28-22.88L221.28-22.88Q223.41-22.88 224.65-22.09Q225.90-21.31 226.45-19.85Q226.99-18.40 226.99-16.35L226.99-16.35L226.99-14.56L224.00-14.56L224.00-16.16Q224.00-17.42 223.87-18.38Q223.74-19.35 223.18-19.88Q222.62-20.41 221.31-20.41L221.31-20.41Q219.96-20.41 219.35-19.84Q218.73-19.26 218.55-18.21Q218.37-17.16 218.37-15.76L218.37-15.76L218.37-6.78Q218.37-5.07 218.65-4.07Q218.93-3.08 219.57-2.66Q220.22-2.24 221.31-2.24L221.31-2.24Q222.60-2.24 223.16-2.81Q223.72-3.39 223.86-4.40Q224.00-5.40 224.00-6.75L224.00-6.75L224.00-8.43L226.99-8.43L226.99-6.75Q226.99-4.68 226.49-3.09Q225.98-1.51 224.75-0.63Q223.52 0.25 221.28 0.25Z" fill="#e8192c"/></g>
<g transform="translate(60 242) skewX(-3)" opacity="1"><path d="M27.07 0L5.33 0L5.33-120.31L41.97-120.31L52.09-46.96L62.14-120.31L99.12-120.31L99.12 0L77.11 0L77.11-86.68L63.30 0L41.70 0L27.07-86.68L27.07 0ZM137.81 1.09L137.81 1.09Q124.76 1.09 116.79-7.04Q108.83-15.18 108.83-29.80L108.83-29.80L108.83-85.31Q108.83-102.81 115.77-112.11Q122.71-121.41 138.36-121.41L138.36-121.41Q146.90-121.41 153.57-118.26Q160.23-115.12 164.06-108.86Q167.89-102.61 167.89-93.11L167.89-93.11L167.89-72.32L143.96-72.32L143.96-90.10Q143.96-95.50 142.60-97.38Q141.23-99.26 138.36-99.26L138.36-99.26Q135.01-99.26 133.85-96.83Q132.69-94.40 132.69-90.37L132.69-90.37L132.69-30.15Q132.69-25.16 134.16-23.11Q135.63-21.05 138.36-21.05L138.36-21.05Q141.44-21.05 142.70-23.58Q143.96-26.11 143.96-30.15L143.96-30.15L143.96-51.82L168.16-51.82L168.16-29.05Q168.16-13.19 160.17-6.05Q152.17 1.09 137.81 1.09Z" fill="#f2ecdd"/></g>
<g transform="translate(60 373.6) skewX(-3)" opacity="1"><path d="M33.91 1.09L33.91 1.09Q17.43 1.09 10.15-7.11Q2.87-15.31 2.87-33.22L2.87-33.22L2.87-44.98L26.66-44.98L26.66-29.94Q26.66-25.77 27.92-23.41Q29.19-21.05 32.33-21.05L32.33-21.05Q35.62-21.05 36.88-22.97Q38.14-24.88 38.14-29.26L38.14-29.26Q38.14-34.79 37.05-38.52Q35.96-42.25 33.26-45.63Q30.56-49.01 25.77-53.53L25.77-53.53L14.97-63.78Q2.87-75.20 2.87-89.89L2.87-89.89Q2.87-105.27 10.01-113.34Q17.16-121.41 30.69-121.41L30.69-121.41Q47.24-121.41 54.17-112.59Q61.11-103.77 61.11-85.79L61.11-85.79L36.64-85.79L36.64-94.06Q36.64-96.52 35.24-97.89Q33.84-99.26 31.45-99.26L31.45-99.26Q28.57-99.26 27.24-97.65Q25.91-96.04 25.91-93.52L25.91-93.52Q25.91-90.99 27.28-88.05Q28.64-85.11 32.68-81.28L32.68-81.28L46.55-67.95Q50.72-63.98 54.21-59.58Q57.70-55.17 59.81-49.32Q61.93-43.48 61.93-35.07L61.93-35.07Q61.93-18.12 55.68-8.51Q49.42 1.09 33.91 1.09ZM104.32 0L80.25 0L80.25-97.21L65.97-97.21L65.97-120.31L118.60-120.31L118.60-97.21L104.32-97.21L104.32 0ZM145.40 0L122.02 0L133.64-120.31L174.45-120.31L185.87 0L163.11 0L161.40-19.41L146.90-19.41L145.40 0ZM153.19-99.80L148.61-38.62L159.55-38.62L154.29-99.80L153.19-99.80ZM227.64 0L203.57 0L203.57-97.21L189.29-97.21L189.29-120.31L241.92-120.31L241.92-97.21L227.64-97.21L227.64 0ZM277.20 1.09L277.20 1.09Q260.72 1.09 253.44-7.11Q246.16-15.31 246.16-33.22L246.16-33.22L246.16-44.98L269.95-44.98L269.95-29.94Q269.95-25.77 271.22-23.41Q272.48-21.05 275.63-21.05L275.63-21.05Q278.91-21.05 280.17-22.97Q281.44-24.88 281.44-29.26L281.44-29.26Q281.44-34.79 280.34-38.52Q279.25-42.25 276.55-45.63Q273.85-49.01 269.06-53.53L269.06-53.53L258.26-63.78Q246.16-75.20 246.16-89.89L246.16-89.89Q246.16-105.27 253.31-113.34Q260.45-121.41 273.98-121.41L273.98-121.41Q290.53-121.41 297.47-112.59Q304.40-103.77 304.40-85.79L304.40-85.79L279.93-85.79L279.93-94.06Q279.93-96.52 278.53-97.89Q277.13-99.26 274.74-99.26L274.74-99.26Q271.87-99.26 270.53-97.65Q269.20-96.04 269.20-93.52L269.20-93.52Q269.20-90.99 270.57-88.05Q271.93-85.11 275.97-81.28L275.97-81.28L289.84-67.95Q294.01-63.98 297.50-59.58Q300.99-55.17 303.11-49.32Q305.22-43.48 305.22-35.07L305.22-35.07Q305.22-18.12 298.97-8.51Q292.71 1.09 277.20 1.09Z" fill="#e8192c"/></g>
<g transform="translate(66 436)" opacity="1"><path d="M10.23 0L1.70 0L1.70-21.87L10.18-21.87L10.18-19.60L4.75-19.60L4.75-12.37L9.15-12.37L9.15-10.21L4.75-10.21L4.75-2.19L10.23-2.19L10.23 0ZM24.33 0L15.69 0L15.69-21.87L18.74-21.87L18.74-2.19L24.33-2.19L24.33 0ZM35.00 0.24L35.00 0.24Q32.78 0.24 31.46-0.62Q30.14-1.48 29.57-3.09Q29.00-4.70 29.00-6.86L29.00-6.86L29.00-15.15Q29.00-17.31 29.58-18.86Q30.16-20.41 31.47-21.24Q32.78-22.06 35.00-22.06L35.00-22.06Q37.21-22.06 38.51-21.22Q39.80-20.38 40.38-18.85Q40.96-17.31 40.96-15.15L40.96-15.15L40.96-6.83Q40.96-4.70 40.38-3.10Q39.80-1.51 38.51-0.63Q37.21 0.24 35.00 0.24ZM35.00-2.16L35.00-2.16Q36.21-2.16 36.83-2.66Q37.45-3.16 37.67-4.06Q37.89-4.97 37.89-6.18L37.89-6.18L37.89-15.77Q37.89-16.98 37.67-17.86Q37.45-18.74 36.83-19.21Q36.21-19.68 35.00-19.68L35.00-19.68Q33.78-19.68 33.15-19.21Q32.51-18.74 32.30-17.86Q32.08-16.98 32.08-15.77L32.08-15.77L32.08-6.18Q32.08-4.97 32.30-4.06Q32.51-3.16 33.15-2.66Q33.78-2.16 35.00-2.16ZM58.33-8.69L55.42-8.69L55.42-11.66L58.33-11.66L58.33-8.69ZM78.91 0L73.08 0L73.08-21.87L78.10-21.87Q79.59-21.87 80.68-21.55Q81.77-21.22 82.50-20.55Q83.23-19.87 83.58-18.83Q83.93-17.79 83.93-16.39L83.93-16.39Q83.93-15.04 83.60-14.05Q83.26-13.07 82.57-12.50Q81.88-11.93 80.80-11.77L80.80-11.77Q82.12-11.47 82.93-10.76Q83.74-10.04 84.14-8.92Q84.53-7.80 84.53-6.24L84.53-6.24Q84.53-4.83 84.20-3.67Q83.88-2.51 83.19-1.70Q82.50-0.89 81.44-0.45Q80.37 0 78.91 0L78.91 0ZM76.13-10.42L76.13-2.19L78.18-2.19Q80.23-2.19 80.92-3.15Q81.61-4.10 81.61-6.24L81.61-6.24Q81.61-7.61 81.25-8.55Q80.88-9.48 80.09-9.95Q79.29-10.42 77.94-10.42L77.94-10.42L76.13-10.42ZM76.13-19.60L76.13-12.74L77.94-12.74Q79.24-12.74 79.96-13.11Q80.69-13.47 80.99-14.28Q81.29-15.09 81.29-16.39L81.29-16.39Q81.29-17.90 80.83-18.58Q80.37-19.25 79.40-19.43Q78.43-19.60 76.86-19.60L76.86-19.60L76.13-19.60ZM91.90 0L89.04 0L93.68-21.87L96.63-21.87L101.30 0L98.41 0L97.41-5.51L92.95-5.51L91.90 0ZM95.17-17.55L93.36-7.70L97.00-7.70L95.17-17.55ZM111.97 0L108.91 0L108.91-19.60L105.22-19.60L105.22-21.87L115.56-21.87L115.56-19.60L111.97-19.60L111.97 0ZM122.34 0L119.47 0L124.12-21.87L127.06-21.87L131.73 0L128.84 0L127.84-5.51L123.39-5.51L122.34 0ZM125.60-17.55L123.79-7.70L127.44-7.70L125.60-17.55ZM145.59 0L136.95 0L136.95-21.87L140.00-21.87L140.00-2.19L145.59-2.19L145.59 0ZM159.31 0L150.67 0L150.67-21.87L153.72-21.87L153.72-2.19L159.31-2.19L159.31 0ZM166.06 0L163.20 0L167.84-21.87L170.78-21.87L175.45 0L172.57 0L171.57-5.51L167.11-5.51L166.06 0ZM169.33-17.55L167.52-7.70L171.16-7.70L169.33-17.55ZM185.83 0.24L185.83 0.24Q183.94 0.24 182.68-0.57Q181.42-1.38 180.78-2.81Q180.13-4.24 180.02-6.13L180.02-6.13L182.72-6.86Q182.80-5.70 183.09-4.62Q183.37-3.54 184.02-2.85Q184.66-2.16 185.83-2.16L185.83-2.16Q187.01-2.16 187.62-2.82Q188.23-3.48 188.23-4.72L188.23-4.72Q188.23-6.21 187.55-7.11Q186.88-8.02 185.85-8.94L185.85-8.94L182.18-12.18Q181.10-13.12 180.59-14.24Q180.07-15.36 180.07-17.01L180.07-17.01Q180.07-19.41 181.45-20.74Q182.83-22.06 185.20-22.06L185.20-22.06Q186.50-22.06 187.49-21.72Q188.47-21.38 189.13-20.68Q189.79-19.98 190.19-18.91Q190.58-17.85 190.71-16.42L190.71-16.42L188.12-15.71Q188.04-16.79 187.80-17.70Q187.55-18.60 186.95-19.16Q186.34-19.71 185.20-19.71L185.20-19.71Q184.07-19.71 183.44-19.10Q182.80-18.50 182.80-17.31L182.80-17.31Q182.80-16.31 183.14-15.66Q183.48-15.01 184.23-14.34L184.23-14.34L187.93-11.10Q189.17-10.02 190.12-8.52Q191.06-7.02 191.06-4.97L191.06-4.97Q191.06-3.35 190.39-2.17Q189.71-1.00 188.54-0.38Q187.36 0.24 185.83 0.24ZM207.81-8.69L204.89-8.69L204.89-11.66L207.81-11.66L207.81-8.69ZM225.61 0L222.56 0L222.56-21.87L226.96-21.87Q229.15-21.87 230.58-21.29Q232.01-20.71 232.70-19.43Q233.38-18.14 233.38-16.07L233.38-16.07Q233.38-14.80 233.11-13.76Q232.84-12.72 232.25-12.00Q231.66-11.29 230.68-10.96L230.68-10.96L233.79 0L230.85 0L227.98-10.26L225.61-10.26L225.61 0ZM225.61-19.68L225.61-12.45L226.77-12.45Q228.07-12.45 228.88-12.77Q229.69-13.10 230.06-13.88Q230.44-14.66 230.44-16.07L230.44-16.07Q230.44-17.98 229.74-18.83Q229.04-19.68 226.96-19.68L226.96-19.68L225.61-19.68ZM241.24 0L238.38 0L243.03-21.87L245.97-21.87L250.64 0L247.75 0L246.75-5.51L242.30-5.51L241.24 0ZM244.51-17.55L242.70-7.70L246.35-7.70L244.51-17.55ZM261.34 0.24L261.34 0.24Q259.01 0.24 257.73-0.73Q256.45-1.70 255.95-3.35Q255.45-5.00 255.45-7.02L255.45-7.02L255.45-14.74Q255.45-16.96 255.95-18.60Q256.45-20.25 257.73-21.15Q259.01-22.06 261.34-22.06L261.34-22.06Q263.39-22.06 264.59-21.30Q265.79-20.55 266.32-19.14Q266.84-17.74 266.84-15.77L266.84-15.77L266.84-14.04L263.95-14.04L263.95-15.58Q263.95-16.79 263.83-17.73Q263.71-18.66 263.17-19.17Q262.63-19.68 261.36-19.68L261.36-19.68Q260.07-19.68 259.47-19.13Q258.88-18.58 258.70-17.56Q258.53-16.55 258.53-15.20L258.53-15.20L258.53-6.53Q258.53-4.89 258.80-3.93Q259.07-2.97 259.69-2.56Q260.31-2.16 261.36-2.16L261.36-2.16Q262.60-2.16 263.14-2.71Q263.68-3.27 263.82-4.24Q263.95-5.21 263.95-6.51L263.95-6.51L263.95-8.13L266.84-8.13L266.84-6.51Q266.84-4.51 266.36-2.98Q265.87-1.46 264.68-0.61Q263.50 0.24 261.34 0.24ZM275.81 0L272.76 0L272.76-21.87L275.81-21.87L275.81-12.42L281.43-12.42L281.43-21.87L284.48-21.87L284.48 0L281.43 0L281.43-10.23L275.81-10.23L275.81 0ZM292.58 0L289.72 0L294.36-21.87L297.31-21.87L301.98 0L299.09 0L298.09-5.51L293.63-5.51L292.58 0ZM295.85-17.55L294.04-7.70L297.68-7.70L295.85-17.55ZM318.56-8.69L315.64-8.69L315.64-11.66L318.56-11.66L318.56-8.69ZM338.47 0L336.14 0L332.58-21.87L335.12-21.87L337.47-6.16L340.41-21.79L342.57-21.79L345.54-6.08L347.83-21.87L350.32-21.87L346.81 0L344.59 0L341.54-16.20L338.47 0ZM359.15 0L356.15 0L356.15-21.87L359.15-21.87L359.15 0ZM368.28 0L365.69 0L365.69-21.87L367.77-21.87L373.98-7.34L373.98-21.87L376.51-21.87L376.51 0L374.57 0L368.28-14.93L368.28 0ZM395.18 0L392.13 0L392.13-21.87L396.53-21.87Q398.71-21.87 400.15-21.29Q401.58-20.71 402.27-19.43Q402.95-18.14 402.95-16.07L402.95-16.07Q402.95-14.80 402.68-13.76Q402.41-12.72 401.82-12.00Q401.23-11.29 400.25-10.96L400.25-10.96L403.36 0L400.42 0L397.55-10.26L395.18-10.26L395.18 0ZM395.18-19.68L395.18-12.45L396.34-12.45Q397.63-12.45 398.44-12.77Q399.25-13.10 399.63-13.88Q400.01-14.66 400.01-16.07L400.01-16.07Q400.01-17.98 399.31-18.83Q398.61-19.68 396.53-19.68L396.53-19.68L395.18-19.68ZM410.81 0L407.95 0L412.60-21.87L415.54-21.87L420.21 0L417.32 0L416.32-5.51L411.87-5.51L410.81 0ZM414.08-17.55L412.27-7.70L415.92-7.70L414.08-17.55ZM430.88 0L427.83 0L427.83-19.60L424.13-19.60L424.13-21.87L434.47-21.87L434.47-19.60L430.88-19.60L430.88 0ZM448.11 0L439.57 0L439.57-21.87L448.05-21.87L448.05-19.60L442.63-19.60L442.63-12.37L447.03-12.37L447.03-10.21L442.63-10.21L442.63-2.19L448.11-2.19L448.11 0Z" fill="#f2ecdd"/></g>
<g transform="translate(64 505) skewX(-6)">
		<rect x="9" y="-21.22" width="270.3" height="60.45" fill="#7e0d19" opacity="0.5"/>
		<rect x="0" y="-30.22" width="270.3" height="60.45" fill="#e8192c"/>
		<g transform="skewX(6)"><g transform="translate(31 10.54)" opacity="1"><path d="M10.90 0L3.63 0L0.35-26.66L5.42-26.66L7.37-8.52L9.11-26.66L14.18-26.66L10.90 0ZM27.73 0L16.73 0L16.73-26.64L27.38-26.64L27.38-21.49L22.15-21.49L22.15-16.30L27.17-16.30L27.17-11.29L22.15-11.29L22.15-5.19L27.73-5.19L27.73 0ZM35.88 0L30.49 0L30.49-26.64L38.66-26.64Q40.70-26.64 41.75-25.71Q42.79-24.78 43.15-23.11Q43.50-21.43 43.50-19.18L43.50-19.18Q43.50-17.00 42.95-15.70Q42.40-14.40 40.87-13.90L40.87-13.90Q42.13-13.64 42.63-12.65Q43.14-11.66 43.14-10.08L43.14-10.08L43.14 0L37.89 0L37.89-10.43Q37.89-11.59 37.41-11.87Q36.94-12.15 35.88-12.15L35.88-12.15L35.88 0ZM35.91-21.71L35.91-16.77L37.19-16.77Q38.30-16.77 38.30-19.18L38.30-19.18Q38.30-20.74 38.06-21.22Q37.81-21.71 37.15-21.71L37.15-21.71L35.91-21.71ZM59.34 0L54.53 0L54.53-26.64L62.64-26.64L64.88-10.40L67.10-26.64L75.29-26.64L75.29 0L70.42 0L70.42-19.19L67.36 0L62.58 0L59.34-19.19L59.34 0ZM83.56 0L78.41 0L78.41-26.64L83.56-26.64L83.56 0ZM100.18 0L94.94 0L94.94-26.64L101.98-26.64Q104.19-26.64 105.49-25.66Q106.78-24.67 107.34-22.86Q107.90-21.04 107.90-18.53L107.90-18.53Q107.90-16.11 107.43-14.31Q106.96-12.52 105.76-11.53Q104.56-10.55 102.35-10.55L102.35-10.55L100.18-10.55L100.18 0ZM100.18-21.78L100.18-15.33L100.48-15.33Q101.97-15.33 102.30-16.17Q102.63-17.00 102.63-18.62L102.63-18.62Q102.63-20.13 102.31-20.96Q101.98-21.78 100.77-21.78L100.77-21.78L100.18-21.78ZM121.59 0L110.58 0L110.58-26.64L121.24-26.64L121.24-21.49L116.00-21.49L116.00-16.30L121.03-16.30L121.03-11.29L116.00-11.29L116.00-5.19L121.59-5.19L121.59 0ZM129.73 0L124.34 0L124.34-26.64L132.52-26.64Q134.56-26.64 135.60-25.71Q136.65-24.78 137.00-23.11Q137.36-21.43 137.36-19.18L137.36-19.18Q137.36-17.00 136.81-15.70Q136.25-14.40 134.73-13.90L134.73-13.90Q135.98-13.64 136.49-12.65Q137.00-11.66 137.00-10.08L137.00-10.08L137.00 0L131.74 0L131.74-10.43Q131.74-11.59 131.27-11.87Q130.79-12.15 129.73-12.15L129.73-12.15L129.73 0ZM129.76-21.71L129.76-16.77L131.05-16.77Q132.15-16.77 132.15-19.18L132.15-19.18Q132.15-20.74 131.91-21.22Q131.67-21.71 131.00-21.71L131.00-21.71L129.76-21.71ZM145.47 0L140.12 0L140.12-26.64L150.77-26.64L150.77-21.45L145.47-21.45L145.47-17.21L150.50-17.21L150.50-12.08L145.47-12.08L145.47 0ZM158.39 0L153.24 0L153.24-26.64L158.39-26.64L158.39 0ZM172.31 0L161.51 0L161.51-26.64L166.83-26.64L166.83-4.54L172.31-4.54L172.31 0Z" fill="#08080b"/></g><path d="M220.7 -10.85 L239.3 0 L220.7 10.85 Z" fill="#08080b"/></g>
	</g>
<g>
		<circle cx="1020" cy="280" r="120" fill="#0e0e13" stroke="#e8192c" stroke-width="6"/>
		<circle cx="1020" cy="246" r="44" fill="#f2ecdd"/>
		<path d="M942 380c20-66 136-66 156 0z" fill="#f2ecdd"/>
	</g>

	<circle cx="74" cy="578" r="6" fill="#e8192c"/>
	<g transform="translate(92 586)" opacity="1"><path d="M3.87 0L1.39 0L1.39-17.82L8.27-17.82L8.27-16.04L3.87-16.04L3.87-10.10L7.28-10.10L7.28-8.34L3.87-8.34L3.87 0ZM15.47 0L12.99 0L12.99-17.82L16.57-17.82Q18.36-17.82 19.52-17.35Q20.69-16.87 21.25-15.83Q21.81-14.78 21.81-13.09L21.81-13.09Q21.81-12.06 21.59-11.21Q21.37-10.36 20.89-9.78Q20.40-9.20 19.61-8.93L19.61-8.93L22.14 0L19.74 0L17.41-8.36L15.47-8.36L15.47 0ZM15.47-16.04L15.47-10.14L16.42-10.14Q17.48-10.14 18.14-10.41Q18.80-10.67 19.10-11.31Q19.41-11.95 19.41-13.09L19.41-13.09Q19.41-14.65 18.84-15.34Q18.27-16.04 16.57-16.04L16.57-16.04L15.47-16.04ZM34.36 0L27.41 0L27.41-17.82L34.31-17.82L34.31-15.97L29.89-15.97L29.89-10.08L33.48-10.08L33.48-8.32L29.89-8.32L29.89-1.78L34.36-1.78L34.36 0ZM46.31 0L39.36 0L39.36-17.82L46.27-17.82L46.27-15.97L41.85-15.97L41.85-10.08L45.43-10.08L45.43-8.32L41.85-8.32L41.85-1.78L46.31-1.78L46.31 0ZM55.52 0.20L55.52 0.20Q53.98 0.20 52.95-0.46Q51.93-1.12 51.40-2.29Q50.87-3.45 50.79-4.99L50.79-4.99L52.99-5.59Q53.05-4.64 53.28-3.76Q53.51-2.88 54.04-2.32Q54.57-1.76 55.52-1.76L55.52-1.76Q56.48-1.76 56.98-2.30Q57.47-2.84 57.47-3.85L57.47-3.85Q57.47-5.06 56.92-5.80Q56.37-6.53 55.54-7.28L55.54-7.28L52.55-9.92Q51.67-10.69 51.25-11.60Q50.83-12.52 50.83-13.86L50.83-13.86Q50.83-15.82 51.95-16.90Q53.07-17.97 55.01-17.97L55.01-17.97Q56.07-17.97 56.87-17.70Q57.67-17.42 58.21-16.85Q58.75-16.28 59.07-15.41Q59.39-14.54 59.50-13.38L59.50-13.38L57.39-12.80Q57.32-13.68 57.12-14.42Q56.92-15.16 56.43-15.61Q55.93-16.06 55.01-16.06L55.01-16.06Q54.09-16.06 53.57-15.56Q53.05-15.07 53.05-14.10L53.05-14.10Q53.05-13.29 53.33-12.76Q53.60-12.23 54.22-11.68L54.22-11.68L57.23-9.04Q58.24-8.16 59.01-6.94Q59.78-5.72 59.78-4.05L59.78-4.05Q59.78-2.73 59.23-1.77Q58.68-0.81 57.73-0.31Q56.77 0.20 55.52 0.20ZM69.16 0L66.68 0L66.68-15.97L63.66-15.97L63.66-17.82L72.09-17.82L72.09-15.97L69.16-15.97L69.16 0ZM81.91 0L79.53 0L79.53-6.29L75.68-17.82L77.99-17.82L80.72-9.22L83.41-17.82L85.74-17.82L81.91-6.29L81.91 0ZM97.43 0L90.39 0L90.39-17.82L92.87-17.82L92.87-1.78L97.43-1.78L97.43 0ZM109.07 0L102.12 0L102.12-17.82L109.03-17.82L109.03-15.97L104.61-15.97L104.61-10.08L108.19-10.08L108.19-8.32L104.61-8.32L104.61-1.78L109.07-1.78L109.07 0ZM126.67 0.20L126.67 0.20Q124.86 0.20 123.79-0.51Q122.71-1.21 122.25-2.52Q121.78-3.83 121.78-5.59L121.78-5.59L121.78-12.34Q121.78-14.10 122.26-15.37Q122.73-16.63 123.80-17.30Q124.86-17.97 126.67-17.97L126.67-17.97Q128.47-17.97 129.53-17.29Q130.58-16.61 131.06-15.36Q131.53-14.10 131.53-12.34L131.53-12.34L131.53-5.57Q131.53-3.83 131.06-2.53Q130.58-1.23 129.53-0.52Q128.47 0.20 126.67 0.20ZM126.67-1.76L126.67-1.76Q127.66-1.76 128.16-2.17Q128.67-2.57 128.85-3.31Q129.02-4.05 129.02-5.04L129.02-5.04L129.02-12.85Q129.02-13.84 128.85-14.55Q128.67-15.27 128.16-15.65Q127.66-16.04 126.67-16.04L126.67-16.04Q125.68-16.04 125.16-15.65Q124.64-15.27 124.47-14.55Q124.29-13.84 124.29-12.85L124.29-12.85L124.29-5.04Q124.29-4.05 124.47-3.31Q124.64-2.57 125.16-2.17Q125.68-1.76 126.67-1.76ZM139.08 0L136.97 0L136.97-17.82L138.67-17.82L143.73-5.98L143.73-17.82L145.79-17.82L145.79 0L144.21 0L139.08-12.17L139.08 0ZM158.63 0L151.59 0L151.59-17.82L154.07-17.82L154.07-1.78L158.63-1.78L158.63 0ZM165.90 0L163.45 0L163.45-17.82L165.90-17.82L165.90 0ZM173.89 0L171.78 0L171.78-17.82L173.47-17.82L178.53-5.98L178.53-17.82L180.60-17.82L180.60 0L179.02 0L173.89-12.17L173.89 0ZM193.35 0L186.39 0L186.39-17.82L193.30-17.82L193.30-15.97L188.88-15.97L188.88-10.08L192.47-10.08L192.47-8.32L188.88-8.32L188.88-1.78L193.35-1.78L193.35 0ZM208.17-7.08L205.79-7.08L205.79-9.50L208.17-9.50L208.17-7.08ZM225.50 0.20L225.50 0.20Q223.96 0.20 222.94-0.46Q221.91-1.12 221.38-2.29Q220.86-3.45 220.77-4.99L220.77-4.99L222.97-5.59Q223.03-4.64 223.27-3.76Q223.50-2.88 224.02-2.32Q224.55-1.76 225.50-1.76L225.50-1.76Q226.47-1.76 226.96-2.30Q227.46-2.84 227.46-3.85L227.46-3.85Q227.46-5.06 226.91-5.80Q226.36-6.53 225.52-7.28L225.52-7.28L222.53-9.92Q221.65-10.69 221.23-11.60Q220.81-12.52 220.81-13.86L220.81-13.86Q220.81-15.82 221.93-16.90Q223.06-17.97 224.99-17.97L224.99-17.97Q226.05-17.97 226.85-17.70Q227.65-17.42 228.19-16.85Q228.73-16.28 229.05-15.41Q229.37-14.54 229.48-13.38L229.48-13.38L227.37-12.80Q227.30-13.68 227.10-14.42Q226.91-15.16 226.41-15.61Q225.92-16.06 224.99-16.06L224.99-16.06Q224.07-16.06 223.55-15.56Q223.03-15.07 223.03-14.10L223.03-14.10Q223.03-13.29 223.31-12.76Q223.58-12.23 224.20-11.68L224.20-11.68L227.21-9.04Q228.23-8.16 229.00-6.94Q229.77-5.72 229.77-4.05L229.77-4.05Q229.77-2.73 229.22-1.77Q228.67-0.81 227.71-0.31Q226.75 0.20 225.50 0.20ZM237.28 0L234.83 0L234.83-17.82L237.28-17.82L237.28 0ZM245.27 0L243.16 0L243.16-17.82L244.85-17.82L249.91-5.98L249.91-17.82L251.98-17.82L251.98 0L250.40 0L245.27-12.17L245.27 0ZM269.88 0L265.81 0L265.81-17.82L269.68-17.82Q271.66-17.82 272.82-17.21Q273.97-16.61 274.47-15.40Q274.96-14.19 274.96-12.39L274.96-12.39L274.96-5.83Q274.96-3.94 274.47-2.64Q273.97-1.34 272.86-0.67Q271.75 0 269.88 0L269.88 0ZM268.30-15.97L268.30-1.78L269.71-1.78Q271.07-1.78 271.64-2.31Q272.21-2.84 272.34-3.85Q272.46-4.86 272.46-6.29L272.46-6.29L272.46-12.08Q272.46-13.46 272.28-14.32Q272.10-15.18 271.51-15.58Q270.92-15.97 269.64-15.97L269.64-15.97L268.30-15.97ZM287.36 0L280.41 0L280.41-17.82L287.31-17.82L287.31-15.97L282.89-15.97L282.89-10.08L286.48-10.08L286.48-8.32L282.89-8.32L282.89-1.78L287.36-1.78L287.36 0ZM296.56 0.20L296.56 0.20Q295.02 0.20 294.00-0.46Q292.98-1.12 292.45-2.29Q291.92-3.45 291.83-4.99L291.83-4.99L294.03-5.59Q294.10-4.64 294.33-3.76Q294.56-2.88 295.09-2.32Q295.62-1.76 296.56-1.76L296.56-1.76Q297.53-1.76 298.03-2.30Q298.52-2.84 298.52-3.85L298.52-3.85Q298.52-5.06 297.97-5.80Q297.42-6.53 296.58-7.28L296.58-7.28L293.59-9.92Q292.71-10.69 292.29-11.60Q291.88-12.52 291.88-13.86L291.88-13.86Q291.88-15.82 293.00-16.90Q294.12-17.97 296.06-17.97L296.06-17.97Q297.11-17.97 297.92-17.70Q298.72-17.42 299.26-16.85Q299.80-16.28 300.12-15.41Q300.43-14.54 300.54-13.38L300.54-13.38L298.43-12.80Q298.37-13.68 298.17-14.42Q297.97-15.16 297.48-15.61Q296.98-16.06 296.06-16.06L296.06-16.06Q295.13-16.06 294.62-15.56Q294.10-15.07 294.10-14.10L294.10-14.10Q294.10-13.29 294.37-12.76Q294.65-12.23 295.26-11.68L295.26-11.68L298.28-9.04Q299.29-8.16 300.06-6.94Q300.83-5.72 300.83-4.05L300.83-4.05Q300.83-2.73 300.28-1.77Q299.73-0.81 298.77-0.31Q297.82 0.20 296.56 0.20ZM310.23 0.20L310.23 0.20Q308.34 0.20 307.30-0.59Q306.25-1.39 305.84-2.73Q305.44-4.07 305.44-5.72L305.44-5.72L305.44-12.01Q305.44-13.82 305.84-15.16Q306.25-16.50 307.30-17.24Q308.34-17.97 310.23-17.97L310.23-17.97Q311.90-17.97 312.88-17.36Q313.86-16.74 314.29-15.60Q314.72-14.45 314.72-12.85L314.72-12.85L314.72-11.44L312.37-11.44L312.37-12.69Q312.37-13.68 312.27-14.44Q312.17-15.20 311.73-15.62Q311.29-16.04 310.25-16.04L310.25-16.04Q309.20-16.04 308.71-15.59Q308.23-15.14 308.09-14.31Q307.94-13.49 307.94-12.39L307.94-12.39L307.94-5.32Q307.94-3.98 308.16-3.20Q308.38-2.42 308.89-2.09Q309.40-1.76 310.25-1.76L310.25-1.76Q311.27-1.76 311.71-2.21Q312.15-2.66 312.26-3.45Q312.37-4.25 312.37-5.30L312.37-5.30L312.37-6.62L314.72-6.62L314.72-5.30Q314.72-3.67 314.32-2.43Q313.93-1.19 312.96-0.49Q311.99 0.20 310.23 0.20ZM321.46 0L319.13 0L322.91-17.82L325.31-17.82L329.12 0L326.76 0L325.95-4.49L322.32-4.49L321.46 0ZM324.12-14.30L322.65-6.27L325.62-6.27L324.12-14.30ZM336.41 0L333.92 0L333.92-17.82L337.51-17.82Q339.29-17.82 340.45-17.35Q341.62-16.87 342.18-15.83Q342.74-14.78 342.74-13.09L342.74-13.09Q342.74-12.06 342.52-11.21Q342.30-10.36 341.82-9.78Q341.33-9.20 340.54-8.93L340.54-8.93L343.07 0L340.67 0L338.34-8.36L336.41-8.36L336.41 0ZM336.41-16.04L336.41-10.14L337.35-10.14Q338.41-10.14 339.07-10.41Q339.73-10.67 340.04-11.31Q340.34-11.95 340.34-13.09L340.34-13.09Q340.34-14.65 339.77-15.34Q339.20-16.04 337.51-16.04L337.51-16.04L336.41-16.04ZM352.58 0.22L352.58 0.22Q350.91 0.22 349.91-0.49Q348.91-1.21 348.46-2.57Q348.01-3.94 348.01-5.85L348.01-5.85L348.01-11.81Q348.01-13.77 348.42-15.15Q348.82-16.52 349.87-17.25Q350.91-17.97 352.78-17.97L352.78-17.97Q354.45-17.97 355.48-17.41Q356.50-16.85 356.96-15.70Q357.42-14.54 357.42-12.78L357.42-12.78L357.42-12.12L355.09-12.12L355.09-12.67Q355.09-13.84 354.94-14.57Q354.78-15.31 354.31-15.67Q353.84-16.04 352.83-16.04L352.83-16.04Q351.73-16.04 351.23-15.53Q350.74-15.03 350.62-14.16Q350.49-13.29 350.49-12.19L350.49-12.19L350.49-5.59Q350.49-4.31 350.68-3.45Q350.87-2.60 351.40-2.18Q351.92-1.76 352.89-1.76L352.89-1.76Q353.86-1.76 354.39-2.22Q354.92-2.68 355.11-3.59Q355.31-4.49 355.31-5.83L355.31-5.83L355.31-7.06L353.05-7.06L353.05-8.82L357.56-8.82L357.56 0L355.99 0L355.75-2.05Q355.40-1.06 354.65-0.42Q353.90 0.22 352.58 0.22ZM364.47 0L362.14 0L365.92-17.82L368.32-17.82L372.13 0L369.77 0L368.96-4.49L365.33-4.49L364.47 0ZM367.13-14.30L365.66-6.27L368.63-6.27L367.13-14.30ZM381.13 0.20L381.13 0.20Q379.59 0.20 378.57-0.46Q377.55-1.12 377.02-2.29Q376.49-3.45 376.40-4.99L376.40-4.99L378.60-5.59Q378.67-4.64 378.90-3.76Q379.13-2.88 379.66-2.32Q380.19-1.76 381.13-1.76L381.13-1.76Q382.10-1.76 382.60-2.30Q383.09-2.84 383.09-3.85L383.09-3.85Q383.09-5.06 382.54-5.80Q381.99-6.53 381.16-7.28L381.16-7.28L378.16-9.92Q377.28-10.69 376.87-11.60Q376.45-12.52 376.45-13.86L376.45-13.86Q376.45-15.82 377.57-16.90Q378.69-17.97 380.63-17.97L380.63-17.97Q381.68-17.97 382.49-17.70Q383.29-17.42 383.83-16.85Q384.37-16.28 384.69-15.41Q385.01-14.54 385.12-13.38L385.12-13.38L383.00-12.80Q382.94-13.68 382.74-14.42Q382.54-15.16 382.05-15.61Q381.55-16.06 380.63-16.06L380.63-16.06Q379.70-16.06 379.19-15.56Q378.67-15.07 378.67-14.10L378.67-14.10Q378.67-13.29 378.95-12.76Q379.22-12.23 379.84-11.68L379.84-11.68L382.85-9.04Q383.86-8.16 384.63-6.94Q385.40-5.72 385.40-4.05L385.40-4.05Q385.40-2.73 384.85-1.77Q384.30-0.81 383.35-0.31Q382.39 0.20 381.13 0.20Z" fill="#a8a294"/></g>
	<g transform="translate(973.63 586)" opacity="1"><path d="M3.87 0L1.39 0L1.39-17.82L4.97-17.82Q6.75-17.82 7.92-17.35Q9.09-16.87 9.65-15.83Q10.21-14.78 10.21-13.09L10.21-13.09Q10.21-12.06 9.99-11.21Q9.77-10.36 9.28-9.78Q8.80-9.20 8.01-8.93L8.01-8.93L10.54 0L8.14 0L5.81-8.36L3.87-8.36L3.87 0ZM3.87-16.04L3.87-10.14L4.82-10.14Q5.87-10.14 6.53-10.41Q7.19-10.67 7.50-11.31Q7.81-11.95 7.81-13.09L7.81-13.09Q7.81-14.65 7.24-15.34Q6.67-16.04 4.97-16.04L4.97-16.04L3.87-16.04ZM17.17 0L14.84 0L18.62-17.82L21.02-17.82L24.82 0L22.47 0L21.66-4.49L18.03-4.49L17.17 0ZM19.83-14.30L18.36-6.27L21.33-6.27L19.83-14.30ZM32.11 0L29.63 0L29.63-17.82L34.05-17.82Q35.66-17.82 36.61-17.24Q37.57-16.65 38.01-15.55Q38.45-14.45 38.45-12.89L38.45-12.89Q38.45-11.48 37.95-10.45Q37.46-9.42 36.49-8.85Q35.52-8.29 34.07-8.29L34.07-8.29L32.11-8.29L32.11 0ZM32.11-16.04L32.11-10.08L33.26-10.08Q34.34-10.08 34.95-10.32Q35.57-10.56 35.83-11.16Q36.10-11.77 36.10-12.87L36.10-12.87Q36.10-14.15 35.91-14.83Q35.72-15.51 35.13-15.77Q34.53-16.04 33.28-16.04L33.28-16.04L32.11-16.04ZM50.14 0L43.19 0L43.19-17.82L50.10-17.82L50.10-15.97L45.67-15.97L45.67-10.08L49.26-10.08L49.26-8.32L45.67-8.32L45.67-1.78L50.14-1.78L50.14 0ZM56.51 0L54.17 0L57.96-17.82L60.36-17.82L64.16 0L61.81 0L60.99-4.49L57.36-4.49L56.51 0ZM59.17-14.30L57.69-6.27L60.66-6.27L59.17-14.30ZM71.45 0L68.97 0L68.97-17.82L72.55-17.82Q74.33-17.82 75.50-17.35Q76.67-16.87 77.23-15.83Q77.79-14.78 77.79-13.09L77.79-13.09Q77.79-12.06 77.57-11.21Q77.35-10.36 76.86-9.78Q76.38-9.20 75.59-8.93L75.59-8.93L78.12 0L75.72 0L73.39-8.36L71.45-8.36L71.45 0ZM71.45-16.04L71.45-10.14L72.40-10.14Q73.45-10.14 74.11-10.41Q74.77-10.67 75.08-11.31Q75.39-11.95 75.39-13.09L75.39-13.09Q75.39-14.65 74.82-15.34Q74.25-16.04 72.55-16.04L72.55-16.04L71.45-16.04ZM85.43 0L83.08 0L83.08-2.62L85.43-2.62L85.43 0ZM95.07 0.20L95.07 0.20Q93.27 0.20 92.19-0.51Q91.11-1.21 90.65-2.52Q90.19-3.83 90.19-5.59L90.19-5.59L90.19-12.34Q90.19-14.10 90.66-15.37Q91.14-16.63 92.20-17.30Q93.27-17.97 95.07-17.97L95.07-17.97Q96.88-17.97 97.93-17.29Q98.99-16.61 99.46-15.36Q99.94-14.10 99.94-12.34L99.94-12.34L99.94-5.57Q99.94-3.83 99.46-2.53Q98.99-1.23 97.93-0.52Q96.88 0.20 95.07 0.20ZM95.07-1.76L95.07-1.76Q96.06-1.76 96.57-2.17Q97.08-2.57 97.25-3.31Q97.43-4.05 97.43-5.04L97.43-5.04L97.43-12.85Q97.43-13.84 97.25-14.55Q97.08-15.27 96.57-15.65Q96.06-16.04 95.07-16.04L95.07-16.04Q94.08-16.04 93.57-15.65Q93.05-15.27 92.87-14.55Q92.70-13.84 92.70-12.85L92.70-12.85L92.70-5.04Q92.70-4.05 92.87-3.31Q93.05-2.57 93.57-2.17Q94.08-1.76 95.07-1.76ZM107.49 0L105.38 0L105.38-17.82L107.07-17.82L112.13-5.98L112.13-17.82L114.20-17.82L114.20 0L112.62 0L107.49-12.17L107.49 0ZM127.03 0L119.99 0L119.99-17.82L122.48-17.82L122.48-1.78L127.03-1.78L127.03 0ZM134.30 0L131.86 0L131.86-17.82L134.30-17.82L134.30 0ZM142.30 0L140.18 0L140.18-17.82L141.88-17.82L146.94-5.98L146.94-17.82L149.01-17.82L149.01 0L147.42 0L142.30-12.17L142.30 0ZM161.75 0L154.80 0L154.80-17.82L161.71-17.82L161.71-15.97L157.29-15.97L157.29-10.08L160.87-10.08L160.87-8.32L157.29-8.32L157.29-1.78L161.75-1.78L161.75 0Z" fill="#a8a294"/></g>
</svg>
