<svg xmlns="http://www.w3.org/2000/svg" width="1200" height="630" viewBox="0 0 1200 630" role="img" aria-label="Rapear Online">

	<defs>
		<linearGradient id="bg" x1="0" y1="0" x2="0.65" y2="1">
			<stop offset="0" stop-color="#0b0b10"/>
			<stop offset="0.5" stop-color="#121319"/>
			<stop offset="1" stop-color="#08080b"/>
		</linearGradient>
		<radialGradient id="topglow" cx="0.5" cy="0" r="0.8">
			<stop offset="0" stop-color="#e8192c" stop-opacity="0.28"/>
			<stop offset="1" stop-color="#e8192c" stop-opacity="0"/>
		</radialGradient>
		<linearGradient id="spotL" x1="0" y1="0" x2="0" y2="1">
			<stop offset="0" stop-color="#e8192c" stop-opacity="0.30"/>
			<stop offset="0.75" stop-color="#e8192c" stop-opacity="0"/>
		</linearGradient>
		<linearGradient id="spotR" x1="0" y1="0" x2="0" y2="1">
			<stop offset="0" stop-color="#f2ecdd" stop-opacity="0.14"/>
			<stop offset="0.75" stop-color="#f2ecdd" stop-opacity="0"/>
		</linearGradient>
		<pattern id="grid" width="44" height="44" patternUnits="userSpaceOnUse">
			<path d="M44 0H0v44" fill="none" stroke="#ffffff" stroke-opacity="0.04" stroke-width="1"/>
		</pattern>
	</defs>
	<rect width="1200" height="630" fill="url(#bg)"/>
	<rect width="1200" height="630" fill="url(#grid)"/>
	<rect width="1200" height="630" fill="url(#topglow)"/>
	<g transform="translate(250 -40) rotate(8)"><rect x="-110" y="0" width="220" height="750" fill="url(#spotL)" opacity="0.9"/></g>
	<g transform="translate(960 -40) rotate(-8)"><rect x="-130" y="0" width="260" height="750" fill="url(#spotR)" opacity="0.9"/></g>
	<g opacity="0.95"><circle cx="30" cy="656" r="26" fill="#040406"/><circle cx="75.6" cy="654.25" r="31.95" fill="#040406"/><circle cx="121.2" cy="652.52" r="24.47" fill="#040406"/><circle cx="166.8" cy="650.85" r="20.45" fill="#040406"/><circle cx="212.4" cy="649.26" r="28.96" fill="#040406"/><circle cx="258" cy="647.77" r="30.79" fill="#040406"/><circle cx="303.6" cy="646.42" r="21.8" fill="#040406"/><circle cx="349.2" cy="645.21" r="32.29" fill="#040406"/><circle cx="394.8" cy="644.18" r="41.15" fill="#040406"/><circle cx="440.4" cy="643.33" r="38.38" fill="#040406"/><circle cx="486" cy="642.69" r="30.23" fill="#040406"/><circle cx="531.6" cy="642.25" r="35.11" fill="#040406"/><circle cx="577.2" cy="642.03" r="42" fill="#040406"/><circle cx="622.8" cy="642.03" r="35.35" fill="#040406"/><circle cx="668.4" cy="642.25" r="30.17" fill="#040406"/><circle cx="714" cy="642.69" r="38.15" fill="#040406"/><circle cx="759.6" cy="643.33" r="41.28" fill="#040406"/><circle cx="805.2" cy="644.18" r="32.49" fill="#040406"/><circle cx="850.8" cy="645.21" r="31.63" fill="#040406"/><circle cx="896.4" cy="646.42" r="30.64" fill="#040406"/><circle cx="942" cy="647.77" r="29.17" fill="#040406"/><circle cx="987.6" cy="649.26" r="20.54" fill="#040406"/><circle cx="1033.2" cy="650.85" r="24.23" fill="#040406"/><circle cx="1078.8" cy="652.52" r="31.91" fill="#040406"/><circle cx="1124.4" cy="654.25" r="26.24" fill="#040406"/><circle cx="1170" cy="656" r="20.02" fill="#040406"/></g>
	<rect x="0" y="0" width="1200" height="6" fill="#e8192c"/>
	<rect x="0" y="624" width="1200" height="6" fill="#15151b"/>
	<rect x="0" y="624" width="408.00000000000006" height="6" fill="#e8192c"/>

<g transform="translate(66 104)" opacity="1"><path d="M10.72 0L1.76 0L1.76-22.68L4.93-22.68L4.93-2.27L10.72-2.27L10.72 0ZM22.62 0L19.65 0L24.46-22.68L27.52-22.68L32.36 0L29.36 0L28.33-5.71L23.71-5.71L22.62 0ZM26.00-18.20L24.13-7.98L27.91-7.98L26.00-18.20ZM62.72 0L59.56 0L59.56-20.33L55.72-20.33L55.72-22.68L66.45-22.68L66.45-20.33L62.72-20.33L62.72 0ZM78.37 0L75.40 0L80.22-22.68L83.27-22.68L88.11 0L85.12 0L84.08-5.71L79.46-5.71L78.37 0ZM81.76-18.20L79.88-7.98L83.66-7.98L81.76-18.20ZM104.46 0L98.41 0L98.41-22.68L103.62-22.68Q105.16-22.68 106.29-22.34Q107.42-22.01 108.18-21.31Q108.94-20.61 109.30-19.53Q109.66-18.45 109.66-17.00L109.66-17.00Q109.66-15.60 109.31-14.57Q108.96-13.55 108.25-12.96Q107.54-12.38 106.42-12.21L106.42-12.21Q107.79-11.90 108.63-11.16Q109.47-10.42 109.87-9.25Q110.28-8.09 110.28-6.47L110.28-6.47Q110.28-5.01 109.94-3.81Q109.61-2.60 108.89-1.76Q108.18-0.92 107.07-0.46Q105.97 0 104.46 0L104.46 0ZM101.57-10.81L101.57-2.27L103.70-2.27Q105.83-2.27 106.54-3.26Q107.26-4.26 107.26-6.47L107.26-6.47Q107.26-7.90 106.88-8.86Q106.50-9.83 105.67-10.32Q104.85-10.81 103.45-10.81L103.45-10.81L101.57-10.81ZM101.57-20.33L101.57-13.22L103.45-13.22Q104.79-13.22 105.55-13.59Q106.30-13.97 106.61-14.81Q106.92-15.65 106.92-17.00L106.92-17.00Q106.92-18.56 106.44-19.26Q105.97-19.96 104.96-20.15Q103.95-20.33 102.33-20.33L102.33-20.33L101.57-20.33ZM130.04 0L121.08 0L121.08-22.68L124.24-22.68L124.24-2.27L130.04-2.27L130.04 0ZM141.93 0L138.96 0L143.78-22.68L146.83-22.68L151.68 0L148.68 0L147.64-5.71L143.02-5.71L141.93 0ZM145.32-18.20L143.44-7.98L147.22-7.98L145.32-18.20ZM179.07 0L176.38 0L176.38-22.68L178.54-22.68L184.98-7.62L184.98-22.68L187.61-22.68L187.61 0L185.60 0L179.07-15.48L179.07 0ZM204.96 0.25L204.96 0.25Q202.67 0.25 201.30-0.64Q199.92-1.54 199.34-3.21Q198.75-4.87 198.75-7.11L198.75-7.11L198.75-15.71Q198.75-17.95 199.35-19.56Q199.95-21.17 201.31-22.02Q202.67-22.88 204.96-22.88L204.96-22.88Q207.26-22.88 208.60-22.01Q209.95-21.14 210.55-19.54Q211.15-17.95 211.15-15.71L211.15-15.71L211.15-7.08Q211.15-4.87 210.55-3.22Q209.95-1.57 208.60-0.66Q207.26 0.25 204.96 0.25ZM204.96-2.24L204.96-2.24Q206.22-2.24 206.87-2.76Q207.51-3.28 207.74-4.21Q207.96-5.15 207.96-6.41L207.96-6.41L207.96-16.35Q207.96-17.61 207.74-18.52Q207.51-19.43 206.87-19.92Q206.22-20.41 204.96-20.41L204.96-20.41Q203.70-20.41 203.05-19.92Q202.39-19.43 202.16-18.52Q201.94-17.61 201.94-16.35L201.94-16.35L201.94-6.41Q201.94-5.15 202.16-4.21Q202.39-3.28 203.05-2.76Q203.70-2.24 204.96-2.24ZM239.19 0L236.62 0L237.04-22.68L240.14-22.68L244.15-4.28L248.18-22.68L251.26-22.68L251.68 0L249.13 0L248.88-16.46L245.04 0L243.25 0L239.44-16.46L239.19 0ZM266.43 0L263.32 0L263.32-22.68L266.43-22.68L266.43 0ZM286.94 0L278.10 0L278.10-22.68L286.89-22.68L286.89-20.33L281.26-20.33L281.26-12.82L285.82-12.82L285.82-10.58L281.26-10.58L281.26-2.27L286.94-2.27L286.94 0ZM300.18 0L297.49 0L297.49-22.68L299.65-22.68L306.09-7.62L306.09-22.68L308.72-22.68L308.72 0L306.70 0L300.18-15.48L300.18 0ZM325.93 0L322.77 0L322.77-20.33L318.93-20.33L318.93-22.68L329.66-22.68L329.66-20.33L325.93-20.33L325.93 0ZM348.69 0L339.84 0L339.84-22.68L348.63-22.68L348.63-20.33L343.00-20.33L343.00-12.82L347.57-12.82L347.57-10.58L343.00-10.58L343.00-2.27L348.69-2.27L348.69 0Z" fill="#e8192c"/></g>
<g transform="translate(60 242) skewX(-3)" opacity="1"><path d="M29.67 0L5.33 0L5.33-120.31L42.25-120.31Q51.47-120.31 56.19-116.11Q60.91-111.90 62.51-104.35Q64.12-96.80 64.12-86.61L64.12-86.61Q64.12-76.77 61.63-70.89Q59.13-65.01 52.23-62.75L52.23-62.75Q57.90-61.59 60.19-57.11Q62.48-52.64 62.48-45.53L62.48-45.53L62.48 0L38.76 0L38.76-47.10Q38.76-52.36 36.61-53.63Q34.45-54.89 29.67-54.89L29.67-54.89L29.67 0ZM29.80-98.03L29.80-75.74L35.62-75.74Q40.61-75.74 40.61-86.61L40.61-86.61Q40.61-93.65 39.51-95.84Q38.42-98.03 35.41-98.03L35.41-98.03L29.80-98.03ZM92.15 0L68.77 0L80.39-120.31L121.20-120.31L132.62 0L109.85 0L108.14-19.41L93.65-19.41L92.15 0ZM99.94-99.80L95.36-38.62L106.30-38.62L101.04-99.80L99.94-99.80ZM163.52 0L140 0L140-120.31L164.75-120.31L175.82-62.69L175.82-120.31L199.06-120.31L199.06 0L175.55 0L163.52-60.16L163.52 0ZM233.65 0L209.73 0L209.73-120.31L233.52-120.31L233.52-72.12L244.73-120.31L268.93-120.31L255.46-65.21L271.73 0L246.78 0L233.65-58.24L233.65 0ZM297.98 0L274.74 0L274.74-120.31L297.98-120.31L297.98 0ZM331.06 0L307.55 0L307.55-120.31L332.29-120.31L343.37-62.69L343.37-120.31L366.61-120.31L366.61 0L343.10 0L331.06-60.16L331.06 0ZM402.09 1.09L402.09 1.09Q376.32 1.09 376.32-35.82L376.32-35.82L376.32-87.71Q376.32-121.41 405.85-121.41L405.85-121.41Q418.02-121.41 424.51-116.52Q431.01-111.63 433.47-102.27Q435.93-92.90 435.93-79.43L435.93-79.43L412.41-79.43L412.41-90.10Q412.41-93.99 411.35-96.63Q410.29-99.26 406.94-99.26L406.94-99.26Q402.77-99.26 401.44-96.46Q400.11-93.65 400.11-90.30L400.11-90.30L400.11-31.99Q400.11-27.14 401.37-24.10Q402.64-21.05 406.33-21.05L406.33-21.05Q410.16-21.05 411.42-24.10Q412.69-27.14 412.69-32.13L412.69-32.13L412.69-49.29L406.26-49.29L406.26-70.07L435.65-70.07L435.65 0L426.02 0L421.91-10.12Q415.63 1.09 402.09 1.09Z" fill="#f2ecdd"/></g>
<g transform="translate(60 373.6) skewX(-3)" opacity="1"><path d="M55.03 0L5.33 0L5.33-120.31L53.46-120.31L53.46-97.07L29.80-97.07L29.80-73.62L52.50-73.62L52.50-51.00L29.80-51.00L29.80-23.45L55.03-23.45L55.03 0ZM111.77 0L62.96 0L62.96-120.31L87.02-120.31L87.02-20.51L111.77-20.51L111.77 0ZM147.31 1.09L147.31 1.09Q132.89 1.09 125.27-7.62Q117.65-16.34 117.65-32.81L117.65-32.81L117.65-89.96Q117.65-105.41 125.20-113.41Q132.75-121.41 147.31-121.41L147.31-121.41Q161.88-121.41 169.43-113.41Q176.98-105.41 176.98-89.96L176.98-89.96L176.98-32.81Q176.98-16.34 169.36-7.62Q161.74 1.09 147.31 1.09ZM147.52-21.05L147.52-21.05Q152.99-21.05 152.99-31.65L152.99-31.65L152.99-90.37Q152.99-99.26 147.66-99.26L147.66-99.26Q141.64-99.26 141.64-90.17L141.64-90.17L141.64-31.51Q141.64-25.91 143.01-23.48Q144.38-21.05 147.52-21.05Z" fill="#e8192c"/></g>
<g transform="translate(66 436)" opacity="1"><path d="M7.16 0L4.10 0L4.10-19.60L0.40-19.60L0.40-21.87L10.75-21.87L10.75-19.60L7.16-19.60L7.16 0ZM21.44 0.24L21.44 0.24Q19.23 0.24 17.90-0.62Q16.58-1.48 16.01-3.09Q15.45-4.70 15.45-6.86L15.45-6.86L15.45-15.15Q15.45-17.31 16.03-18.86Q16.61-20.41 17.92-21.24Q19.23-22.06 21.44-22.06L21.44-22.06Q23.66-22.06 24.95-21.22Q26.25-20.38 26.83-18.85Q27.41-17.31 27.41-15.15L27.41-15.15L27.41-6.83Q27.41-4.70 26.83-3.10Q26.25-1.51 24.95-0.63Q23.66 0.24 21.44 0.24ZM21.44-2.16L21.44-2.16Q22.66-2.16 23.28-2.66Q23.90-3.16 24.11-4.06Q24.33-4.97 24.33-6.18L24.33-6.18L24.33-15.77Q24.33-16.98 24.11-17.86Q23.90-18.74 23.28-19.21Q22.66-19.68 21.44-19.68L21.44-19.68Q20.23-19.68 19.59-19.21Q18.96-18.74 18.74-17.86Q18.52-16.98 18.52-15.77L18.52-15.77L18.52-6.18Q18.52-4.97 18.74-4.06Q18.96-3.16 19.59-2.66Q20.23-2.16 21.44-2.16ZM36.46 0L33.40 0L33.40-21.87L38.83-21.87Q40.80-21.87 41.98-21.15Q43.15-20.44 43.69-19.09Q44.23-17.74 44.23-15.82L44.23-15.82Q44.23-14.09 43.62-12.82Q43.02-11.56 41.83-10.87Q40.64-10.18 38.86-10.18L38.86-10.18L36.46-10.18L36.46 0ZM36.46-19.68L36.46-12.37L37.86-12.37Q39.18-12.37 39.94-12.66Q40.69-12.96 41.02-13.70Q41.34-14.45 41.34-15.79L41.34-15.79Q41.34-17.36 41.11-18.20Q40.88-19.04 40.16-19.36Q39.43-19.68 37.89-19.68L37.89-19.68L36.46-19.68ZM60.98 0L58.49 0L58.90-21.87L61.90-21.87L65.76-4.13L69.64-21.87L72.61-21.87L73.02 0L70.56 0L70.32-15.88L66.62 0L64.89 0L61.22-15.88L60.98 0ZM84.85 0.24L84.85 0.24Q82.53 0.24 81.24-0.73Q79.96-1.70 79.46-3.35Q78.96-5.00 78.96-7.02L78.96-7.02L78.96-14.74Q78.96-16.96 79.46-18.60Q79.96-20.25 81.24-21.15Q82.53-22.06 84.85-22.06L84.85-22.06Q86.90-22.06 88.10-21.30Q89.30-20.55 89.83-19.14Q90.36-17.74 90.36-15.77L90.36-15.77L90.36-14.04L87.47-14.04L87.47-15.58Q87.47-16.79 87.35-17.73Q87.22-18.66 86.69-19.17Q86.14-19.68 84.88-19.68L84.88-19.68Q83.58-19.68 82.99-19.13Q82.39-18.58 82.22-17.56Q82.04-16.55 82.04-15.20L82.04-15.20L82.04-6.53Q82.04-4.89 82.31-3.93Q82.58-2.97 83.20-2.56Q83.82-2.16 84.88-2.16L84.88-2.16Q86.12-2.16 86.66-2.71Q87.20-3.27 87.33-4.24Q87.47-5.21 87.47-6.51L87.47-6.51L87.47-8.13L90.36-8.13L90.36-6.51Q90.36-4.51 89.87-2.98Q89.39-1.46 88.20-0.61Q87.01 0.24 84.85 0.24ZM101.43 0.24L101.43 0.24Q99.54 0.24 98.28-0.57Q97.03-1.38 96.38-2.81Q95.73-4.24 95.63-6.13L95.63-6.13L98.33-6.86Q98.41-5.70 98.69-4.62Q98.97-3.54 99.62-2.85Q100.27-2.16 101.43-2.16L101.43-2.16Q102.62-2.16 103.23-2.82Q103.83-3.48 103.83-4.72L103.83-4.72Q103.83-6.21 103.16-7.11Q102.48-8.02 101.46-8.94L101.46-8.94L97.78-12.18Q96.70-13.12 96.19-14.24Q95.68-15.36 95.68-17.01L95.68-17.01Q95.68-19.41 97.06-20.74Q98.43-22.06 100.81-22.06L100.81-22.06Q102.11-22.06 103.09-21.72Q104.08-21.38 104.74-20.68Q105.40-19.98 105.79-18.91Q106.18-17.85 106.32-16.42L106.32-16.42L103.73-15.71Q103.64-16.79 103.40-17.70Q103.16-18.60 102.55-19.16Q101.94-19.71 100.81-19.71L100.81-19.71Q99.67-19.71 99.04-19.10Q98.41-18.50 98.41-17.31L98.41-17.31Q98.41-16.31 98.74-15.66Q99.08-15.01 99.84-14.34L99.84-14.34L103.54-11.10Q104.78-10.02 105.72-8.52Q106.67-7.02 106.67-4.97L106.67-4.97Q106.67-3.35 105.99-2.17Q105.32-1.00 104.14-0.38Q102.97 0.24 101.43 0.24ZM123.41-8.69L120.50-8.69L120.50-11.66L123.41-11.66L123.41-8.69ZM141.21 0L138.16 0L138.16-21.87L142.56-21.87Q144.75-21.87 146.18-21.29Q147.61-20.71 148.30-19.43Q148.99-18.14 148.99-16.07L148.99-16.07Q148.99-14.80 148.72-13.76Q148.45-12.72 147.86-12.00Q147.26-11.29 146.29-10.96L146.29-10.96L149.39 0L146.45 0L143.59-10.26L141.21-10.26L141.21 0ZM141.21-19.68L141.21-12.45L142.37-12.45Q143.67-12.45 144.48-12.77Q145.29-13.10 145.67-13.88Q146.05-14.66 146.05-16.07L146.05-16.07Q146.05-17.98 145.34-18.83Q144.64-19.68 142.56-19.68L142.56-19.68L141.21-19.68ZM156.85 0L153.99 0L158.63-21.87L161.57-21.87L166.25 0L163.36 0L162.36-5.51L157.90-5.51L156.85 0ZM160.12-17.55L158.31-7.70L161.95-7.70L160.12-17.55ZM176.94 0.24L176.94 0.24Q174.62 0.24 173.34-0.73Q172.05-1.70 171.55-3.35Q171.05-5.00 171.05-7.02L171.05-7.02L171.05-14.74Q171.05-16.96 171.55-18.60Q172.05-20.25 173.34-21.15Q174.62-22.06 176.94-22.06L176.94-22.06Q178.99-22.06 180.19-21.30Q181.40-20.55 181.92-19.14Q182.45-17.74 182.45-15.77L182.45-15.77L182.45-14.04L179.56-14.04L179.56-15.58Q179.56-16.79 179.44-17.73Q179.32-18.66 178.78-19.17Q178.24-19.68 176.97-19.68L176.97-19.68Q175.67-19.68 175.08-19.13Q174.48-18.58 174.31-17.56Q174.13-16.55 174.13-15.20L174.13-15.20L174.13-6.53Q174.13-4.89 174.40-3.93Q174.67-2.97 175.29-2.56Q175.91-2.16 176.97-2.16L176.97-2.16Q178.21-2.16 178.75-2.71Q179.29-3.27 179.42-4.24Q179.56-5.21 179.56-6.51L179.56-6.51L179.56-8.13L182.45-8.13L182.45-6.51Q182.45-4.51 181.96-2.98Q181.48-1.46 180.29-0.61Q179.10 0.24 176.94 0.24ZM191.42 0L188.36 0L188.36-21.87L191.42-21.87L191.42-12.42L197.03-12.42L197.03-21.87L200.08-21.87L200.08 0L197.03 0L197.03-10.23L191.42-10.23L191.42 0ZM208.19 0L205.32 0L209.97-21.87L212.91-21.87L217.58 0L214.69 0L213.69-5.51L209.24-5.51L208.19 0ZM211.45-17.55L209.64-7.70L213.29-7.70L211.45-17.55ZM234.16-8.69L231.25-8.69L231.25-11.66L234.16-11.66L234.16-8.69ZM254.07 0L251.75 0L248.18-21.87L250.72-21.87L253.07-6.16L256.01-21.79L258.17-21.79L261.14-6.08L263.44-21.87L265.92-21.87L262.41 0L260.20 0L257.15-16.20L254.07 0ZM274.75 0L271.76 0L271.76-21.87L274.75-21.87L274.75 0ZM283.88 0L281.29 0L281.29-21.87L283.37-21.87L289.58-7.34L289.58-21.87L292.12-21.87L292.12 0L290.18 0L283.88-14.93L283.88 0ZM310.78 0L307.73 0L307.73-21.87L312.13-21.87Q314.32-21.87 315.75-21.29Q317.18-20.71 317.87-19.43Q318.56-18.14 318.56-16.07L318.56-16.07Q318.56-14.80 318.29-13.76Q318.02-12.72 317.42-12.00Q316.83-11.29 315.86-10.96L315.86-10.96L318.96 0L316.02 0L313.16-10.26L310.78-10.26L310.78 0ZM310.78-19.68L310.78-12.45L311.94-12.45Q313.24-12.45 314.05-12.77Q314.86-13.10 315.24-13.88Q315.61-14.66 315.61-16.07L315.61-16.07Q315.61-17.98 314.91-18.83Q314.21-19.68 312.13-19.68L312.13-19.68L310.78-19.68ZM326.42 0L323.56 0L328.20-21.87L331.14-21.87L335.81 0L332.92 0L331.93-5.51L327.47-5.51L326.42 0ZM329.68-17.55L327.88-7.70L331.52-7.70L329.68-17.55ZM346.48 0L343.43 0L343.43-19.60L339.73-19.60L339.73-21.87L350.07-21.87L350.07-19.60L346.48-19.60L346.48 0ZM363.71 0L355.18 0L355.18-21.87L363.66-21.87L363.66-19.60L358.23-19.60L358.23-12.37L362.63-12.37L362.63-10.21L358.23-10.21L358.23-2.19L363.71-2.19L363.71 0Z" fill="#f2ecdd"/></g>
<g transform="translate(64 505) skewX(-6)">
		<rect x="9" y="-21.22" width="254.39" height="60.45" fill="#7e0d19" opacity="0.5"/>
		<rect x="0" y="-30.22" width="254.39" height="60.45" fill="#e8192c"/>
		<g transform="skewX(6)"><g transform="translate(31 10.54)" opacity="1"><path d="M10.90 0L3.63 0L0.35-26.66L5.42-26.66L7.37-8.52L9.11-26.66L14.18-26.66L10.90 0ZM27.73 0L16.73 0L16.73-26.64L27.38-26.64L27.38-21.49L22.15-21.49L22.15-16.30L27.17-16.30L27.17-11.29L22.15-11.29L22.15-5.19L27.73-5.19L27.73 0ZM35.88 0L30.49 0L30.49-26.64L38.66-26.64Q40.70-26.64 41.75-25.71Q42.79-24.78 43.15-23.11Q43.50-21.43 43.50-19.18L43.50-19.18Q43.50-17.00 42.95-15.70Q42.40-14.40 40.87-13.90L40.87-13.90Q42.13-13.64 42.63-12.65Q43.14-11.66 43.14-10.08L43.14-10.08L43.14 0L37.89 0L37.89-10.43Q37.89-11.59 37.41-11.87Q36.94-12.15 35.88-12.15L35.88-12.15L35.88 0ZM35.91-21.71L35.91-16.77L37.19-16.77Q38.30-16.77 38.30-19.18L38.30-19.18Q38.30-20.74 38.06-21.22Q37.81-21.71 37.15-21.71L37.15-21.71L35.91-21.71ZM59.92 0L54.53 0L54.53-26.64L62.70-26.64Q64.74-26.64 65.79-25.71Q66.83-24.78 67.19-23.11Q67.54-21.43 67.54-19.18L67.54-19.18Q67.54-17.00 66.99-15.70Q66.44-14.40 64.91-13.90L64.91-13.90Q66.17-13.64 66.67-12.65Q67.18-11.66 67.18-10.08L67.18-10.08L67.18 0L61.93 0L61.93-10.43Q61.93-11.59 61.45-11.87Q60.97-12.15 59.92-12.15L59.92-12.15L59.92 0ZM59.95-21.71L59.95-16.77L61.23-16.77Q62.34-16.77 62.34-19.18L62.34-19.18Q62.34-20.74 62.09-21.22Q61.85-21.71 61.19-21.71L61.19-21.71L59.95-21.71ZM74.75 0L69.57 0L72.15-26.64L81.18-26.64L83.71 0L78.67 0L78.29-4.30L75.08-4.30L74.75 0ZM76.48-22.10L75.46-8.55L77.88-8.55L76.72-22.10L76.48-22.10ZM91.55 0L86.35 0L86.35-26.64L91.83-26.64L94.28-13.88L94.28-26.64L99.42-26.64L99.42 0L94.22 0L91.55-13.32L91.55 0ZM108.08 0L102.79 0L102.79-26.64L108.05-26.64L108.05-15.97L110.54-26.64L115.89-26.64L112.91-14.44L116.51 0L110.99 0L108.08-12.90L108.08 0ZM123.33 0L118.18 0L118.18-26.64L123.33-26.64L123.33 0ZM131.65 0L126.45 0L126.45-26.64L131.93-26.64L134.38-13.88L134.38-26.64L139.52-26.64L139.52 0L134.32 0L131.65-13.32L131.65 0ZM148.38 0.24L148.38 0.24Q142.67 0.24 142.67-7.93L142.67-7.93L142.67-19.42Q142.67-26.88 149.21-26.88L149.21-26.88Q151.91-26.88 153.34-25.80Q154.78-24.72 155.33-22.64Q155.87-20.57 155.87-17.59L155.87-17.59L150.67-17.59L150.67-19.95Q150.67-20.81 150.43-21.40Q150.20-21.98 149.45-21.98L149.45-21.98Q148.53-21.98 148.24-21.36Q147.94-20.74 147.94-20.00L147.94-20.00L147.94-7.08Q147.94-6.01 148.22-5.34Q148.50-4.66 149.32-4.66L149.32-4.66Q150.17-4.66 150.45-5.34Q150.73-6.01 150.73-7.11L150.73-7.11L150.73-10.91L149.30-10.91L149.30-15.52L155.81-15.52L155.81 0L153.68 0L152.77-2.24Q151.38 0.24 148.38 0.24Z" fill="#08080b"/></g><path d="M204.79 -10.85 L223.39 0 L204.79 10.85 Z" fill="#08080b"/></g>
	</g>
<g><g transform="translate(760 250)" opacity="1"><path d="M9.88 0.31L9.88 0.31Q5.53 0.31 3.15-2.13Q0.78-4.57 0.78-9.16L0.78-9.16L0.78-24.67Q0.78-29.51 3.04-32.10Q5.29-34.69 9.88-34.69L9.88-34.69Q14.49-34.69 16.74-32.10Q18.98-29.51 18.98-24.67L18.98-24.67L18.98-9.16Q18.98-4.57 16.62-2.13Q14.26 0.31 9.88 0.31ZM9.88-6.02L9.88-6.02Q10.68-6.02 11.13-6.74Q11.58-7.46 11.58-8.36L11.58-8.36L11.58-25.33Q11.58-26.54 11.32-27.45Q11.05-28.36 9.88-28.36L9.88-28.36Q8.71-28.36 8.45-27.45Q8.18-26.54 8.18-25.33L8.18-25.33L8.18-8.36Q8.18-7.46 8.64-6.74Q9.10-6.02 9.88-6.02ZM31.80 0L24.51 0L24.51-26.48Q23.81-25.64 22.58-25.13Q21.35-24.61 20.25-24.61L20.25-24.61L20.25-30.10Q21.29-30.25 22.48-30.77Q23.67-31.29 24.70-32.20Q25.72-33.11 26.27-34.39L26.27-34.39L31.80-34.39L31.80 0Z" fill="#e8192c"/></g><g transform="translate(830 250)" opacity="1"><path d="M9.04 0.31L9.04 0.31Q6.12 0.31 4.50-0.92Q2.89-2.14 2.26-4.22Q1.63-6.29 1.63-8.84L1.63-8.84L1.63-18.56Q1.63-21.35 2.26-23.43Q2.89-25.50 4.50-26.64Q6.12-27.78 9.04-27.78L9.04-27.78Q11.63-27.78 13.14-26.83Q14.65-25.87 15.32-24.11Q15.98-22.34 15.98-19.86L15.98-19.86L15.98-17.68L12.34-17.68L12.34-19.62Q12.34-21.15 12.19-22.32Q12.04-23.49 11.36-24.14Q10.68-24.79 9.08-24.79L9.08-24.79Q7.45-24.79 6.70-24.09Q5.95-23.39 5.73-22.12Q5.51-20.84 5.51-19.14L5.51-19.14L5.51-8.23Q5.51-6.15 5.85-4.95Q6.19-3.74 6.97-3.23Q7.75-2.72 9.08-2.72L9.08-2.72Q10.64-2.72 11.32-3.42Q12.00-4.11 12.17-5.34Q12.34-6.56 12.34-8.19L12.34-8.19L12.34-10.23L15.98-10.23L15.98-8.19Q15.98-5.68 15.37-3.76Q14.76-1.84 13.26-0.77Q11.76 0.31 9.04 0.31ZM23.76 0L20.16 0L26.00-27.54L29.71-27.54L35.59 0L31.95 0L30.70-6.94L25.09-6.94L23.76 0ZM27.87-22.10L25.60-9.69L30.19-9.69L27.87-22.10ZM43.44 0L40.31 0L40.82-27.54L44.60-27.54L49.46-5.20L54.35-27.54L58.09-27.54L58.60 0L55.51 0L55.20-19.99L50.55 0L48.37 0L43.75-19.99L43.44 0ZM68.66 0L64.82 0L64.82-27.54L71.65-27.54Q74.14-27.54 75.61-26.64Q77.09-25.74 77.77-24.04Q78.45-22.34 78.45-19.92L78.45-19.92Q78.45-17.75 77.69-16.15Q76.92-14.55 75.43-13.69Q73.93-12.82 71.69-12.82L71.69-12.82L68.66-12.82L68.66 0ZM68.66-24.79L68.66-15.57L70.43-15.57Q72.10-15.57 73.05-15.95Q74-16.32 74.41-17.26Q74.82-18.19 74.82-19.89L74.82-19.89Q74.82-21.86 74.53-22.92Q74.24-23.97 73.32-24.38Q72.40-24.79 70.46-24.79L70.46-24.79L68.66-24.79ZM93.88 0L83.14 0L83.14-27.54L93.82-27.54L93.82-24.68L86.98-24.68L86.98-15.57L92.52-15.57L92.52-12.85L86.98-12.85L86.98-2.75L93.88-2.75L93.88 0ZM106.02 0.31L106.02 0.31Q103.23 0.31 101.56-0.78Q99.90-1.87 99.18-3.89Q98.47-5.92 98.47-8.64L98.47-8.64L98.47-19.07Q98.47-21.79 99.20-23.75Q99.93-25.70 101.58-26.74Q103.23-27.78 106.02-27.78L106.02-27.78Q108.80-27.78 110.44-26.72Q112.07-25.67 112.80-23.73Q113.53-21.79 113.53-19.07L113.53-19.07L113.53-8.60Q113.53-5.92 112.80-3.91Q112.07-1.90 110.44-0.80Q108.80 0.31 106.02 0.31ZM106.02-2.72L106.02-2.72Q107.55-2.72 108.33-3.35Q109.11-3.98 109.38-5.12Q109.65-6.26 109.65-7.79L109.65-7.79L109.65-19.86Q109.65-21.39 109.38-22.49Q109.11-23.60 108.33-24.19Q107.55-24.79 106.02-24.79L106.02-24.79Q104.49-24.79 103.69-24.19Q102.89-23.60 102.62-22.49Q102.34-21.39 102.34-19.86L102.34-19.86L102.34-7.79Q102.34-6.26 102.62-5.12Q102.89-3.98 103.69-3.35Q104.49-2.72 106.02-2.72ZM106.90-29.17L105.06-29.17L107.07-35.90L110.71-35.90L106.90-29.17ZM122.57 0L119.30 0L119.30-27.54L121.92-27.54L129.74-9.25L129.74-27.54L132.94-27.54L132.94 0L130.49 0L122.57-18.80L122.57 0Z" fill="#f2ecdd"/></g><g transform="translate(1011.6 250)" opacity="1"><path d="M9.45 0L5.81 0L5.81-22.78Q5.78-22.75 5.05-22.58Q4.32-22.41 3.40-22.24Q2.48-22.07 1.77-21.93Q1.05-21.79 1.02-21.79L1.02-21.79L1.02-24.55Q1.60-24.68 2.36-24.92Q3.13-25.16 3.93-25.50Q4.73-25.84 5.46-26.35Q6.19-26.86 6.70-27.54L6.70-27.54L9.45-27.54L9.45 0ZM22.59 0.31L22.59 0.31Q20.21 0.31 18.71-0.90Q17.22-2.11 16.52-4.17Q15.82-6.22 15.82-8.74L15.82-8.74L15.82-18.02Q15.82-20.71 16.44-22.92Q17.05-25.13 18.53-26.45Q20.01-27.78 22.59-27.78L22.59-27.78Q24.73-27.78 26.21-27.00Q27.69-26.21 28.49-24.72Q29.29-23.22 29.32-21.08L29.32-21.08Q29.32-21.01 29.34-20.89Q29.36-20.77 29.36-20.67L29.36-20.67L25.68-20.67Q25.68-22.68 25.04-23.73Q24.39-24.79 22.59-24.79L22.59-24.79Q21.60-24.79 20.89-24.16Q20.18-23.53 19.82-22.24Q19.46-20.94 19.46-18.90L19.46-18.90L19.46-14.72Q20.01-15.57 21.01-16.10Q22.01-16.63 23.47-16.63L23.47-16.63Q25.75-16.63 27.04-15.64Q28.34-14.65 28.88-12.87Q29.42-11.08 29.42-8.67L29.42-8.67Q29.42-6.19 28.74-4.15Q28.06-2.11 26.57-0.90Q25.07 0.31 22.59 0.31ZM22.59-2.72L22.59-2.72Q23.81-2.72 24.49-3.42Q25.17-4.11 25.46-5.27Q25.75-6.43 25.75-7.79L25.75-7.79Q25.75-9.42 25.60-10.81Q25.45-12.21 24.80-13.04Q24.15-13.87 22.59-13.87L22.59-13.87Q21.84-13.87 21.23-13.60Q20.62-13.33 20.18-12.90Q19.73-12.48 19.46-12.00L19.46-12.00L19.46-7.89Q19.46-6.49 19.75-5.30Q20.04-4.11 20.72-3.42Q21.40-2.72 22.59-2.72ZM44.77 0L41.30 0L41.30-7.38L33.31-7.38L33.31-11.19L40.49-27.54L44.77-27.54L44.77-10.61L47.87-10.61L47.87-7.38L44.77-7.38L44.77 0ZM41.30-23.12L36.82-10.61L41.30-10.61L41.30-23.12ZM58.18 0.31L58.18 0.31Q55.84 0.31 54.32-0.75Q52.81-1.80 52.08-3.64Q51.35-5.47 51.35-7.82L51.35-7.82L51.35-19.69Q51.35-22.10 52.06-23.92Q52.78-25.74 54.29-26.76Q55.80-27.78 58.18-27.78L58.18-27.78Q60.56-27.78 62.06-26.76Q63.55-25.74 64.27-23.92Q64.98-22.10 64.98-19.69L64.98-19.69L64.98-7.82Q64.98-5.44 64.25-3.60Q63.52-1.77 62.02-0.73Q60.53 0.31 58.18 0.31ZM58.18-2.69L58.18-2.69Q59.47-2.69 60.14-3.43Q60.80-4.18 61.06-5.36Q61.31-6.53 61.31-7.79L61.31-7.79L61.31-19.72Q61.31-21.05 61.07-22.22Q60.83-23.39 60.17-24.11Q59.51-24.82 58.18-24.82L58.18-24.82Q56.86-24.82 56.18-24.11Q55.50-23.39 55.26-22.22Q55.02-21.05 55.02-19.72L55.02-19.72L55.02-7.79Q55.02-6.53 55.28-5.36Q55.53-4.18 56.23-3.43Q56.92-2.69 58.18-2.69ZM89.63 0L78.88 0L78.88-27.54L89.56-27.54L89.56-24.68L82.72-24.68L82.72-15.57L88.27-15.57L88.27-12.85L82.72-12.85L82.72-2.75L89.63-2.75L89.63 0ZM104.60 0L93.72 0L93.72-27.54L97.56-27.54L97.56-2.75L104.60-2.75L104.60 0ZM115.26 0.31L115.26 0.31Q112.47 0.31 110.80-0.78Q109.14-1.87 108.42-3.89Q107.71-5.92 107.71-8.64L107.71-8.64L107.71-19.07Q107.71-21.79 108.44-23.75Q109.17-25.70 110.82-26.74Q112.47-27.78 115.26-27.78L115.26-27.78Q118.04-27.78 119.68-26.72Q121.31-25.67 122.04-23.73Q122.77-21.79 122.77-19.07L122.77-19.07L122.77-8.60Q122.77-5.92 122.04-3.91Q121.31-1.90 119.68-0.80Q118.04 0.31 115.26 0.31ZM115.26-2.72L115.26-2.72Q116.79-2.72 117.57-3.35Q118.35-3.98 118.62-5.12Q118.89-6.26 118.89-7.79L118.89-7.79L118.89-19.86Q118.89-21.39 118.62-22.49Q118.35-23.60 117.57-24.19Q116.79-24.79 115.26-24.79L115.26-24.79Q113.73-24.79 112.93-24.19Q112.13-23.60 111.86-22.49Q111.58-21.39 111.58-19.86L111.58-19.86L111.58-7.79Q111.58-6.26 111.86-5.12Q112.13-3.98 112.93-3.35Q113.73-2.72 115.26-2.72Z" fill="#a8a294"/></g><rect x="760" y="266" width="376" height="1" fill="#26262e"/><g transform="translate(760 326)" opacity="1"><path d="M9.88 0.31L9.88 0.31Q5.53 0.31 3.15-2.13Q0.78-4.57 0.78-9.16L0.78-9.16L0.78-24.67Q0.78-29.51 3.04-32.10Q5.29-34.69 9.88-34.69L9.88-34.69Q14.49-34.69 16.74-32.10Q18.98-29.51 18.98-24.67L18.98-24.67L18.98-9.16Q18.98-4.57 16.62-2.13Q14.26 0.31 9.88 0.31ZM9.88-6.02L9.88-6.02Q10.68-6.02 11.13-6.74Q11.58-7.46 11.58-8.36L11.58-8.36L11.58-25.33Q11.58-26.54 11.32-27.45Q11.05-28.36 9.88-28.36L9.88-28.36Q8.71-28.36 8.45-27.45Q8.18-26.54 8.18-25.33L8.18-25.33L8.18-8.36Q8.18-7.46 8.64-6.74Q9.10-6.02 9.88-6.02ZM38.81 0L20.98 0L20.98-1.64Q20.98-4.20 21.77-6.24Q22.56-8.28 23.81-10.03Q25.06-11.78 26.45-13.46L26.45-13.46Q27.79-15.10 29.01-16.83Q30.23-18.55 31.01-20.58Q31.78-22.60 31.78-25.12L31.78-25.12Q31.78-26.33 31.42-27.20Q31.05-28.07 29.92-28.07L29.92-28.07Q28.20-28.07 28.20-25L28.20-25L28.20-20.80L20.98-20.80Q20.96-21.25 20.93-21.82Q20.90-22.38 20.90-22.91L20.90-22.91Q20.90-26.62 21.68-29.21Q22.46-31.80 24.44-33.15Q26.43-34.51 30.02-34.51L30.02-34.51Q34.30-34.51 36.67-32.11Q39.04-29.71 39.04-25.25L39.04-25.25Q39.04-22.23 38.26-19.95Q37.48-17.68 36.19-15.81Q34.90-13.95 33.36-12.09L33.36-12.09Q32.27-10.78 31.24-9.41Q30.21-8.05 29.43-6.48L29.43-6.48L38.81-6.48L38.81 0Z" fill="#e8192c"/></g><g transform="translate(830 326)" opacity="1"><path d="M5.98 0L2.14 0L2.14-27.54L7.68-27.54Q10.44-27.54 12.24-26.81Q14.04-26.08 14.91-24.46Q15.78-22.85 15.78-20.23L15.78-20.23Q15.78-18.63 15.44-17.32Q15.10-16.01 14.35-15.11Q13.60-14.21 12.38-13.80L12.38-13.80L16.29 0L12.58 0L8.98-12.92L5.98-12.92L5.98 0ZM5.98-24.79L5.98-15.67L7.45-15.67Q9.08-15.67 10.10-16.08Q11.12-16.49 11.59-17.48Q12.07-18.46 12.07-20.23L12.07-20.23Q12.07-22.64 11.19-23.72Q10.30-24.79 7.68-24.79L7.68-24.79L5.98-24.79ZM32.53 0L21.79 0L21.79-27.54L32.46-27.54L32.46-24.68L25.63-24.68L25.63-15.57L31.17-15.57L31.17-12.85L25.63-12.85L25.63-2.75L32.53-2.75L32.53 0ZM44.49 0L40.65 0L40.65-24.68L35.99-24.68L35.99-27.54L49.02-27.54L49.02-24.68L44.49-24.68L44.49 0ZM55.78 0L52.17 0L58.02-27.54L61.73-27.54L67.61 0L63.97 0L62.71-6.94L57.10-6.94L55.78 0ZM59.89-22.10L57.61-9.69L62.20-9.69L59.89-22.10ZM78.69 0L72.40 0L72.40-27.54L78.38-27.54Q81.44-27.54 83.23-26.61Q85.01-25.67 85.78-23.80Q86.54-21.93 86.54-19.14L86.54-19.14L86.54-9.01Q86.54-6.09 85.78-4.08Q85.01-2.07 83.29-1.04Q81.58 0 78.69 0L78.69 0ZM76.24-24.68L76.24-2.75L78.41-2.75Q80.52-2.75 81.41-3.57Q82.29-4.39 82.48-5.95Q82.66-7.51 82.66-9.72L82.66-9.72L82.66-18.67Q82.66-20.81 82.39-22.13Q82.12-23.46 81.20-24.07Q80.28-24.68 78.31-24.68L78.31-24.68L76.24-24.68ZM99.35 0.31L99.35 0.31Q96.56 0.31 94.90-0.78Q93.23-1.87 92.52-3.89Q91.80-5.92 91.80-8.64L91.80-8.64L91.80-19.07Q91.80-21.79 92.54-23.75Q93.27-25.70 94.92-26.74Q96.56-27.78 99.35-27.78L99.35-27.78Q102.14-27.78 103.77-26.72Q105.40-25.67 106.14-23.73Q106.87-21.79 106.87-19.07L106.87-19.07L106.87-8.60Q106.87-5.92 106.14-3.91Q105.40-1.90 103.77-0.80Q102.14 0.31 99.35 0.31ZM99.35-2.72L99.35-2.72Q100.88-2.72 101.66-3.35Q102.45-3.98 102.72-5.12Q102.99-6.26 102.99-7.79L102.99-7.79L102.99-19.86Q102.99-21.39 102.72-22.49Q102.45-23.60 101.66-24.19Q100.88-24.79 99.35-24.79L99.35-24.79Q97.82-24.79 97.02-24.19Q96.22-23.60 95.95-22.49Q95.68-21.39 95.68-19.86L95.68-19.86L95.68-7.79Q95.68-6.26 95.95-5.12Q96.22-3.98 97.02-3.35Q97.82-2.72 99.35-2.72ZM116.48 0L112.64 0L112.64-27.54L118.18-27.54Q120.94-27.54 122.74-26.81Q124.54-26.08 125.41-24.46Q126.27-22.85 126.27-20.23L126.27-20.23Q126.27-18.63 125.93-17.32Q125.59-16.01 124.85-15.11Q124.10-14.21 122.87-13.80L122.87-13.80L126.78 0L123.08 0L119.47-12.92L116.48-12.92L116.48 0ZM116.48-24.79L116.48-15.67L117.94-15.67Q119.58-15.67 120.60-16.08Q121.62-16.49 122.09-17.48Q122.57-18.46 122.57-20.23L122.57-20.23Q122.57-22.64 121.68-23.72Q120.80-24.79 118.18-24.79L118.18-24.79L116.48-24.79Z" fill="#f2ecdd"/></g><g transform="translate(1013.3 326)" opacity="1"><path d="M9.45 0L5.81 0L5.81-22.78Q5.78-22.75 5.05-22.58Q4.32-22.41 3.40-22.24Q2.48-22.07 1.77-21.93Q1.05-21.79 1.02-21.79L1.02-21.79L1.02-24.55Q1.60-24.68 2.36-24.92Q3.13-25.16 3.93-25.50Q4.73-25.84 5.46-26.35Q6.19-26.86 6.70-27.54L6.70-27.54L9.45-27.54L9.45 0ZM22.11 0.27L22.11 0.27Q19.63 0.27 18.17-0.68Q16.71-1.63 16.08-3.43Q15.45-5.24 15.45-7.72L15.45-7.72L19.09-7.72Q19.09-6.49 19.29-5.32Q19.50-4.15 20.16-3.38Q20.82-2.62 22.18-2.62L22.18-2.62Q23.68-2.62 24.32-3.49Q24.97-4.35 25.14-5.83Q25.31-7.31 25.31-9.18L25.31-9.18Q25.31-11.05 25.11-12.36Q24.90-13.67 24.26-14.37Q23.61-15.06 22.22-15.06L22.22-15.06Q21.09-15.06 20.31-14.37Q19.53-13.67 19.16-12.78L19.16-12.78L16.06-12.78L16.06-27.54L27.93-27.54L27.93-23.90L19.36-23.90L19.12-16.29Q19.80-17 20.80-17.41Q21.81-17.82 23.10-17.82L23.10-17.82Q25.34-17.82 26.62-16.76Q27.89-15.71 28.42-13.87Q28.95-12.04 28.95-9.66L28.95-9.66Q28.95-7.55 28.64-5.73Q28.34-3.91 27.57-2.57Q26.81-1.22 25.48-0.48Q24.15 0.27 22.11 0.27ZM39.54 0.31L39.54 0.31Q37.05 0.31 35.56-0.68Q34.06-1.67 33.40-3.49Q32.74-5.30 32.74-7.75L32.74-7.75Q32.74-9.15 32.97-10.20Q33.21-11.25 33.67-12.05Q34.13-12.85 34.76-13.45Q35.39-14.04 36.14-14.52L36.14-14.52Q34.78-15.44 33.93-16.92Q33.08-18.39 33.08-20.67L33.08-20.67Q33.08-22.85 33.76-24.45Q34.44-26.04 35.88-26.91Q37.33-27.78 39.54-27.78L39.54-27.78Q41.75-27.78 43.16-26.91Q44.57-26.04 45.25-24.45Q45.93-22.85 45.93-20.67L45.93-20.67Q45.93-18.36 45.09-16.90Q44.26-15.44 42.87-14.52L42.87-14.52Q43.62-14.04 44.25-13.45Q44.87-12.85 45.33-12.05Q45.79-11.25 46.05-10.20Q46.30-9.15 46.30-7.75L46.30-7.75Q46.30-5.30 45.64-3.49Q44.98-1.67 43.50-0.68Q42.02 0.31 39.54 0.31ZM39.54-2.58L39.54-2.58Q40.86-2.58 41.58-3.26Q42.29-3.94 42.55-5.10Q42.80-6.26 42.80-7.68L42.80-7.68Q42.80-8.98 42.51-10.12Q42.22-11.25 41.51-11.99Q40.79-12.72 39.54-12.72L39.54-12.72Q38.28-12.72 37.55-12.00Q36.82-11.29 36.51-10.15Q36.20-9.01 36.20-7.68L36.20-7.68Q36.20-6.26 36.48-5.10Q36.75-3.94 37.48-3.26Q38.21-2.58 39.54-2.58ZM39.54-16.18L39.54-16.18Q40.69-16.22 41.29-16.90Q41.88-17.58 42.12-18.65Q42.36-19.72 42.36-20.88L42.36-20.88Q42.36-22.58 41.75-23.77Q41.13-24.96 39.54-24.96L39.54-24.96Q37.94-24.96 37.29-23.77Q36.65-22.58 36.65-20.88L36.65-20.88Q36.65-19.72 36.88-18.65Q37.12-17.58 37.75-16.90Q38.38-16.22 39.54-16.18ZM63.38 0L50.40 0L50.40-2.58L57.40-13.50Q58.18-14.72 58.84-15.78Q59.51-16.83 59.93-18.00Q60.36-19.18 60.36-20.71L60.36-20.71Q60.36-22.61 59.75-23.70Q59.13-24.79 57.60-24.79L57.60-24.79Q56.31-24.79 55.60-24.07Q54.88-23.36 54.61-22.20Q54.34-21.05 54.34-19.72L54.34-19.72L54.34-18.80L50.70-18.80L50.70-19.75Q50.70-22.24 51.37-24.02Q52.03-25.81 53.51-26.79Q54.99-27.78 57.43-27.78L57.43-27.78Q60.77-27.78 62.40-25.89Q64.03-24.00 64.03-20.67L64.03-20.67Q64.03-18.90 63.61-17.58Q63.18-16.25 62.50-15.10Q61.82-13.94 61.00-12.72L61.00-12.72L54.68-3.06L63.38-3.06L63.38 0ZM87.93 0L77.18 0L77.18-27.54L87.86-27.54L87.86-24.68L81.02-24.68L81.02-15.57L86.57-15.57L86.57-12.85L81.02-12.85L81.02-2.75L87.93-2.75L87.93 0ZM102.90 0L92.02 0L92.02-27.54L95.86-27.54L95.86-2.75L102.90-2.75L102.90 0ZM113.56 0.31L113.56 0.31Q110.77 0.31 109.10-0.78Q107.44-1.87 106.72-3.89Q106.01-5.92 106.01-8.64L106.01-8.64L106.01-19.07Q106.01-21.79 106.74-23.75Q107.47-25.70 109.12-26.74Q110.77-27.78 113.56-27.78L113.56-27.78Q116.34-27.78 117.98-26.72Q119.61-25.67 120.34-23.73Q121.07-21.79 121.07-19.07L121.07-19.07L121.07-8.60Q121.07-5.92 120.34-3.91Q119.61-1.90 117.98-0.80Q116.34 0.31 113.56 0.31ZM113.56-2.72L113.56-2.72Q115.09-2.72 115.87-3.35Q116.65-3.98 116.92-5.12Q117.19-6.26 117.19-7.79L117.19-7.79L117.19-19.86Q117.19-21.39 116.92-22.49Q116.65-23.60 115.87-24.19Q115.09-24.79 113.56-24.79L113.56-24.79Q112.03-24.79 111.23-24.19Q110.43-23.60 110.16-22.49Q109.88-21.39 109.88-19.86L109.88-19.86L109.88-7.79Q109.88-6.26 110.16-5.12Q110.43-3.98 111.23-3.35Q112.03-2.72 113.56-2.72Z" fill="#a8a294"/></g><rect x="760" y="342" width="376" height="1" fill="#26262e"/><g transform="translate(760 402)" opacity="1"><path d="M9.88 0.31L9.88 0.31Q5.53 0.31 3.15-2.13Q0.78-4.57 0.78-9.16L0.78-9.16L0.78-24.67Q0.78-29.51 3.04-32.10Q5.29-34.69 9.88-34.69L9.88-34.69Q14.49-34.69 16.74-32.10Q18.98-29.51 18.98-24.67L18.98-24.67L18.98-9.16Q18.98-4.57 16.62-2.13Q14.26 0.31 9.88 0.31ZM9.88-6.02L9.88-6.02Q10.68-6.02 11.13-6.74Q11.58-7.46 11.58-8.36L11.58-8.36L11.58-25.33Q11.58-26.54 11.32-27.45Q11.05-28.36 9.88-28.36L9.88-28.36Q8.71-28.36 8.45-27.45Q8.18-26.54 8.18-25.33L8.18-25.33L8.18-8.36Q8.18-7.46 8.64-6.74Q9.10-6.02 9.88-6.02ZM29.22 0.39L29.22 0.39Q24.67 0.39 22.60-2.01Q20.53-4.41 20.53-9.26L20.53-9.26L20.53-12.85L27.58-12.85L27.58-9.24Q27.58-7.87 27.92-6.92Q28.26-5.98 29.45-5.98L29.45-5.98Q30.66-5.98 31.00-7.00Q31.33-8.03 31.33-10.35L31.33-10.35L31.33-11.21Q31.33-12.99 30.73-14.32Q30.14-15.64 28.40-15.64L28.40-15.64Q28.18-15.64 28.02-15.63Q27.85-15.63 27.73-15.61L27.73-15.61L27.73-21.78Q29.51-21.78 30.45-22.57Q31.39-23.36 31.39-25.21L31.39-25.21Q31.39-28.13 29.71-28.13L29.71-28.13Q28.61-28.13 28.23-27.28Q27.85-26.43 27.85-25.12L27.85-25.12L27.85-24.08L20.74-24.08Q20.72-24.32 20.71-24.65Q20.70-24.98 20.70-25.29L20.70-25.29Q20.70-30.02 22.91-32.23Q25.12-34.43 29.67-34.43L29.67-34.43Q38.46-34.43 38.46-25.29L38.46-25.29Q38.46-22.75 37.77-21.10Q37.09-19.45 35.23-18.79L35.23-18.79Q36.70-18.09 37.40-16.99Q38.11-15.90 38.32-14.28Q38.54-12.66 38.54-10.35L38.54-10.35Q38.54-5.20 36.38-2.40Q34.22 0.39 29.22 0.39Z" fill="#e8192c"/></g><g transform="translate(830 402)" opacity="1"><path d="M4.25 0L0.65 0L6.49-27.54L10.20-27.54L16.08 0L12.44 0L11.19-6.94L5.58-6.94L4.25 0ZM8.36-22.10L6.09-9.69L10.68-9.69L8.36-22.10ZM23.93 0L20.80 0L21.31-27.54L25.09-27.54L29.95-5.20L34.84-27.54L38.58-27.54L39.09 0L36 0L35.69-19.99L31.04 0L28.86 0L24.24-19.99L23.93 0ZM56.05 0L45.31 0L45.31-27.54L55.99-27.54L55.99-24.68L49.15-24.68L49.15-15.57L54.69-15.57L54.69-12.85L49.15-12.85L49.15-2.75L56.05-2.75L56.05 0ZM64.41 0L61.15 0L61.15-27.54L63.77-27.54L71.59-9.25L71.59-27.54L74.78-27.54L74.78 0L72.33 0L64.41-18.80L64.41 0ZM83.21 0L79.60 0L85.45-27.54L89.16-27.54L95.04 0L91.40 0L90.14-6.94L84.53-6.94L83.21 0ZM87.32-22.10L85.04-9.69L89.63-9.69L87.32-22.10ZM111.15 0L98.98 0L98.98-2.75L107.07-24.79L99.49-24.79L99.49-27.54L111.15-27.54L111.15-25.87L102.62-2.75L111.15-2.75L111.15 0ZM118.11 0L114.51 0L120.36-27.54L124.06-27.54L129.95 0L126.31 0L125.05-6.94L119.44-6.94L118.11 0ZM122.23-22.10L119.95-9.69L124.54-9.69L122.23-22.10Z" fill="#f2ecdd"/></g><g transform="translate(1017.24 402)" opacity="1"><path d="M9.45 0L5.81 0L5.81-22.78Q5.78-22.75 5.05-22.58Q4.32-22.41 3.40-22.24Q2.48-22.07 1.77-21.93Q1.05-21.79 1.02-21.79L1.02-21.79L1.02-24.55Q1.60-24.68 2.36-24.92Q3.13-25.16 3.93-25.50Q4.73-25.84 5.46-26.35Q6.19-26.86 6.70-27.54L6.70-27.54L9.45-27.54L9.45 0ZM22.11 0.27L22.11 0.27Q19.63 0.27 18.17-0.68Q16.71-1.63 16.08-3.43Q15.45-5.24 15.45-7.72L15.45-7.72L19.09-7.72Q19.09-6.49 19.29-5.32Q19.50-4.15 20.16-3.38Q20.82-2.62 22.18-2.62L22.18-2.62Q23.68-2.62 24.32-3.49Q24.97-4.35 25.14-5.83Q25.31-7.31 25.31-9.18L25.31-9.18Q25.31-11.05 25.11-12.36Q24.90-13.67 24.26-14.37Q23.61-15.06 22.22-15.06L22.22-15.06Q21.09-15.06 20.31-14.37Q19.53-13.67 19.16-12.78L19.16-12.78L16.06-12.78L16.06-27.54L27.93-27.54L27.93-23.90L19.36-23.90L19.12-16.29Q19.80-17 20.80-17.41Q21.81-17.82 23.10-17.82L23.10-17.82Q25.34-17.82 26.62-16.76Q27.89-15.71 28.42-13.87Q28.95-12.04 28.95-9.66L28.95-9.66Q28.95-7.55 28.64-5.73Q28.34-3.91 27.57-2.57Q26.81-1.22 25.48-0.48Q24.15 0.27 22.11 0.27ZM40.49 0L36.85 0L36.85-22.78Q36.82-22.75 36.09-22.58Q35.35-22.41 34.44-22.24Q33.52-22.07 32.80-21.93Q32.09-21.79 32.06-21.79L32.06-21.79L32.06-24.55Q32.63-24.68 33.40-24.92Q34.16-25.16 34.96-25.50Q35.76-25.84 36.49-26.35Q37.22-26.86 37.73-27.54L37.73-27.54L40.49-27.54L40.49 0ZM57.71 0L54.24 0L54.24-7.38L46.25-7.38L46.25-11.19L53.42-27.54L57.71-27.54L57.71-10.61L60.80-10.61L60.80-7.38L57.71-7.38L57.71 0ZM54.24-23.12L49.75-10.61L54.24-10.61L54.24-23.12ZM83.98 0L73.24 0L73.24-27.54L83.91-27.54L83.91-24.68L77.08-24.68L77.08-15.57L82.62-15.57L82.62-12.85L77.08-12.85L77.08-2.75L83.98-2.75L83.98 0ZM98.96 0L88.08 0L88.08-27.54L91.92-27.54L91.92-2.75L98.96-2.75L98.96 0ZM109.61 0.31L109.61 0.31Q106.82 0.31 105.16-0.78Q103.49-1.87 102.78-3.89Q102.06-5.92 102.06-8.64L102.06-8.64L102.06-19.07Q102.06-21.79 102.80-23.75Q103.53-25.70 105.17-26.74Q106.82-27.78 109.61-27.78L109.61-27.78Q112.40-27.78 114.03-26.72Q115.66-25.67 116.40-23.73Q117.13-21.79 117.13-19.07L117.13-19.07L117.13-8.60Q117.13-5.92 116.40-3.91Q115.66-1.90 114.03-0.80Q112.40 0.31 109.61 0.31ZM109.61-2.72L109.61-2.72Q111.14-2.72 111.92-3.35Q112.71-3.98 112.98-5.12Q113.25-6.26 113.25-7.79L113.25-7.79L113.25-19.86Q113.25-21.39 112.98-22.49Q112.71-23.60 111.92-24.19Q111.14-24.79 109.61-24.79L109.61-24.79Q108.08-24.79 107.28-24.19Q106.48-23.60 106.21-22.49Q105.94-21.39 105.94-19.86L105.94-19.86L105.94-7.79Q105.94-6.26 106.21-5.12Q106.48-3.98 107.28-3.35Q108.08-2.72 109.61-2.72Z" fill="#a8a294"/></g><rect x="760" y="418" width="376" height="1" fill="#26262e"/></g>

	<circle cx="74" cy="578" r="6" fill="#e8192c"/>
	<g transform="translate(92 586)" opacity="1"><path d="M3.87 0L1.39 0L1.39-17.82L8.27-17.82L8.27-16.04L3.87-16.04L3.87-10.10L7.28-10.10L7.28-8.34L3.87-8.34L3.87 0ZM15.47 0L12.99 0L12.99-17.82L16.57-17.82Q18.36-17.82 19.52-17.35Q20.69-16.87 21.25-15.83Q21.81-14.78 21.81-13.09L21.81-13.09Q21.81-12.06 21.59-11.21Q21.37-10.36 20.89-9.78Q20.40-9.20 19.61-8.93L19.61-8.93L22.14 0L19.74 0L17.41-8.36L15.47-8.36L15.47 0ZM15.47-16.04L15.47-10.14L16.42-10.14Q17.48-10.14 18.14-10.41Q18.80-10.67 19.10-11.31Q19.41-11.95 19.41-13.09L19.41-13.09Q19.41-14.65 18.84-15.34Q18.27-16.04 16.57-16.04L16.57-16.04L15.47-16.04ZM34.36 0L27.41 0L27.41-17.82L34.31-17.82L34.31-15.97L29.89-15.97L29.89-10.08L33.48-10.08L33.48-8.32L29.89-8.32L29.89-1.78L34.36-1.78L34.36 0ZM46.31 0L39.36 0L39.36-17.82L46.27-17.82L46.27-15.97L41.85-15.97L41.85-10.08L45.43-10.08L45.43-8.32L41.85-8.32L41.85-1.78L46.31-1.78L46.31 0ZM55.52 0.20L55.52 0.20Q53.98 0.20 52.95-0.46Q51.93-1.12 51.40-2.29Q50.87-3.45 50.79-4.99L50.79-4.99L52.99-5.59Q53.05-4.64 53.28-3.76Q53.51-2.88 54.04-2.32Q54.57-1.76 55.52-1.76L55.52-1.76Q56.48-1.76 56.98-2.30Q57.47-2.84 57.47-3.85L57.47-3.85Q57.47-5.06 56.92-5.80Q56.37-6.53 55.54-7.28L55.54-7.28L52.55-9.92Q51.67-10.69 51.25-11.60Q50.83-12.52 50.83-13.86L50.83-13.86Q50.83-15.82 51.95-16.90Q53.07-17.97 55.01-17.97L55.01-17.97Q56.07-17.97 56.87-17.70Q57.67-17.42 58.21-16.85Q58.75-16.28 59.07-15.41Q59.39-14.54 59.50-13.38L59.50-13.38L57.39-12.80Q57.32-13.68 57.12-14.42Q56.92-15.16 56.43-15.61Q55.93-16.06 55.01-16.06L55.01-16.06Q54.09-16.06 53.57-15.56Q53.05-15.07 53.05-14.10L53.05-14.10Q53.05-13.29 53.33-12.76Q53.60-12.23 54.22-11.68L54.22-11.68L57.23-9.04Q58.24-8.16 59.01-6.94Q59.78-5.72 59.78-4.05L59.78-4.05Q59.78-2.73 59.23-1.77Q58.68-0.81 57.73-0.31Q56.77 0.20 55.52 0.20ZM69.16 0L66.68 0L66.68-15.97L63.66-15.97L63.66-17.82L72.09-17.82L72.09-15.97L69.16-15.97L69.16 0ZM81.91 0L79.53 0L79.53-6.29L75.68-17.82L77.99-17.82L80.72-9.22L83.41-17.82L85.74-17.82L81.91-6.29L81.91 0ZM97.43 0L90.39 0L90.39-17.82L92.87-17.82L92.87-1.78L97.43-1.78L97.43 0ZM109.07 0L102.12 0L102.12-17.82L109.03-17.82L109.03-15.97L104.61-15.97L104.61-10.08L108.19-10.08L108.19-8.32L104.61-8.32L104.61-1.78L109.07-1.78L109.07 0ZM126.67 0.20L126.67 0.20Q124.86 0.20 123.79-0.51Q122.71-1.21 122.25-2.52Q121.78-3.83 121.78-5.59L121.78-5.59L121.78-12.34Q121.78-14.10 122.26-15.37Q122.73-16.63 123.80-17.30Q124.86-17.97 126.67-17.97L126.67-17.97Q128.47-17.97 129.53-17.29Q130.58-16.61 131.06-15.36Q131.53-14.10 131.53-12.34L131.53-12.34L131.53-5.57Q131.53-3.83 131.06-2.53Q130.58-1.23 129.53-0.52Q128.47 0.20 126.67 0.20ZM126.67-1.76L126.67-1.76Q127.66-1.76 128.16-2.17Q128.67-2.57 128.85-3.31Q129.02-4.05 129.02-5.04L129.02-5.04L129.02-12.85Q129.02-13.84 128.85-14.55Q128.67-15.27 128.16-15.65Q127.66-16.04 126.67-16.04L126.67-16.04Q125.68-16.04 125.16-15.65Q124.64-15.27 124.47-14.55Q124.29-13.84 124.29-12.85L124.29-12.85L124.29-5.04Q124.29-4.05 124.47-3.31Q124.64-2.57 125.16-2.17Q125.68-1.76 126.67-1.76ZM139.08 0L136.97 0L136.97-17.82L138.67-17.82L143.73-5.98L143.73-17.82L145.79-17.82L145.79 0L144.21 0L139.08-12.17L139.08 0ZM158.63 0L151.59 0L151.59-17.82L154.07-17.82L154.07-1.78L158.63-1.78L158.63 0ZM165.90 0L163.45 0L163.45-17.82L165.90-17.82L165.90 0ZM173.89 0L171.78 0L171.78-17.82L173.47-17.82L178.53-5.98L178.53-17.82L180.60-17.82L180.60 0L179.02 0L173.89-12.17L173.89 0ZM193.35 0L186.39 0L186.39-17.82L193.30-17.82L193.30-15.97L188.88-15.97L188.88-10.08L192.47-10.08L192.47-8.32L188.88-8.32L188.88-1.78L193.35-1.78L193.35 0ZM208.17-7.08L205.79-7.08L205.79-9.50L208.17-9.50L208.17-7.08ZM225.50 0.20L225.50 0.20Q223.96 0.20 222.94-0.46Q221.91-1.12 221.38-2.29Q220.86-3.45 220.77-4.99L220.77-4.99L222.97-5.59Q223.03-4.64 223.27-3.76Q223.50-2.88 224.02-2.32Q224.55-1.76 225.50-1.76L225.50-1.76Q226.47-1.76 226.96-2.30Q227.46-2.84 227.46-3.85L227.46-3.85Q227.46-5.06 226.91-5.80Q226.36-6.53 225.52-7.28L225.52-7.28L222.53-9.92Q221.65-10.69 221.23-11.60Q220.81-12.52 220.81-13.86L220.81-13.86Q220.81-15.82 221.93-16.90Q223.06-17.97 224.99-17.97L224.99-17.97Q226.05-17.97 226.85-17.70Q227.65-17.42 228.19-16.85Q228.73-16.28 229.05-15.41Q229.37-14.54 229.48-13.38L229.48-13.38L227.37-12.80Q227.30-13.68 227.10-14.42Q226.91-15.16 226.41-15.61Q225.92-16.06 224.99-16.06L224.99-16.06Q224.07-16.06 223.55-15.56Q223.03-15.07 223.03-14.10L223.03-14.10Q223.03-13.29 223.31-12.76Q223.58-12.23 224.20-11.68L224.20-11.68L227.21-9.04Q228.23-8.16 229.00-6.94Q229.77-5.72 229.77-4.05L229.77-4.05Q229.77-2.73 229.22-1.77Q228.67-0.81 227.71-0.31Q226.75 0.20 225.50 0.20ZM237.28 0L234.83 0L234.83-17.82L237.28-17.82L237.28 0ZM245.27 0L243.16 0L243.16-17.82L244.85-17.82L249.91-5.98L249.91-17.82L251.98-17.82L251.98 0L250.40 0L245.27-12.17L245.27 0ZM269.88 0L265.81 0L265.81-17.82L269.68-17.82Q271.66-17.82 272.82-17.21Q273.97-16.61 274.47-15.40Q274.96-14.19 274.96-12.39L274.96-12.39L274.96-5.83Q274.96-3.94 274.47-2.64Q273.97-1.34 272.86-0.67Q271.75 0 269.88 0L269.88 0ZM268.30-15.97L268.30-1.78L269.71-1.78Q271.07-1.78 271.64-2.31Q272.21-2.84 272.34-3.85Q272.46-4.86 272.46-6.29L272.46-6.29L272.46-12.08Q272.46-13.46 272.28-14.32Q272.10-15.18 271.51-15.58Q270.92-15.97 269.64-15.97L269.64-15.97L268.30-15.97ZM287.36 0L280.41 0L280.41-17.82L287.31-17.82L287.31-15.97L282.89-15.97L282.89-10.08L286.48-10.08L286.48-8.32L282.89-8.32L282.89-1.78L287.36-1.78L287.36 0ZM296.56 0.20L296.56 0.20Q295.02 0.20 294.00-0.46Q292.98-1.12 292.45-2.29Q291.92-3.45 291.83-4.99L291.83-4.99L294.03-5.59Q294.10-4.64 294.33-3.76Q294.56-2.88 295.09-2.32Q295.62-1.76 296.56-1.76L296.56-1.76Q297.53-1.76 298.03-2.30Q298.52-2.84 298.52-3.85L298.52-3.85Q298.52-5.06 297.97-5.80Q297.42-6.53 296.58-7.28L296.58-7.28L293.59-9.92Q292.71-10.69 292.29-11.60Q291.88-12.52 291.88-13.86L291.88-13.86Q291.88-15.82 293.00-16.90Q294.12-17.97 296.06-17.97L296.06-17.97Q297.11-17.97 297.92-17.70Q298.72-17.42 299.26-16.85Q299.80-16.28 300.12-15.41Q300.43-14.54 300.54-13.38L300.54-13.38L298.43-12.80Q298.37-13.68 298.17-14.42Q297.97-15.16 297.48-15.61Q296.98-16.06 296.06-16.06L296.06-16.06Q295.13-16.06 294.62-15.56Q294.10-15.07 294.10-14.10L294.10-14.10Q294.10-13.29 294.37-12.76Q294.65-12.23 295.26-11.68L295.26-11.68L298.28-9.04Q299.29-8.16 300.06-6.94Q300.83-5.72 300.83-4.05L300.83-4.05Q300.83-2.73 300.28-1.77Q299.73-0.81 298.77-0.31Q297.82 0.20 296.56 0.20ZM310.23 0.20L310.23 0.20Q308.34 0.20 307.30-0.59Q306.25-1.39 305.84-2.73Q305.44-4.07 305.44-5.72L305.44-5.72L305.44-12.01Q305.44-13.82 305.84-15.16Q306.25-16.50 307.30-17.24Q308.34-17.97 310.23-17.97L310.23-17.97Q311.90-17.97 312.88-17.36Q313.86-16.74 314.29-15.60Q314.72-14.45 314.72-12.85L314.72-12.85L314.72-11.44L312.37-11.44L312.37-12.69Q312.37-13.68 312.27-14.44Q312.17-15.20 311.73-15.62Q311.29-16.04 310.25-16.04L310.25-16.04Q309.20-16.04 308.71-15.59Q308.23-15.14 308.09-14.31Q307.94-13.49 307.94-12.39L307.94-12.39L307.94-5.32Q307.94-3.98 308.16-3.20Q308.38-2.42 308.89-2.09Q309.40-1.76 310.25-1.76L310.25-1.76Q311.27-1.76 311.71-2.21Q312.15-2.66 312.26-3.45Q312.37-4.25 312.37-5.30L312.37-5.30L312.37-6.62L314.72-6.62L314.72-5.30Q314.72-3.67 314.32-2.43Q313.93-1.19 312.96-0.49Q311.99 0.20 310.23 0.20ZM321.46 0L319.13 0L322.91-17.82L325.31-17.82L329.12 0L326.76 0L325.95-4.49L322.32-4.49L321.46 0ZM324.12-14.30L322.65-6.27L325.62-6.27L324.12-14.30ZM336.41 0L333.92 0L333.92-17.82L337.51-17.82Q339.29-17.82 340.45-17.35Q341.62-16.87 342.18-15.83Q342.74-14.78 342.74-13.09L342.74-13.09Q342.74-12.06 342.52-11.21Q342.30-10.36 341.82-9.78Q341.33-9.20 340.54-8.93L340.54-8.93L343.07 0L340.67 0L338.34-8.36L336.41-8.36L336.41 0ZM336.41-16.04L336.41-10.14L337.35-10.14Q338.41-10.14 339.07-10.41Q339.73-10.67 340.04-11.31Q340.34-11.95 340.34-13.09L340.34-13.09Q340.34-14.65 339.77-15.34Q339.20-16.04 337.51-16.04L337.51-16.04L336.41-16.04ZM352.58 0.22L352.58 0.22Q350.91 0.22 349.91-0.49Q348.91-1.21 348.46-2.57Q348.01-3.94 348.01-5.85L348.01-5.85L348.01-11.81Q348.01-13.77 348.42-15.15Q348.82-16.52 349.87-17.25Q350.91-17.97 352.78-17.97L352.78-17.97Q354.45-17.97 355.48-17.41Q356.50-16.85 356.96-15.70Q357.42-14.54 357.42-12.78L357.42-12.78L357.42-12.12L355.09-12.12L355.09-12.67Q355.09-13.84 354.94-14.57Q354.78-15.31 354.31-15.67Q353.84-16.04 352.83-16.04L352.83-16.04Q351.73-16.04 351.23-15.53Q350.74-15.03 350.62-14.16Q350.49-13.29 350.49-12.19L350.49-12.19L350.49-5.59Q350.49-4.31 350.68-3.45Q350.87-2.60 351.40-2.18Q351.92-1.76 352.89-1.76L352.89-1.76Q353.86-1.76 354.39-2.22Q354.92-2.68 355.11-3.59Q355.31-4.49 355.31-5.83L355.31-5.83L355.31-7.06L353.05-7.06L353.05-8.82L357.56-8.82L357.56 0L355.99 0L355.75-2.05Q355.40-1.06 354.65-0.42Q353.90 0.22 352.58 0.22ZM364.47 0L362.14 0L365.92-17.82L368.32-17.82L372.13 0L369.77 0L368.96-4.49L365.33-4.49L364.47 0ZM367.13-14.30L365.66-6.27L368.63-6.27L367.13-14.30ZM381.13 0.20L381.13 0.20Q379.59 0.20 378.57-0.46Q377.55-1.12 377.02-2.29Q376.49-3.45 376.40-4.99L376.40-4.99L378.60-5.59Q378.67-4.64 378.90-3.76Q379.13-2.88 379.66-2.32Q380.19-1.76 381.13-1.76L381.13-1.76Q382.10-1.76 382.60-2.30Q383.09-2.84 383.09-3.85L383.09-3.85Q383.09-5.06 382.54-5.80Q381.99-6.53 381.16-7.28L381.16-7.28L378.16-9.92Q377.28-10.69 376.87-11.60Q376.45-12.52 376.45-13.86L376.45-13.86Q376.45-15.82 377.57-16.90Q378.69-17.97 380.63-17.97L380.63-17.97Q381.68-17.97 382.49-17.70Q383.29-17.42 383.83-16.85Q384.37-16.28 384.69-15.41Q385.01-14.54 385.12-13.38L385.12-13.38L383.00-12.80Q382.94-13.68 382.74-14.42Q382.54-15.16 382.05-15.61Q381.55-16.06 380.63-16.06L380.63-16.06Q379.70-16.06 379.19-15.56Q378.67-15.07 378.67-14.10L378.67-14.10Q378.67-13.29 378.95-12.76Q379.22-12.23 379.84-11.68L379.84-11.68L382.85-9.04Q383.86-8.16 384.63-6.94Q385.40-5.72 385.40-4.05L385.40-4.05Q385.40-2.73 384.85-1.77Q384.30-0.81 383.35-0.31Q382.39 0.20 381.13 0.20Z" fill="#a8a294"/></g>
	<g transform="translate(973.63 586)" opacity="1"><path d="M3.87 0L1.39 0L1.39-17.82L4.97-17.82Q6.75-17.82 7.92-17.35Q9.09-16.87 9.65-15.83Q10.21-14.78 10.21-13.09L10.21-13.09Q10.21-12.06 9.99-11.21Q9.77-10.36 9.28-9.78Q8.80-9.20 8.01-8.93L8.01-8.93L10.54 0L8.14 0L5.81-8.36L3.87-8.36L3.87 0ZM3.87-16.04L3.87-10.14L4.82-10.14Q5.87-10.14 6.53-10.41Q7.19-10.67 7.50-11.31Q7.81-11.95 7.81-13.09L7.81-13.09Q7.81-14.65 7.24-15.34Q6.67-16.04 4.97-16.04L4.97-16.04L3.87-16.04ZM17.17 0L14.84 0L18.62-17.82L21.02-17.82L24.82 0L22.47 0L21.66-4.49L18.03-4.49L17.17 0ZM19.83-14.30L18.36-6.27L21.33-6.27L19.83-14.30ZM32.11 0L29.63 0L29.63-17.82L34.05-17.82Q35.66-17.82 36.61-17.24Q37.57-16.65 38.01-15.55Q38.45-14.45 38.45-12.89L38.45-12.89Q38.45-11.48 37.95-10.45Q37.46-9.42 36.49-8.85Q35.52-8.29 34.07-8.29L34.07-8.29L32.11-8.29L32.11 0ZM32.11-16.04L32.11-10.08L33.26-10.08Q34.34-10.08 34.95-10.32Q35.57-10.56 35.83-11.16Q36.10-11.77 36.10-12.87L36.10-12.87Q36.10-14.15 35.91-14.83Q35.72-15.51 35.13-15.77Q34.53-16.04 33.28-16.04L33.28-16.04L32.11-16.04ZM50.14 0L43.19 0L43.19-17.82L50.10-17.82L50.10-15.97L45.67-15.97L45.67-10.08L49.26-10.08L49.26-8.32L45.67-8.32L45.67-1.78L50.14-1.78L50.14 0ZM56.51 0L54.17 0L57.96-17.82L60.36-17.82L64.16 0L61.81 0L60.99-4.49L57.36-4.49L56.51 0ZM59.17-14.30L57.69-6.27L60.66-6.27L59.17-14.30ZM71.45 0L68.97 0L68.97-17.82L72.55-17.82Q74.33-17.82 75.50-17.35Q76.67-16.87 77.23-15.83Q77.79-14.78 77.79-13.09L77.79-13.09Q77.79-12.06 77.57-11.21Q77.35-10.36 76.86-9.78Q76.38-9.20 75.59-8.93L75.59-8.93L78.12 0L75.72 0L73.39-8.36L71.45-8.36L71.45 0ZM71.45-16.04L71.45-10.14L72.40-10.14Q73.45-10.14 74.11-10.41Q74.77-10.67 75.08-11.31Q75.39-11.95 75.39-13.09L75.39-13.09Q75.39-14.65 74.82-15.34Q74.25-16.04 72.55-16.04L72.55-16.04L71.45-16.04ZM85.43 0L83.08 0L83.08-2.62L85.43-2.62L85.43 0ZM95.07 0.20L95.07 0.20Q93.27 0.20 92.19-0.51Q91.11-1.21 90.65-2.52Q90.19-3.83 90.19-5.59L90.19-5.59L90.19-12.34Q90.19-14.10 90.66-15.37Q91.14-16.63 92.20-17.30Q93.27-17.97 95.07-17.97L95.07-17.97Q96.88-17.97 97.93-17.29Q98.99-16.61 99.46-15.36Q99.94-14.10 99.94-12.34L99.94-12.34L99.94-5.57Q99.94-3.83 99.46-2.53Q98.99-1.23 97.93-0.52Q96.88 0.20 95.07 0.20ZM95.07-1.76L95.07-1.76Q96.06-1.76 96.57-2.17Q97.08-2.57 97.25-3.31Q97.43-4.05 97.43-5.04L97.43-5.04L97.43-12.85Q97.43-13.84 97.25-14.55Q97.08-15.27 96.57-15.65Q96.06-16.04 95.07-16.04L95.07-16.04Q94.08-16.04 93.57-15.65Q93.05-15.27 92.87-14.55Q92.70-13.84 92.70-12.85L92.70-12.85L92.70-5.04Q92.70-4.05 92.87-3.31Q93.05-2.57 93.57-2.17Q94.08-1.76 95.07-1.76ZM107.49 0L105.38 0L105.38-17.82L107.07-17.82L112.13-5.98L112.13-17.82L114.20-17.82L114.20 0L112.62 0L107.49-12.17L107.49 0ZM127.03 0L119.99 0L119.99-17.82L122.48-17.82L122.48-1.78L127.03-1.78L127.03 0ZM134.30 0L131.86 0L131.86-17.82L134.30-17.82L134.30 0ZM142.30 0L140.18 0L140.18-17.82L141.88-17.82L146.94-5.98L146.94-17.82L149.01-17.82L149.01 0L147.42 0L142.30-12.17L142.30 0ZM161.75 0L154.80 0L154.80-17.82L161.71-17.82L161.71-15.97L157.29-15.97L157.29-10.08L160.87-10.08L160.87-8.32L157.29-8.32L157.29-1.78L161.75-1.78L161.75 0Z" fill="#a8a294"/></g>
</svg>
